<?xml version="1.0" standalone="no"?>
<!DOCTYPE svg PUBLIC "-//W3C//DTD SVG 20010904//EN"
 "http://www.w3.org/TR/2001/REC-SVG-20010904/DTD/svg10.dtd">
<svg version="1.0" xmlns="http://www.w3.org/2000/svg"
 width="673.000000pt" height="1280.000000pt" viewBox="0 0 673.000000 1280.000000"
 preserveAspectRatio="xMidYMid meet">
<metadata>
Created by potrace 1.15, written by Peter Selinger 2001-2017
</metadata>
<g transform="translate(0.000000,1280.000000) scale(0.100000,-0.100000)"
fill="#000000" stroke="none">
<path d="M4908 12790 c-60 -10 -142 -37 -188 -61 -57 -29 -108 -90 -240 -287
-118 -176 -128 -189 -179 -214 -30 -16 -69 -28 -86 -28 -17 0 -106 16 -198 35
-186 39 -236 42 -332 20 -36 -9 -100 -20 -143 -25 -42 -6 -104 -19 -137 -29
-33 -11 -98 -22 -146 -25 -173 -12 -330 -70 -457 -171 -129 -101 -183 -179
-290 -415 -16 -36 -50 -90 -76 -120 -58 -67 -82 -112 -91 -170 -8 -56 -12 -61
-110 -140 -131 -106 -212 -187 -298 -299 -45 -58 -130 -162 -190 -229 -226
-257 -286 -344 -326 -476 -25 -80 -27 -150 -6 -190 22 -42 19 -54 -23 -71 -20
-9 -72 -37 -115 -62 -56 -33 -79 -52 -84 -71 -10 -41 49 -142 139 -239 43 -46
78 -92 78 -101 0 -22 -26 -156 -40 -203 -7 -24 -7 -87 -1 -191 l9 -155 82
-192 c46 -105 99 -218 119 -249 20 -31 58 -95 83 -142 200 -371 383 -705 443
-810 97 -167 170 -315 189 -381 8 -30 20 -115 27 -189 12 -131 11 -138 -11
-210 -18 -59 -24 -113 -31 -250 -5 -122 -14 -199 -29 -255 -11 -44 -23 -129
-26 -190 -7 -126 9 -367 32 -467 14 -60 14 -75 1 -131 -14 -62 -14 -68 14
-166 3 -10 -7 -17 -33 -21 -83 -15 -276 -176 -653 -547 -281 -277 -337 -337
-360 -386 -52 -108 -41 -193 29 -222 33 -14 263 -42 425 -52 92 -6 265 9 327
28 37 11 64 3 64 -20 0 -13 -103 -203 -237 -435 -15 -27 -40 -59 -56 -70 -25
-19 -32 -19 -110 -8 -278 40 -542 -27 -817 -209 -114 -76 -336 -293 -425 -417
-291 -404 -442 -927 -422 -1457 17 -439 156 -803 409 -1070 239 -253 521 -370
848 -352 717 41 1333 799 1431 1762 15 147 7 400 -16 545 l-17 104 25 21 c13
11 59 49 102 85 128 107 165 130 204 130 74 -1 111 -17 171 -74 102 -97 187
-121 241 -67 58 58 35 154 -89 374 -53 95 -54 99 -47 150 11 69 11 121 1 184
l-9 53 54 25 c30 14 64 25 77 25 76 0 135 96 101 163 -26 50 -123 169 -169
208 -36 31 -50 49 -50 68 0 14 57 134 126 266 168 319 546 1078 667 1340 61
130 108 219 126 235 15 14 35 45 44 70 28 75 61 125 81 125 10 0 28 -12 39
-27 20 -27 20 -29 4 -63 -9 -20 -17 -53 -17 -74 0 -51 26 -122 51 -142 20 -15
20 -16 -17 -70 -236 -344 -308 -484 -379 -745 -148 -540 -41 -1064 288 -1411
167 -176 393 -295 629 -333 121 -20 359 -8 478 24 438 115 781 374 1032 778
209 338 319 716 305 1048 -10 219 -53 386 -153 580 -98 191 -237 348 -413 465
-386 257 -842 270 -1256 37 -105 -59 -152 -97 -185 -148 l-27 -43 -84 96 c-46
52 -95 116 -109 142 -14 27 -41 70 -61 97 -56 76 -229 421 -229 458 0 39 -12
58 -32 51 -16 -7 -48 28 -48 52 0 7 31 33 69 58 67 44 151 125 151 144 0 6 17
15 38 21 74 19 96 72 81 193 -14 118 -29 187 -49 227 -13 26 -15 41 -8 60 5
14 7 38 4 54 -4 20 -1 35 10 48 21 22 38 24 30 2 -5 -12 -1 -15 22 -10 74 14
132 17 150 7 11 -6 25 -26 32 -45 16 -49 31 -58 105 -61 l66 -4 22 45 c15 31
18 49 12 58 -45 61 -46 63 -35 92 8 21 8 46 -1 92 -9 50 -9 72 1 101 17 53 11
71 -37 103 -27 19 -46 41 -53 63 -9 28 -21 39 -61 56 -33 15 -65 40 -97 78
-60 70 -65 81 -50 136 10 36 9 57 -1 102 -16 73 -15 265 4 438 8 72 19 205 25
297 11 188 23 286 46 373 11 42 18 147 24 350 10 319 6 296 99 645 103 384 93
363 243 527 110 119 154 184 196 285 22 54 26 84 31 203 l6 140 40 5 c56 8 67
16 122 90 38 52 62 72 115 100 124 65 150 105 193 310 22 104 24 132 15 173
-5 26 -10 92 -10 145 -1 78 -5 107 -23 147 -37 84 -135 250 -165 278 -32 31
-108 60 -215 83 -84 18 -301 27 -369 14z m-850 -2663 c12 -14 -10 -106 -55
-227 l-28 -75 0 -280 c0 -277 1 -282 32 -430 18 -82 57 -242 88 -354 31 -112
63 -238 71 -280 8 -42 26 -110 39 -151 27 -86 49 -300 36 -346 -4 -16 -21 -54
-36 -84 -21 -41 -30 -76 -34 -135 -6 -74 -8 -80 -27 -78 -32 3 -397 173 -411
191 -18 22 -16 67 7 158 25 101 25 184 0 265 -11 35 -40 152 -65 259 -24 107
-51 220 -60 250 -8 30 -15 66 -15 81 0 14 -9 34 -20 44 -15 14 -20 31 -20 72
0 51 -1 54 -35 70 -48 23 -56 56 -22 87 44 40 56 159 21 198 -21 23 -38 96
-49 214 -9 83 8 112 142 249 91 93 122 118 198 158 50 26 117 72 150 102 63
57 76 63 93 42z m-138 -2457 c308 -141 275 -120 315 -200 20 -39 40 -68 45
-65 14 9 30 -39 30 -90 0 -24 9 -89 20 -145 11 -56 20 -112 20 -125 0 -34 -20
-42 -40 -15 -24 32 -144 48 -171 24 -10 -9 -26 -13 -37 -10 -28 9 -154 136
-188 190 -16 25 -37 46 -46 46 -23 0 -58 47 -58 79 0 15 -13 47 -28 72 -41 65
-52 103 -52 188 0 101 7 124 34 118 12 -3 82 -33 156 -67z m856 -309 c-11 -18
-36 -13 -36 7 0 10 3 22 7 26 10 10 37 -20 29 -33z m-846 -353 c28 -24 77 -59
111 -78 93 -53 111 -94 29 -65 -55 19 -68 15 -72 -27 -2 -27 -10 -37 -50 -58
-58 -31 -59 -32 -67 -72 -5 -26 -12 -33 -31 -33 -35 0 -36 -24 -1 -36 33 -12
40 -29 18 -47 -8 -7 -18 -7 -27 -2 -53 34 -2 -50 58 -96 25 -19 47 -45 49 -56
2 -12 19 -35 38 -51 19 -16 35 -32 35 -37 0 -5 -51 -67 -113 -137 -62 -70
-170 -194 -240 -275 -69 -81 -129 -143 -132 -138 -9 14 13 115 36 164 10 23
32 59 49 82 38 49 48 106 30 171 -13 45 -13 47 14 67 93 72 91 69 90 138 -1
35 -7 133 -14 218 -10 133 -9 171 5 275 9 66 19 123 23 127 11 10 54 16 85 12
15 -2 50 -23 77 -46z m249 -939 c14 -25 3 -48 -306 -655 -293 -575 -689 -1337
-724 -1391 -7 -13 -19 -25 -25 -27 -13 -5 -129 70 -161 105 -48 52 -47 110 2
129 14 5 25 16 25 24 0 7 31 75 69 151 39 75 75 162 82 193 6 31 26 100 44
152 19 52 41 123 50 158 13 53 93 250 138 340 6 12 78 89 159 170 82 81 155
161 162 178 8 17 52 73 98 125 47 52 131 153 188 224 57 72 111 136 119 142
25 20 64 11 80 -18z m-1843 -1154 c-8 -31 10 -85 33 -101 20 -14 25 -43 36
-199 4 -60 1 -97 -13 -150 l-18 -70 -44 -7 c-59 -10 -73 -27 -74 -89 -1 -59
-22 -83 -50 -60 -51 42 -67 369 -25 501 17 54 76 162 105 193 21 23 28 26 41
16 8 -7 12 -21 9 -34z m502 -2231 c33 -7 27 -31 -15 -58 -21 -13 -47 -33 -57
-45 -28 -31 -105 -74 -122 -67 -21 8 -17 73 8 115 41 69 46 73 107 66 31 -3
66 -8 79 -11z"/>
</g>
</svg>
