<?xml version="1.0" encoding="UTF-8" standalone="no"?>
<!DOCTYPE svg PUBLIC "-//W3C//DTD SVG 20010904//EN" "http://www.w3.org/TR/2001/REC-SVG-20010904/DTD/svg10.dtd">
<svg version="1.0" xmlns="http://www.w3.org/2000/svg" width="1280.000000pt" height="1198.000000pt" viewBox="0 0 1280.000000 1198.000000" preserveAspectRatio="xMidYMid meet">
<metadata>
Created by potrace 1.15, written by Peter Selinger 2001-2017
</metadata>
<g transform="translate(0.000000,1198.000000) scale(0.100000,-0.100000)" fill="#000000" stroke="none">
<path d="M11668 11943 c-75 -80 -241 -323 -370 -543 -47 -80 -101 -172 -122 -205 -40 -67 -44 -85 -18 -85 31 0 67 49 156 213 92 169 156 268 301 466 50 69 97 136 103 148 30 55 0 58 -50 6z"/>
<path d="M10632 11778 c-78 -82 -155 -324 -193 -613 -20 -151 1 -582 42 -862 13 -92 19 -106 40 -98 46 18 55 79 74 496 20 452 24 482 106 759 27 91 52 193 56 227 6 59 5 63 -25 92 -39 39 -60 39 -100 -1z"/>
<path d="M1296 11598 c-30 -42 -35 -27 161 -493 88 -210 191 -415 207 -415 33 0 10 75 -78 265 -43 92 -175 417 -241 593 -15 39 -28 72 -30 72 -2 0 -11 -10 -19 -22z"/>
<path d="M9411 11547 c-55 -67 6 -208 229 -532 148 -215 214 -324 360 -599 125 -238 163 -301 186 -310 76 -29 -85 351 -386 909 -62 115 -140 266 -173 334 -69 142 -126 211 -176 211 -15 0 -34 -6 -40 -13z"/>
<path d="M2488 11438 c-54 -58 -58 -77 -58 -315 0 -120 5 -281 10 -358 21 -284 93 -857 121 -967 9 -36 31 -50 44 -28 18 30 24 137 15 275 -5 83 -14 282 -20 442 -10 273 -9 304 11 465 27 225 29 379 6 433 -23 50 -55 85 -80 85 -10 0 -33 -15 -49 -32z"/>
<path d="M3452 11453 c-9 -17 -22 -89 -57 -308 -23 -143 -114 -533 -202 -860 -27 -100 -35 -215 -16 -222 23 -8 43 45 77 212 19 94 60 276 91 405 31 129 74 316 96 415 22 99 47 213 56 252 13 57 14 78 5 98 -13 29 -37 33 -50 8z"/>
<path d="M8380 11455 c0 -25 76 -101 200 -201 63 -50 241 -213 396 -361 337 -322 360 -343 379 -343 39 0 7 45 -107 151 -67 63 -208 197 -312 297 -105 101 -229 214 -276 250 -47 37 -125 102 -175 144 -49 43 -93 78 -97 78 -4 0 -8 -7 -8 -15z"/>
<path d="M11992 11359 c-55 -11 -109 -55 -296 -240 -206 -201 -318 -325 -408 -450 -124 -171 -235 -315 -291 -378 -60 -66 -72 -101 -37 -101 13 0 80 60 183 163 329 331 663 617 833 714 60 34 121 74 135 90 70 74 89 148 45 177 -31 20 -121 34 -164 25z"/>
<path d="M822 10918 c-20 -20 -14 -67 18 -132 25 -51 57 -86 181 -201 250 -233 320 -295 404 -358 44 -33 168 -133 275 -222 230 -190 248 -203 292 -211 l33 -7 -36 39 c-19 22 -68 78 -108 127 -39 48 -76 87 -81 87 -12 0 -142 137 -337 355 -185 207 -442 461 -512 506 -48 31 -108 38 -129 17z"/>
<path d="M12470 10545 c-357 -46 -532 -77 -557 -98 -7 -5 -13 -16 -13 -23 0 -20 58 -18 182 6 172 32 295 49 486 65 198 17 235 26 230 59 -4 30 -36 30 -328 -9z"/>
<path d="M8235 10386 c-32 -14 -85 -69 -85 -88 0 -6 21 -32 48 -58 37 -36 69 -55 152 -88 165 -65 394 -120 650 -157 140 -20 592 -107 710 -136 118 -30 178 -35 186 -16 9 24 -21 70 -58 89 -38 19 -399 130 -503 154 -246 57 -470 123 -676 199 -258 96 -373 123 -424 101z"/>
<path d="M4412 10220 c-29 -10 -83 -36 -120 -56 -78 -44 -307 -197 -414 -277 -40 -31 -176 -119 -303 -197 -126 -78 -252 -159 -280 -180 -27 -21 -85 -59 -129 -85 -61 -37 -75 -50 -63 -57 23 -12 93 14 517 194 547 233 793 365 861 465 62 89 85 173 57 201 -17 17 -65 14 -126 -8z"/>
<path d="M17 10192 c-10 -10 -17 -21 -17 -25 0 -3 39 -17 88 -32 48 -14 107 -34 132 -45 25 -10 79 -30 120 -43 41 -13 150 -50 243 -81 161 -55 244 -72 248 -51 5 21 -65 53 -262 119 -112 38 -268 93 -347 122 -156 59 -181 63 -205 36z"/>
<path d="M10575 9938 c-37 -21 -73 -55 -233 -220 -87 -91 -195 -210 -239 -264 -43 -55 -117 -146 -164 -204 -46 -58 -106 -140 -133 -182 -89 -144 -188 -394 -207 -523 -7 -54 -28 -108 -93 -245 -165 -343 -257 -614 -297 -872 -6 -43 -17 -85 -23 -94 -7 -8 -37 -19 -71 -24 -86 -13 -851 -35 -907 -26 l-48 7 0 52 c0 124 56 313 185 627 37 91 105 260 150 376 94 241 104 260 157 330 49 65 59 113 29 143 -39 39 -79 25 -201 -69 -119 -91 -163 -108 -175 -69 -11 34 4 87 36 123 52 60 99 147 99 185 0 48 -42 119 -123 208 -36 39 -79 92 -97 118 -37 54 -37 85 5 188 47 114 29 182 -61 237 -30 19 -39 20 -63 10 -36 -14 -88 -64 -108 -104 -22 -42 -12 -113 26 -189 17 -36 31 -72 31 -82 0 -9 -15 -35 -34 -58 -52 -65 -89 -146 -88 -195 0 -59 66 -188 146 -286 75 -92 109 -155 104 -193 -3 -28 -3 -28 -73 -26 -47 1 -115 15 -210 42 -133 39 -185 48 -197 35 -4 -3 12 -45 34 -92 157 -341 230 -596 277 -975 29 -235 34 -319 19 -340 -12 -16 -47 -20 -343 -33 -267 -11 -839 -53 -1259 -91 l-69 -6 7 174 c15 396 61 643 161 879 15 36 48 126 72 200 25 74 56 156 69 182 60 118 -6 130 -146 28 -116 -85 -192 -112 -202 -72 -5 18 4 56 52 229 20 72 22 88 11 123 -14 48 -104 148 -166 185 -28 16 -45 33 -45 44 0 11 18 59 41 107 44 97 50 143 25 193 -33 63 -123 67 -183 9 -86 -83 -94 -133 -39 -257 l37 -84 -49 -51 c-64 -66 -72 -83 -72 -154 0 -92 49 -182 151 -274 43 -39 79 -78 79 -85 0 -30 -103 -29 -205 3 -46 15 -61 16 -95 5 -23 -7 -43 -18 -46 -26 -3 -8 38 -76 91 -152 102 -145 186 -301 236 -435 48 -132 98 -417 115 -659 6 -86 5 -96 -13 -112 -35 -31 -171 -54 -556 -92 -139 -14 -322 -34 -407 -45 -247 -31 -544 -60 -616 -60 l-67 0 6 218 c11 377 37 611 92 833 38 152 143 404 189 454 21 22 26 37 24 64 -3 34 -5 36 -38 35 -20 0 -77 -20 -128 -42 -50 -23 -101 -42 -112 -42 -32 0 -25 36 25 139 86 177 83 216 -23 319 l-66 63 12 82 c16 113 15 141 -6 160 -28 25 -88 22 -117 -7 -43 -43 -58 -137 -28 -182 14 -23 15 -32 3 -77 -7 -28 -28 -85 -47 -126 -52 -114 -66 -179 -62 -295 l4 -101 -41 -3 c-24 -2 -62 5 -93 18 -54 21 -106 26 -115 12 -3 -5 20 -51 50 -103 179 -305 273 -567 340 -948 28 -157 45 -473 27 -484 -27 -17 -451 -62 -483 -52 -14 4 -35 57 -84 209 -36 111 -79 236 -96 277 -17 41 -63 151 -101 246 l-69 172 0 111 c0 125 4 114 -98 285 -190 321 -307 480 -625 849 -214 247 -367 346 -470 303 -39 -17 -54 -48 -43 -92 9 -36 83 -121 299 -342 340 -350 402 -435 617 -847 105 -201 126 -230 178 -247 65 -21 68 -25 186 -301 107 -252 195 -529 196 -615 0 -29 -4 -33 -54 -52 -30 -11 -108 -29 -174 -40 -169 -29 -286 -76 -325 -131 -14 -20 -12 -30 18 -118 44 -130 203 -564 375 -1027 242 -650 356 -1009 329 -1041 -5 -6 -35 -19 -67 -27 -73 -21 -808 -150 -972 -172 -159 -21 -284 -41 -384 -62 l-78 -16 5 -61 c3 -34 34 -162 70 -286 168 -583 307 -1089 307 -1121 0 -24 -10 -49 -28 -75 -16 -21 -194 -201 -395 -398 -202 -197 -367 -364 -367 -371 0 -20 88 -130 236 -295 285 -319 557 -644 684 -821 54 -75 110 -143 124 -153 22 -14 35 -15 93 -6 172 27 502 103 1173 269 642 158 719 174 870 175 146 1 127 9 393 -162 86 -56 374 -236 640 -400 570 -354 688 -428 746 -470 59 -43 95 -48 160 -22 44 17 1809 941 2016 1055 l60 33 180 314 c214 373 430 761 487 875 l41 82 -28 36 c-46 62 -374 403 -532 555 -171 164 -195 192 -195 224 0 24 112 255 215 441 33 61 256 450 495 865 240 415 438 766 440 779 l5 24 -84 -6 c-108 -7 -738 -72 -894 -92 -191 -24 -486 -55 -532 -55 -32 0 -43 4 -43 16 0 38 82 186 234 418 90 138 330 514 533 836 203 322 393 620 421 664 29 43 52 87 52 97 0 25 -36 47 -97 58 -27 6 -182 19 -344 31 -316 23 -406 33 -423 50 -7 7 -10 52 -10 113 2 121 50 326 107 453 19 44 56 131 82 194 84 206 139 290 245 375 105 84 238 240 366 430 213 317 239 355 312 467 40 62 116 163 168 223 114 132 174 216 174 245 0 26 -53 106 -80 120 -24 13 -50 12 -75 -2z"/>
<path d="M11134 9939 c-64 -18 -69 -59 -11 -84 18 -7 114 -32 212 -54 238 -55 418 -107 606 -176 239 -89 354 -124 482 -147 107 -20 121 -21 160 -8 73 26 77 96 7 145 -52 36 -158 65 -905 245 -372 89 -468 103 -551 79z"/>
<path d="M10916 9524 c-8 -22 3 -40 88 -133 41 -46 143 -185 227 -310 153 -229 449 -609 569 -733 47 -49 73 -68 91 -68 30 0 49 17 49 45 0 32 -73 153 -147 243 -37 46 -113 141 -168 211 -120 153 -384 469 -504 601 -133 148 -189 187 -205 144z"/>
<path d="M8843 9463 c-17 -2 -36 -10 -42 -17 -8 -10 38 -15 232 -25 133 -7 276 -16 317 -21 41 -5 97 -9 123 -10 40 0 48 3 45 17 -4 23 -64 39 -194 52 -101 10 -410 13 -481 4z"/>
<path d="M595 9445 c-5 -2 -23 -6 -38 -9 -31 -7 -67 -57 -67 -93 0 -38 49 -79 120 -102 138 -44 211 -52 610 -61 212 -5 491 -13 620 -16 206 -6 237 -5 248 9 19 22 5 27 -111 38 -56 5 -158 20 -227 34 -69 13 -168 31 -220 40 -119 21 -310 65 -472 109 -68 19 -164 39 -214 45 -83 10 -226 14 -249 6z"/>
<path d="M11867 9184 c-14 -15 19 -47 114 -109 55 -37 173 -121 262 -187 220 -164 265 -194 278 -181 18 18 -5 47 -78 99 -38 26 -112 81 -165 121 -147 110 -379 263 -401 263 -2 0 -7 -3 -10 -6z"/>
<path d="M10547 9173 c-13 -13 -7 -62 14 -110 155 -353 331 -804 409 -1045 46 -141 83 -208 132 -238 43 -26 73 -25 92 2 42 59 14 132 -273 725 -77 161 -141 295 -141 299 0 14 -153 311 -176 342 -24 31 -43 39 -57 25z"/>
<path d="M2563 8783 c-7 -2 -48 -46 -91 -96 -115 -135 -287 -302 -457 -447 -295 -250 -426 -407 -442 -527 -4 -34 -1 -45 24 -73 24 -27 36 -32 70 -32 56 1 91 21 152 88 98 107 354 458 729 999 56 81 60 107 15 88z"/>
<path d="M10184 8503 c4 -16 56 -131 115 -258 60 -126 130 -284 156 -350 27 -66 51 -124 56 -128 11 -14 49 3 49 21 0 9 -28 73 -61 142 -34 69 -105 218 -159 332 -99 208 -132 268 -152 268 -6 0 -8 -11 -4 -27z"/>
<path d="M1590 8460 c-19 -4 -136 -55 -260 -113 -283 -131 -500 -201 -722 -232 -33 -4 -51 -12 -59 -26 -15 -30 -4 -49 29 -49 41 0 610 193 853 290 207 81 269 111 269 130 0 11 -58 11 -110 0z"/>
<path d="M2836 8078 c-2 -7 -9 -44 -15 -83 -7 -38 -39 -160 -71 -270 -33 -110 -68 -238 -79 -285 -25 -108 -45 -249 -37 -257 10 -11 33 58 70 207 19 80 62 237 96 350 63 212 77 280 66 324 -7 27 -24 35 -30 14z"/>
</g>
</svg>