<?xml version="1.0" encoding="UTF-8" standalone="no"?>
<!DOCTYPE svg PUBLIC "-//W3C//DTD SVG 20010904//EN" "http://www.w3.org/TR/2001/REC-SVG-20010904/DTD/svg10.dtd">
<svg version="1.0" xmlns="http://www.w3.org/2000/svg" width="1280.000000pt" height="1198.000000pt" viewBox="0 0 1280.000000 1198.000000" preserveAspectRatio="xMidYMid meet">
<metadata>
Created by potrace 1.15, written by Peter Selinger 2001-2017
</metadata>
<g transform="translate(0.000000,1198.000000) scale(0.100000,-0.100000)" fill="#000000" stroke="none">
<path d="M11669 11943 c-78 -83 -242 -323 -371 -543 -47 -80 -101 -172 -122 -205 -40 -67 -44 -85 -18 -85 31 0 67 49 156 213 92 169 156 268 301 466 50 69 97 136 103 148 30 55 0 58 -49 6z"/>
<path d="M10625 11779 c-89 -107 -169 -390 -196 -694 -11 -125 4 -396 37 -675 19 -164 26 -194 46 -198 47 -9 63 79 78 448 18 457 30 541 104 793 76 255 79 280 40 326 -35 42 -73 42 -109 0z"/>
<path d="M1291 11591 c-19 -34 -13 -59 54 -220 36 -86 87 -205 112 -266 87 -208 191 -415 207 -415 33 0 10 76 -79 265 -52 111 -143 335 -214 524 -25 69 -51 126 -58 128 -6 2 -16 -5 -22 -16z"/>
<path d="M9410 11550 c-50 -50 -2 -191 132 -390 36 -52 107 -158 160 -236 99 -147 195 -313 318 -549 96 -185 147 -265 171 -265 11 0 19 4 19 10 0 5 -17 60 -37 122 -38 117 -226 500 -435 888 -57 107 -115 220 -127 251 -30 71 -83 144 -124 169 -40 25 -52 25 -77 0z"/>
<path d="M2485 11443 c-15 -15 -33 -39 -40 -53 -47 -92 -17 -688 66 -1295 24 -177 47 -313 55 -326 11 -18 25 -8 41 29 17 39 16 123 -7 577 -14 290 -12 444 10 610 24 184 26 334 5 397 -31 88 -79 111 -130 61z"/>
<path d="M3452 11453 c-9 -18 -28 -120 -57 -308 -17 -111 -58 -289 -141 -620 -81 -321 -95 -385 -92 -424 2 -19 8 -36 15 -38 23 -8 41 43 73 197 18 85 59 267 91 405 33 137 73 313 89 390 17 77 42 190 57 252 22 92 25 116 15 137 -13 30 -37 34 -50 9z"/>
<path d="M8380 11455 c0 -25 76 -101 200 -201 63 -51 243 -215 401 -366 328 -314 354 -338 374 -338 40 0 6 46 -117 161 -73 68 -218 205 -323 306 -104 100 -224 208 -265 240 -41 31 -115 92 -165 135 -49 43 -93 78 -97 78 -5 0 -8 -7 -8 -15z"/>
<path d="M11965 11358 c-87 -31 -531 -476 -673 -675 -85 -120 -255 -340 -311 -406 -49 -55 -57 -87 -24 -87 8 0 83 69 166 152 181 182 369 355 567 523 149 125 207 166 318 225 107 56 196 180 165 228 -25 40 -143 63 -208 40z"/>
<path d="M820 10920 c-24 -24 -21 -48 18 -130 18 -38 50 -78 106 -130 45 -41 121 -113 171 -160 151 -143 213 -198 313 -274 54 -40 185 -146 292 -236 174 -145 271 -212 287 -196 8 8 -154 197 -233 269 -40 38 -163 168 -273 290 -255 285 -520 546 -574 566 -59 22 -85 23 -107 1z"/>
<path d="M12545 10555 c-377 -49 -610 -88 -632 -107 -7 -6 -13 -17 -13 -24 0 -20 59 -18 182 6 162 31 289 48 486 65 208 18 235 25 230 58 -4 30 -33 31 -253 2z"/>
<path d="M8214 10381 c-37 -22 -64 -58 -64 -82 0 -10 22 -37 48 -61 102 -91 400 -179 827 -243 94 -15 231 -39 305 -55 74 -15 191 -38 259 -50 69 -12 149 -31 179 -41 70 -24 108 -24 121 -1 15 27 -18 74 -65 94 -66 28 -435 137 -551 162 -150 34 -366 97 -536 157 -383 137 -467 156 -523 120z"/>
<path d="M4388 10216 c-93 -38 -279 -156 -525 -333 -60 -43 -189 -127 -288 -187 -99 -60 -223 -139 -275 -176 -52 -37 -121 -82 -152 -101 -118 -69 -50 -67 131 5 264 105 728 308 868 381 252 131 314 180 373 299 32 63 38 104 18 124 -19 19 -88 14 -150 -12z"/>
<path d="M17 10192 c-10 -10 -17 -21 -17 -25 0 -3 39 -18 88 -32 48 -14 107 -34 132 -45 25 -10 79 -30 120 -44 41 -13 149 -50 240 -81 160 -55 240 -71 250 -50 9 18 -92 62 -330 143 -129 44 -277 97 -328 116 -106 41 -132 44 -155 18z"/>
<path d="M10544 9922 c-57 -42 -358 -359 -461 -486 -265 -328 -301 -381 -378 -555 -55 -126 -91 -237 -110 -336 -11 -59 -35 -122 -94 -245 -159 -330 -234 -549 -286 -824 -13 -71 -30 -136 -38 -143 -7 -7 -47 -17 -88 -23 -106 -13 -791 -33 -868 -25 l-64 7 5 101 c5 90 12 121 58 256 29 85 84 231 122 325 38 94 110 273 159 398 70 176 101 241 139 294 48 64 55 83 51 129 -2 25 -28 45 -58 45 -33 0 -77 -24 -158 -87 -82 -65 -141 -97 -162 -89 -12 5 -14 18 -11 55 4 39 14 61 50 107 57 73 88 131 88 163 0 41 -37 104 -108 186 -110 127 -142 174 -142 211 0 18 14 72 31 119 46 128 34 180 -59 237 -21 13 -41 18 -57 14 -36 -9 -88 -59 -115 -110 -24 -44 -24 -44 -6 -107 9 -35 28 -81 42 -101 32 -50 31 -65 -14 -119 -57 -70 -96 -162 -88 -211 10 -63 74 -181 143 -266 64 -78 113 -162 113 -193 0 -9 -7 -22 -16 -29 -21 -18 -121 -2 -281 45 -110 31 -193 44 -193 30 0 -3 33 -81 74 -173 139 -315 208 -578 251 -962 20 -179 20 -276 0 -284 -17 -6 -114 -12 -455 -26 -129 -6 -453 -28 -719 -50 -266 -22 -485 -39 -486 -38 0 2 2 91 7 198 8 225 20 338 54 502 30 151 48 210 94 322 21 50 55 143 75 206 21 63 53 148 72 188 38 81 37 112 -3 112 -31 0 -99 -34 -142 -71 -45 -39 -149 -91 -175 -87 -33 5 -32 36 7 170 40 134 44 184 20 230 -24 47 -93 117 -151 154 -29 19 -53 36 -53 39 0 4 20 53 45 109 48 112 53 138 31 191 -17 40 -42 55 -92 55 -48 0 -92 -28 -133 -85 -49 -68 -50 -98 -7 -197 20 -46 36 -90 36 -98 0 -7 -24 -39 -54 -70 -63 -65 -74 -101 -57 -181 17 -81 61 -149 151 -230 44 -41 80 -79 80 -86 0 -29 -104 -27 -206 4 -54 17 -107 13 -138 -10 -19 -14 -24 -6 124 -217 75 -107 170 -297 210 -419 55 -169 125 -674 101 -720 -21 -39 -151 -63 -576 -106 -137 -14 -342 -36 -455 -50 -252 -30 -506 -55 -573 -55 l-50 0 6 253 c9 356 34 588 88 802 38 147 143 399 190 452 29 34 36 66 20 92 -13 20 -66 9 -161 -34 -44 -20 -93 -37 -108 -38 -23 -2 -27 1 -24 23 1 13 25 73 52 132 75 160 68 207 -45 313 l-54 50 16 107 c14 91 14 110 2 124 -42 51 -120 35 -150 -30 -20 -45 -25 -131 -8 -142 22 -13 3 -108 -44 -217 -50 -117 -59 -159 -61 -299 l-1 -93 -33 -3 c-18 -2 -57 6 -88 17 -60 23 -124 28 -124 9 0 -6 33 -68 74 -137 94 -161 117 -206 165 -332 102 -270 176 -616 188 -885 9 -192 19 -178 -139 -199 -73 -10 -186 -19 -252 -19 l-119 -1 -71 220 c-40 121 -86 252 -103 290 -18 39 -60 140 -94 225 l-62 155 -1 121 -1 121 -114 189 c-141 235 -249 391 -388 560 -287 349 -402 467 -523 537 -44 25 -67 31 -111 32 -72 0 -99 -21 -99 -76 0 -49 38 -94 293 -357 347 -356 397 -425 622 -852 54 -102 108 -197 122 -211 13 -14 41 -31 62 -37 21 -7 45 -20 53 -29 20 -22 164 -346 206 -463 92 -254 135 -432 110 -455 -21 -20 -98 -43 -205 -60 -172 -27 -271 -64 -327 -123 l-28 -30 17 -54 c10 -29 62 -174 115 -323 86 -236 152 -415 372 -1005 100 -269 226 -664 235 -741 l5 -46 -48 -17 c-79 -27 -787 -152 -1104 -196 -150 -20 -350 -57 -359 -66 -10 -10 37 -200 148 -589 187 -657 241 -854 241 -878 0 -52 -74 -131 -569 -609 l-234 -227 18 -28 c30 -46 125 -160 245 -293 129 -142 512 -595 581 -685 26 -33 78 -104 117 -157 98 -133 98 -133 214 -113 151 25 474 99 928 211 519 128 821 199 936 219 109 19 229 19 282 1 22 -8 133 -74 248 -147 115 -72 434 -271 709 -442 275 -170 551 -343 614 -385 150 -98 157 -101 223 -77 29 10 188 89 353 177 165 87 623 328 1017 535 l716 378 190 330 c351 610 512 907 512 944 0 27 -163 203 -476 516 -144 143 -265 271 -269 284 -15 48 122 302 722 1343 234 406 427 747 430 758 5 18 0 20 -41 20 -54 0 -767 -72 -986 -100 -204 -25 -315 -37 -427 -46 -91 -6 -93 -6 -93 15 0 43 69 169 217 396 83 127 323 502 533 835 211 333 407 643 437 690 29 46 52 91 51 100 -8 42 -101 59 -488 85 -294 20 -361 29 -377 51 -19 27 -16 152 7 265 26 124 68 249 158 463 108 256 147 314 292 435 80 66 215 219 267 301 21 34 73 112 116 173 43 62 103 150 134 197 183 279 229 343 293 415 93 105 169 204 176 232 4 15 -3 38 -20 67 -48 82 -96 96 -162 48z m-2361 -270 c18 -31 19 -35 3 -77 -24 -62 -72 -126 -91 -119 -8 3 -24 22 -36 41 -17 27 -20 45 -17 84 10 100 98 145 141 71z m-2003 -241 c23 -44 1 -128 -46 -177 -36 -39 -47 -41 -74 -14 -28 28 -27 94 4 144 37 61 95 85 116 47z m2011 -168 c155 -163 200 -266 149 -348 -22 -36 -106 -105 -127 -105 -20 0 -121 104 -160 163 -69 106 -65 244 11 325 16 17 37 32 46 32 9 0 46 -30 81 -67z m-1968 -228 c75 -57 92 -89 92 -170 0 -60 -5 -80 -35 -140 -27 -53 -42 -72 -66 -82 -49 -19 -106 15 -169 99 -61 80 -79 127 -70 174 12 65 113 152 176 154 15 0 46 -15 72 -35z m-1656 -115 c75 -45 81 -115 21 -242 -68 -143 -156 -200 -194 -126 -22 43 -15 176 13 238 24 54 98 150 116 150 6 0 26 -9 44 -20z m3957 -258 c6 -11 -74 -238 -150 -422 -31 -74 -85 -209 -120 -300 -86 -219 -104 -261 -128 -287 -40 -46 -49 -31 -61 102 -4 39 -13 107 -21 152 -18 108 -124 448 -174 563 -43 98 -49 127 -25 136 8 4 80 -6 159 -21 178 -34 212 -31 366 35 115 50 144 57 154 42z m-1996 -167 c2 -19 -25 -112 -67 -234 -81 -235 -102 -308 -126 -444 -24 -140 -61 -146 -84 -15 -23 135 -132 376 -247 551 -36 53 -62 102 -59 107 3 6 45 10 93 10 151 1 324 18 387 39 80 27 99 24 103 -14z m-1801 -71 c3 -9 -7 -61 -22 -117 -58 -212 -76 -287 -110 -461 -38 -188 -47 -216 -70 -216 -23 0 -41 37 -80 165 -103 336 -138 436 -176 499 -22 37 -37 71 -34 76 4 6 62 10 133 11 111 0 138 4 217 29 104 33 133 36 142 14z m4908 -1194 c291 -19 384 -36 398 -74 4 -9 -78 -143 -202 -333 -114 -175 -254 -392 -311 -482 -57 -89 -109 -165 -116 -168 -7 -3 -118 45 -246 105 -458 216 -606 271 -938 350 -131 31 -350 46 -695 46 -396 1 -458 -5 -729 -74 -175 -45 -954 -305 -1346 -450 -533 -197 -1221 -262 -1630 -153 -109 29 -188 64 -205 89 -9 14 -41 94 -70 177 -29 84 -69 194 -89 245 -20 52 -36 106 -36 121 0 60 71 92 310 142 234 48 490 87 756 114 137 14 299 32 359 40 340 45 550 70 990 115 110 12 277 32 370 45 246 35 1074 102 1561 126 716 37 1478 44 1869 19z m-1705 -614 c226 -29 370 -57 498 -98 137 -43 398 -146 610 -239 249 -110 302 -142 302 -183 0 -15 -80 -170 -105 -204 -2 -2 -43 24 -91 56 -215 143 -377 222 -639 312 -357 122 -565 167 -805 177 -307 12 -777 -44 -1040 -123 -120 -37 -372 -133 -600 -229 -389 -165 -781 -307 -985 -356 -195 -47 -487 -75 -670 -64 -132 8 -529 51 -603 66 -60 12 -62 14 -103 137 -19 55 -26 89 -20 95 7 7 51 1 123 -16 209 -48 251 -52 528 -52 267 0 416 13 610 51 118 24 349 97 975 310 1020 346 948 326 1375 373 118 13 490 5 640 -13z m-35 -237 c173 -24 762 -209 895 -281 41 -22 152 -88 246 -146 l171 -105 -202 -336 c-190 -316 -205 -337 -246 -358 -56 -28 -186 -47 -504 -73 -279 -23 -328 -28 -950 -105 -242 -30 -546 -66 -675 -80 -618 -68 -1141 -144 -1820 -264 -641 -113 -605 -108 -630 -86 -35 32 -86 151 -134 315 -52 177 -123 390 -190 566 -77 206 -82 244 -30 244 14 0 130 -12 257 -27 396 -46 720 -33 1037 43 121 30 633 216 1015 369 575 232 618 246 906 290 270 41 684 58 854 34z m2415 -1172 c0 -35 -58 -147 -167 -322 -54 -88 -143 -236 -197 -330 -197 -340 -282 -479 -316 -516 -30 -32 -81 -57 -345 -170 -407 -173 -546 -226 -745 -287 -583 -179 -945 -269 -1175 -292 -199 -21 -615 -24 -805 -6 -298 29 -850 114 -1295 200 -183 35 -618 98 -800 116 -133 13 -437 13 -566 0 -204 -20 -545 -128 -797 -251 -90 -44 -173 -81 -185 -82 -25 -2 -39 30 -102 247 -98 341 -166 616 -156 635 24 43 115 67 506 131 340 55 434 71 845 145 195 35 504 89 685 119 182 31 445 75 585 100 401 70 765 122 1150 165 195 22 571 65 835 96 680 78 2946 322 3013 324 27 1 32 -3 32 -22z m-764 -1311 c7 -17 -17 -74 -58 -143 -27 -44 -40 -56 -87 -74 -31 -12 -135 -59 -231 -105 -314 -148 -910 -375 -1141 -434 -154 -40 -534 -102 -822 -135 -171 -19 -429 -20 -602 -1 -390 43 -915 111 -1090 141 -277 47 -695 107 -1050 150 -432 53 -621 50 -805 -11 -118 -39 -366 -168 -470 -244 -133 -97 -193 -132 -202 -117 -3 7 -21 66 -38 131 -30 110 -31 119 -15 136 25 27 294 162 426 214 151 59 253 88 434 122 138 27 168 29 380 29 219 -1 240 -2 455 -38 124 -21 367 -60 540 -87 297 -46 551 -90 825 -145 331 -66 913 -107 1220 -86 318 22 707 104 1117 236 414 133 599 204 893 345 133 64 286 128 308 130 4 0 10 -6 13 -14z m-188 -356 c4 -33 -67 -177 -270 -546 -91 -164 -205 -375 -253 -469 -111 -215 -397 -742 -430 -795 -14 -23 -36 -45 -48 -49 -29 -11 -351 -19 -1257 -32 -584 -8 -966 -7 -1860 5 -1205 17 -1914 33 -1970 45 -40 8 -30 -25 -109 361 -78 380 -131 663 -133 706 -2 61 9 80 75 132 209 165 466 300 667 351 109 27 275 28 580 1 289 -25 803 -97 1100 -155 144 -27 553 -89 910 -137 231 -31 262 -33 545 -33 l300 1 250 42 c552 94 662 121 975 231 258 90 465 174 648 262 246 119 274 127 280 79z m-33 -481 c49 -31 568 -538 627 -612 l31 -38 -51 -102 c-69 -137 -201 -374 -365 -652 -229 -391 -250 -425 -281 -460 -22 -24 -179 -112 -551 -308 -286 -151 -689 -363 -895 -472 -206 -109 -429 -224 -494 -256 -135 -66 -121 -66 -236 11 -83 56 -1620 970 -1660 988 -26 11 -55 13 -115 8 -155 -11 -262 -34 -940 -196 -722 -173 -1123 -262 -1137 -254 -4 3 -84 96 -176 207 -93 111 -299 358 -458 548 -159 190 -309 371 -333 403 l-44 57 59 59 c32 32 147 142 254 245 107 103 237 232 288 288 51 56 99 103 107 105 8 2 19 -6 25 -17 6 -11 44 -184 85 -383 123 -603 119 -590 172 -602 38 -8 672 -23 1533 -36 393 -6 843 -15 1000 -20 371 -12 1086 -12 1615 0 231 5 558 12 728 16 l307 7 92 171 c50 94 169 322 263 506 280 543 443 820 484 820 9 0 39 -14 66 -31z"/>
<path d="M8613 7041 c-100 -26 -158 -119 -132 -214 23 -87 165 -187 265 -187 40 0 132 40 159 70 63 69 -7 255 -118 311 -44 23 -126 32 -174 20z m130 -55 c53 -19 76 -42 103 -104 43 -95 23 -160 -56 -183 -32 -10 -48 -9 -92 6 -76 24 -112 50 -147 102 -40 60 -39 84 4 131 52 58 115 74 188 48z"/>
<path d="M5349 6777 c-70 -47 -75 -105 -15 -162 37 -35 94 -55 155 -55 52 0 91 34 91 80 0 39 -42 124 -72 144 -35 25 -118 21 -159 -7z m134 -59 c30 -40 40 -78 25 -95 -16 -20 -72 -15 -109 10 -52 35 -49 85 6 107 37 15 54 10 78 -22z"/>
<path d="M4183 6586 c-56 -18 -100 -47 -146 -94 -32 -33 -39 -48 -44 -94 -10 -102 36 -167 161 -224 80 -36 183 -32 271 12 76 38 105 78 105 149 0 111 -45 196 -124 237 -51 26 -163 34 -223 14z m180 -60 c68 -28 117 -111 117 -200 0 -31 -7 -45 -35 -71 -47 -45 -93 -58 -181 -53 -131 9 -214 72 -214 165 0 73 43 132 117 158 49 18 155 19 196 1z"/>
<path d="M7325 6108 c-74 -43 -78 -97 -12 -166 33 -34 79 -52 138 -52 98 0 111 144 19 210 -46 33 -97 35 -145 8z m131 -62 c56 -56 43 -106 -29 -106 -31 0 -46 7 -73 34 -39 39 -43 68 -12 90 37 26 76 20 114 -18z"/>
<path d="M8428 5681 c-71 -14 -108 -55 -123 -134 -10 -53 41 -157 97 -197 43 -32 108 -46 158 -35 42 9 96 58 110 100 26 77 -52 214 -145 256 -43 20 -43 20 -97 10z m101 -66 c97 -50 132 -190 58 -235 -66 -40 -145 -20 -197 51 -33 47 -44 87 -35 130 13 59 108 89 174 54z"/>
<path d="M5545 5543 c-11 -3 -35 -16 -54 -30 -116 -88 -57 -323 94 -373 109 -36 230 49 228 161 -2 142 -145 272 -268 242z m124 -81 c89 -72 119 -146 87 -214 -17 -36 -68 -68 -109 -68 -13 0 -47 15 -77 33 -42 24 -61 43 -79 81 -22 44 -23 53 -12 94 14 54 46 101 75 111 29 11 73 -3 115 -37z"/>
<path d="M6778 5417 c-63 -15 -83 -27 -105 -70 -18 -36 -13 -105 11 -142 53 -81 256 -106 323 -39 48 48 12 190 -61 238 -35 23 -100 28 -168 13z m140 -57 c54 -33 81 -129 46 -164 -23 -24 -146 -21 -201 3 -33 15 -44 27 -51 55 -15 52 -2 88 39 108 47 24 125 23 167 -2z"/>
<path d="M4365 5223 c-76 -40 -115 -98 -115 -171 0 -65 26 -97 109 -134 73 -34 103 -33 177 4 92 45 126 117 90 186 -21 41 -75 106 -99 119 -31 17 -126 15 -162 -4z m138 -75 c57 -28 77 -53 77 -94 0 -74 -87 -120 -180 -95 -77 21 -90 34 -90 94 0 112 81 152 193 95z"/>
<path d="M9333 4750 c-40 -9 -94 -49 -129 -96 -19 -25 -29 -51 -32 -87 -3 -45 0 -57 25 -92 57 -77 148 -124 243 -125 144 -1 220 70 220 206 0 111 -65 171 -207 193 -79 12 -75 12 -120 1z m195 -89 c56 -29 85 -74 78 -124 -10 -82 -70 -124 -163 -114 -96 10 -196 71 -208 127 -9 39 20 97 59 122 43 27 172 21 234 -11z"/>
<path d="M7024 4541 c-34 -15 -64 -61 -64 -97 0 -43 39 -88 95 -109 74 -29 135 2 156 77 12 46 -1 80 -43 111 -29 22 -111 32 -144 18z m114 -61 c26 -25 28 -57 5 -82 -20 -22 -44 -23 -82 -3 -40 20 -55 67 -29 93 19 19 82 14 106 -8z"/>
<path d="M3073 4094 c-66 -33 -84 -154 -32 -211 55 -59 179 -84 246 -49 85 44 60 195 -42 253 -48 27 -125 30 -172 7z m131 -44 c59 -36 101 -148 65 -171 -44 -28 -175 5 -199 50 -19 37 -12 81 19 112 35 34 70 37 115 9z"/>
<path d="M4814 4041 c-62 -38 -94 -108 -94 -207 0 -82 27 -117 101 -133 114 -25 186 -6 247 63 42 49 49 92 23 144 -65 128 -189 187 -277 133z m99 -72 c21 -5 58 -30 83 -54 38 -36 45 -48 42 -75 -5 -53 -41 -72 -132 -73 -122 -1 -158 42 -121 139 17 45 47 74 75 74 8 0 32 -5 53 -11z"/>
<path d="M7777 3976 c-50 -19 -72 -39 -98 -94 -15 -30 -23 -65 -23 -108 -1 -77 16 -104 100 -151 56 -32 64 -34 136 -30 88 4 176 41 211 88 50 68 27 162 -57 236 -69 61 -192 88 -269 59z m191 -87 c75 -37 106 -76 98 -128 -11 -70 -69 -105 -165 -99 -117 7 -174 51 -174 134 0 53 24 91 74 117 43 22 83 16 167 -24z"/>
<path d="M5824 3788 c-44 -34 -53 -50 -54 -90 -1 -95 154 -122 214 -36 26 37 20 76 -18 114 -42 42 -97 47 -142 12z m106 -52 c6 -8 10 -25 8 -38 -3 -21 -9 -23 -60 -26 -56 -3 -58 -2 -58 22 0 46 81 76 110 42z"/>
<path d="M8425 2924 c-47 -26 -114 -95 -125 -130 -13 -37 5 -92 43 -132 56 -60 190 -92 242 -58 86 56 86 213 0 296 -41 40 -111 51 -160 24z m94 -69 c30 -15 71 -86 71 -123 0 -35 -18 -70 -45 -88 -24 -16 -28 -16 -63 0 -62 28 -112 80 -112 116 0 42 15 67 53 90 38 24 59 25 96 5z"/>
<path d="M4556 2770 c-73 -23 -109 -96 -109 -221 0 -110 19 -146 99 -185 45 -22 64 -26 114 -22 109 8 155 65 155 193 -1 98 -30 165 -91 208 -43 30 -119 43 -168 27z m114 -79 c66 -34 105 -143 81 -223 -10 -31 -20 -43 -47 -54 -55 -23 -174 4 -189 44 -46 121 -3 252 84 252 20 0 52 -8 71 -19z"/>
<path d="M7165 2546 c-104 -33 -177 -95 -218 -186 -25 -56 -35 -214 -18 -278 33 -122 209 -216 353 -190 124 23 225 141 257 299 35 171 -118 370 -284 368 -27 0 -68 -6 -90 -13z m173 -77 c55 -27 116 -103 138 -174 15 -46 16 -62 5 -108 -16 -72 -67 -155 -116 -189 -47 -33 -135 -54 -187 -44 -44 8 -127 68 -159 115 -20 28 -25 50 -28 119 -5 126 20 191 95 248 74 57 175 70 252 33z"/>
<path d="M3635 2355 c-57 -31 -118 -89 -136 -129 -12 -26 -19 -64 -19 -107 0 -55 4 -73 26 -104 14 -21 35 -46 47 -56 68 -55 182 -85 284 -74 117 12 167 72 166 199 -1 115 -49 199 -144 251 -66 36 -177 46 -224 20z m185 -66 c88 -45 134 -114 134 -205 1 -111 -64 -162 -193 -151 -79 7 -128 26 -176 68 -73 64 -85 134 -36 210 61 97 172 129 271 78z"/>
<path d="M5835 2186 c-36 -16 -76 -60 -95 -106 -32 -77 34 -180 139 -215 71 -23 110 -14 155 35 88 98 65 215 -55 275 -54 28 -99 31 -144 11z m127 -77 c46 -23 68 -54 68 -96 0 -75 -82 -113 -162 -74 -75 36 -104 124 -55 168 38 36 79 37 149 2z"/>
<path d="M9632 2320 c-121 -52 -671 -344 -734 -388 -44 -32 -63 -62 -54 -88 13 -38 301 -398 334 -417 33 -19 34 -19 58 -1 42 33 379 576 470 758 46 93 84 173 84 178 0 18 -51 5 -158 -42z m44 -65 c20 -51 -280 -532 -427 -688 -48 -50 -59 -58 -76 -49 -22 12 -243 318 -243 337 0 15 39 40 255 165 88 51 203 120 255 153 138 88 223 117 236 82z"/>
<path d="M2791 2178 c-27 -24 -100 -85 -160 -136 -73 -62 -111 -101 -111 -114 0 -11 30 -52 68 -92 38 -39 94 -103 124 -142 71 -90 122 -144 136 -144 6 0 17 10 24 23 26 46 20 558 -8 630 -9 25 -18 22 -73 -25z m20 -105 c16 -39 23 -344 9 -363 -9 -12 -23 -2 -83 61 -40 41 -81 92 -91 112 -18 32 -19 39 -5 64 18 34 133 153 148 153 6 0 16 -12 22 -27z"/>
<path d="M3880 1419 c-18 -11 -87 -73 -154 -137 -146 -141 -206 -193 -308 -261 -103 -68 -110 -82 -63 -127 29 -27 45 -34 76 -34 46 0 638 144 794 194 61 19 142 40 180 46 88 14 117 32 113 68 -3 25 -14 31 -128 76 -69 26 -192 77 -275 113 -201 86 -197 85 -235 62z m265 -136 c130 -60 150 -73 153 -94 4 -38 -22 -54 -149 -93 -160 -48 -534 -143 -597 -152 -45 -6 -53 -4 -59 12 -5 14 25 49 143 163 82 79 179 170 216 202 l68 58 37 -13 c21 -8 106 -45 188 -83z"/>
<path d="M6458 920 c-38 -23 -13 -70 65 -122 28 -20 100 -65 159 -102 93 -56 335 -217 478 -316 34 -24 52 -30 74 -26 15 3 108 55 205 114 97 60 228 137 291 172 154 85 208 119 253 159 42 38 46 60 16 87 -20 18 -52 19 -698 26 -372 4 -710 10 -751 13 -46 3 -82 1 -92 -5z m1365 -95 c9 -4 17 -11 17 -16 0 -11 -276 -194 -434 -288 -189 -112 -138 -122 -460 95 -152 103 -275 192 -273 198 7 20 1099 30 1150 11z"/>
<path d="M11112 9935 c-26 -11 -33 -20 -30 -37 4 -32 30 -42 267 -98 269 -63 407 -104 640 -189 288 -107 420 -141 537 -141 56 0 68 4 89 25 49 48 19 109 -71 147 -50 21 -424 120 -579 153 -66 14 -196 45 -290 70 -319 82 -486 103 -563 70z"/>
<path d="M10923 9543 c-26 -10 -12 -46 40 -101 81 -87 112 -129 272 -367 191 -284 565 -753 627 -786 14 -8 28 -7 50 2 26 11 29 16 24 43 -9 44 -87 169 -156 251 -33 39 -101 124 -151 190 -51 66 -116 147 -144 180 -29 33 -101 119 -160 190 -216 259 -360 410 -387 404 -1 0 -9 -3 -15 -6z"/>
<path d="M8848 9463 c-20 -2 -41 -10 -48 -17 -9 -11 19 -15 152 -21 90 -3 213 -11 273 -16 280 -24 297 -24 293 -3 -4 24 -67 40 -208 54 -99 9 -382 11 -462 3z"/>
<path d="M545 9436 c-32 -14 -55 -51 -55 -90 0 -46 36 -74 133 -105 127 -41 209 -49 532 -56 154 -3 412 -10 573 -16 301 -11 362 -9 362 16 0 18 -16 21 -155 35 -60 6 -128 15 -150 20 -22 5 -128 25 -235 45 -107 20 -283 59 -390 87 -107 28 -229 57 -270 64 -100 17 -306 17 -345 0z"/>
<path d="M11873 9183 c-26 -9 9 -45 107 -108 53 -35 180 -126 281 -201 219 -164 246 -181 262 -165 13 13 -24 56 -98 109 -27 19 -93 68 -145 107 -185 139 -385 266 -407 258z"/>
<path d="M10540 9144 c0 -20 13 -66 29 -102 156 -359 313 -758 391 -997 62 -188 90 -239 152 -271 45 -23 67 -18 84 21 27 66 4 127 -247 653 -331 694 -351 732 -390 732 -15 0 -19 -7 -19 -36z"/>
<path d="M2534 8762 c-16 -16 -74 -79 -129 -142 -109 -123 -265 -271 -445 -421 -245 -205 -390 -390 -390 -497 0 -33 6 -45 32 -67 27 -23 39 -26 75 -22 24 2 58 15 76 27 70 49 205 224 504 650 110 157 230 327 266 379 37 51 67 100 67 107 0 23 -26 16 -56 -14z"/>
<path d="M10185 8498 c4 -12 52 -120 108 -238 55 -118 126 -278 158 -355 50 -124 59 -140 80 -140 15 0 25 7 27 18 2 9 -52 133 -120 275 -192 401 -221 457 -241 460 -16 3 -18 0 -12 -20z"/>
<path d="M1590 8460 c-19 -4 -127 -51 -240 -105 -229 -109 -438 -182 -610 -215 -173 -34 -188 -38 -195 -60 -15 -46 21 -51 129 -19 141 42 565 192 761 270 202 80 265 110 265 129 0 11 -58 11 -110 0z"/>
<path d="M2836 8078 c-2 -7 -9 -44 -15 -83 -7 -38 -39 -162 -72 -274 -64 -215 -103 -383 -115 -491 -13 -127 23 -39 75 180 16 69 46 178 65 242 91 300 108 376 90 422 -7 19 -23 21 -28 4z"/>
</g>
</svg>