<?xml version="1.0" standalone="no"?>
<!DOCTYPE svg PUBLIC "-//W3C//DTD SVG 20010904//EN"
 "http://www.w3.org/TR/2001/REC-SVG-20010904/DTD/svg10.dtd">
<svg version="1.0" xmlns="http://www.w3.org/2000/svg"
 width="1280.000000pt" height="746.000000pt" viewBox="0 0 1280.000000 746.000000"
 preserveAspectRatio="xMidYMid meet">
<metadata>
Created by potrace 1.15, written by Peter Selinger 2001-2017
</metadata>
<g transform="translate(0.000000,746.000000) scale(0.100000,-0.100000)"
fill="#000000" stroke="none">
<path d="M2006 6951 c-33 -37 -10 -72 114 -176 l76 -62 50 28 c70 40 107 81
107 120 0 63 -86 102 -140 64 -18 -13 -23 -13 -30 -2 -29 48 -143 66 -177 28z"/>
<path d="M7653 6798 c-55 -27 -29 -87 70 -166 34 -28 70 -59 80 -70 18 -20 19
-20 80 17 95 58 126 119 85 168 -20 25 -79 34 -112 18 -27 -14 -31 -14 -51 5
-38 36 -109 49 -152 28z"/>
<path d="M4880 6772 c-24 -25 -30 -27 -46 -15 -29 21 -117 17 -148 -8 -60 -47
-22 -93 129 -153 50 -20 92 -38 95 -39 11 -5 91 92 106 128 12 30 13 43 4 65
-23 55 -96 66 -140 22z"/>
<path d="M3112 6778 c-7 -7 -12 -20 -12 -29 0 -12 -6 -16 -18 -12 -46 12 -57
-72 -12 -94 14 -7 46 -13 71 -13 52 0 59 9 59 83 0 58 -54 99 -88 65z"/>
<path d="M10543 6770 c-12 -5 -26 -16 -31 -25 -8 -15 -13 -15 -32 -5 -36 19
-136 8 -162 -17 -46 -46 0 -93 146 -147 38 -15 76 -31 83 -38 7 -6 15 -9 16
-7 1 2 21 27 43 54 22 28 46 60 52 72 41 76 -32 147 -115 113z"/>
<path d="M932 6697 c-12 -13 -22 -33 -22 -45 0 -18 -6 -22 -29 -22 -33 0 -71
-39 -71 -72 0 -11 13 -33 29 -49 28 -28 33 -29 118 -29 l89 0 12 85 c11 73 10
89 -2 114 -25 48 -88 57 -124 18z"/>
<path d="M1652 6695 c-58 -18 -108 -58 -132 -105 -47 -92 -10 -194 120 -335
98 -105 153 -188 176 -260 l17 -53 42 33 c23 17 91 51 151 75 241 94 323 178
331 340 4 67 2 81 -24 130 -22 43 -38 60 -73 78 -78 39 -171 24 -236 -39 l-31
-30 -11 40 c-32 106 -195 168 -330 126z"/>
<path d="M3835 6676 c-14 -14 -27 -20 -30 -15 -10 15 -62 10 -79 -7 -21 -21
-20 -57 2 -77 9 -8 39 -25 66 -37 l49 -21 35 33 c33 33 62 77 62 98 0 17 -39
50 -60 50 -12 0 -32 -11 -45 -24z"/>
<path d="M5405 6577 c-30 -30 -35 -41 -35 -83 0 -61 23 -109 94 -203 31 -41
56 -78 56 -81 0 -17 176 68 212 101 34 32 38 41 38 85 0 58 -25 105 -72 134
-45 27 -74 25 -103 -6 -24 -26 -25 -26 -25 -6 0 34 -50 82 -92 89 -33 5 -41 2
-73 -30z"/>
<path d="M7335 6598 c-86 -31 -125 -91 -125 -193 0 -54 8 -87 41 -173 69 -181
80 -220 81 -309 0 -46 2 -83 5 -83 2 0 14 5 26 12 12 6 93 15 182 19 168 8
235 19 298 51 112 56 187 205 158 314 -28 104 -174 166 -274 115 l-37 -19 0
46 c0 94 -66 173 -178 214 -53 19 -132 22 -177 6z"/>
<path d="M10008 6599 c-11 -6 -18 -22 -18 -39 0 -22 -5 -29 -22 -32 -33 -5
-47 -51 -23 -78 21 -23 55 -25 118 -8 l43 11 -4 61 c-6 85 -41 117 -94 85z"/>
<path d="M6200 6583 c-16 -11 -20 -22 -16 -38 5 -18 1 -25 -14 -30 -29 -9 -31
-61 -2 -82 22 -17 54 -16 102 3 39 16 41 19 34 48 -18 86 -62 128 -104 99z"/>
<path d="M1273 6578 c-13 -6 -23 -19 -23 -30 0 -12 -7 -18 -24 -18 -53 0 -76
-67 -33 -94 12 -8 48 -16 79 -18 l56 -5 17 59 c13 46 14 62 4 80 -21 39 -37
45 -76 26z"/>
<path d="M6585 6548 c-29 -15 -45 -39 -45 -65 0 -19 -5 -23 -29 -23 -54 0 -87
-60 -57 -104 21 -33 68 -46 152 -43 l71 2 11 81 c14 91 7 122 -30 148 -26 19
-45 20 -73 4z"/>
<path d="M2654 6496 c-28 -28 -34 -42 -34 -76 0 -58 26 -95 114 -169 l74 -61
84 50 c111 68 148 107 148 160 0 101 -113 158 -181 91 -16 -16 -29 -26 -29
-22 0 5 -11 20 -25 35 -19 21 -33 26 -71 26 -39 0 -51 -5 -80 -34z"/>
<path d="M9513 6510 c-12 -5 -28 -18 -34 -29 -12 -18 -14 -18 -36 -4 -31 21
-125 13 -153 -12 -49 -45 -13 -90 111 -139 47 -18 94 -38 106 -44 19 -10 26
-6 67 43 76 88 85 150 26 180 -32 17 -54 18 -87 5z"/>
<path d="M11089 6505 c-74 -32 -82 -85 -36 -227 l22 -68 85 -1 c176 -3 224 8
256 56 28 43 22 84 -16 118 -29 26 -38 29 -81 25 l-48 -5 -3 35 c-2 23 -11 41
-28 53 -35 26 -107 33 -151 14z"/>
<path d="M4575 6473 c-67 -17 -124 -100 -132 -193 -10 -111 32 -184 183 -318
45 -39 92 -87 104 -107 l22 -36 29 39 c39 53 101 100 207 156 109 58 157 96
182 147 23 45 26 109 6 147 -67 128 -285 168 -364 67 -22 -27 -32 -32 -32 -13
0 21 -49 75 -82 91 -39 18 -95 27 -123 20z"/>
<path d="M11820 6410 c-6 -12 -8 -29 -5 -39 4 -13 0 -20 -15 -24 -30 -8 -27
-62 5 -83 23 -15 29 -15 80 1 59 19 60 21 44 79 -20 72 -85 111 -109 66z"/>
<path d="M6893 6388 c-12 -16 -27 -22 -44 -20 -51 6 -79 -57 -41 -90 9 -9 41
-22 69 -31 l53 -15 25 45 c31 55 33 108 6 123 -30 15 -48 12 -68 -12z"/>
<path d="M8309 6343 c-41 -35 -59 -79 -59 -148 0 -71 23 -120 101 -215 34 -41
65 -83 70 -93 9 -16 20 -9 92 55 135 121 157 155 157 244 0 139 -120 215 -186
117 l-22 -33 -12 31 c-16 37 -55 69 -86 69 -12 0 -37 -12 -55 -27z"/>
<path d="M3407 6343 c-4 -3 -7 -17 -7 -30 0 -15 -6 -23 -18 -23 -41 0 -57 -54
-24 -83 13 -12 37 -17 78 -17 l59 0 3 50 c4 66 -18 110 -57 110 -15 0 -31 -3
-34 -7z"/>
<path d="M10125 6276 c-138 -43 -207 -165 -158 -277 29 -65 62 -100 188 -194
115 -85 183 -158 214 -226 l17 -37 31 37 c17 20 89 76 161 124 187 125 245
205 245 337 0 137 -80 240 -185 240 -79 0 -176 -57 -194 -113 -6 -19 -8 -18
-25 16 -47 90 -174 131 -294 93z"/>
<path d="M5975 6245 c-14 -13 -25 -35 -25 -49 0 -23 -3 -24 -34 -19 -42 7 -71
-9 -92 -48 -20 -40 -11 -82 26 -113 30 -25 53 -30 171 -41 l66 -6 21 79 c26
94 27 133 7 172 -29 56 -98 68 -140 25z"/>
<path d="M3735 6179 c-22 -18 -26 -28 -23 -60 3 -32 0 -39 -14 -39 -20 0 -58
-46 -58 -71 0 -10 10 -30 23 -45 29 -33 80 -35 150 -5 27 12 55 21 63 21 8 0
14 3 14 6 0 27 -24 153 -33 169 -25 49 -77 59 -122 24z"/>
<path d="M1372 6173 c-4 -11 -18 -18 -36 -18 -37 0 -54 -25 -40 -62 7 -21 23
-33 64 -50 l55 -22 22 47 c27 56 28 70 7 100 -18 27 -62 29 -72 5z"/>
<path d="M9042 6178 c-7 -7 -12 -20 -12 -30 0 -11 -7 -18 -18 -18 -43 0 -57
-55 -22 -90 16 -16 33 -20 81 -20 l61 0 -4 64 c-5 87 -47 133 -86 94z"/>
<path d="M4086 6149 c-15 -12 -26 -29 -24 -38 2 -9 -8 -23 -24 -33 -33 -21
-37 -57 -10 -81 22 -20 34 -21 101 -5 l51 11 0 59 c0 49 -4 63 -25 83 -29 30
-35 31 -69 4z"/>
<path d="M2434 6135 c-14 -9 -23 -10 -32 -3 -9 8 -20 8 -37 0 -38 -17 -33 -54
12 -91 21 -17 41 -31 45 -31 19 0 67 67 68 92 0 35 -29 53 -56 33z"/>
<path d="M11657 6095 c-17 -10 -30 -27 -34 -46 -6 -31 -13 -35 -31 -17 -18 18
-72 11 -98 -13 -18 -17 -24 -33 -24 -65 0 -61 34 -90 146 -129 l91 -31 41 86
c22 47 43 96 46 109 6 27 -13 80 -36 98 -25 21 -71 24 -101 8z"/>
<path d="M3152 6089 c-13 -5 -31 -18 -41 -30 l-16 -21 -19 21 c-40 44 -127 13
-141 -48 -4 -17 0 -43 8 -64 14 -33 27 -46 128 -121 l47 -34 65 67 c75 76 87
97 87 145 0 62 -63 107 -118 85z"/>
<path d="M5320 6080 c-11 -11 -26 -17 -33 -14 -16 6 -47 -21 -47 -40 0 -23 25
-45 68 -61 l43 -15 19 43 c24 53 25 70 2 90 -24 22 -28 21 -52 -3z"/>
<path d="M7146 6067 l-23 -23 -26 20 c-53 39 -115 -13 -100 -85 4 -24 28 -55
81 -107 40 -41 75 -72 76 -70 89 144 102 182 85 236 -17 53 -56 66 -93 29z"/>
<path d="M9709 5979 c-12 -12 -19 -29 -16 -39 3 -13 -2 -20 -19 -24 -27 -7
-43 -50 -27 -75 13 -20 70 -25 122 -11 l41 11 0 59 c0 47 -4 64 -20 80 -26 26
-55 25 -81 -1z"/>
<path d="M6540 5970 c-11 -11 -20 -25 -20 -31 0 -6 -7 -9 -15 -5 -22 8 -62
-10 -75 -35 -27 -49 28 -89 123 -89 35 0 39 3 58 44 30 68 33 100 14 119 -22
23 -61 21 -85 -3z"/>
<path d="M8056 5965 c-9 -9 -17 -11 -21 -5 -9 15 -41 12 -55 -5 -20 -24 -4
-60 39 -88 l40 -26 30 35 c45 50 40 104 -9 104 -5 0 -15 -7 -24 -15z"/>
<path d="M2213 5920 c-47 -11 -78 -34 -97 -73 -38 -82 -8 -166 124 -342 45
-60 84 -112 86 -114 2 -2 9 1 16 7 7 5 57 24 110 40 205 64 278 122 278 222 0
51 -20 92 -63 124 -62 47 -149 50 -207 8 l-28 -21 -5 29 c-16 78 -126 140
-214 120z"/>
<path d="M8750 5900 c-22 -24 -29 -27 -34 -15 -9 26 -54 37 -93 24 -46 -15
-69 -65 -53 -113 12 -36 62 -88 131 -134 l46 -31 57 53 c75 69 96 102 96 151
-1 88 -92 127 -150 65z"/>
<path d="M10949 5912 c-7 -12 -20 -17 -33 -15 -26 5 -49 -18 -44 -43 4 -22 45
-51 84 -59 30 -6 33 -4 49 40 14 36 16 51 7 70 -14 30 -47 33 -63 7z"/>
<path d="M4422 5908 c-7 -7 -12 -21 -12 -31 0 -14 -4 -17 -17 -12 -62 27 -106
3 -106 -56 0 -48 33 -81 131 -130 89 -44 92 -45 92 -23 0 12 7 50 16 84 18 71
13 116 -17 154 -22 28 -66 35 -87 14z"/>
<path d="M5643 5891 c-44 -20 -83 -70 -83 -105 0 -18 -3 -17 -27 6 -57 54
-122 62 -199 23 -36 -18 -57 -37 -73 -66 -59 -105 23 -210 223 -285 39 -14 94
-37 122 -49 l51 -23 37 47 c19 25 59 73 87 106 126 150 139 262 36 339 -38 28
-121 32 -174 7z"/>
<path d="M1655 5874 c-9 -10 -14 -25 -12 -35 4 -16 -1 -19 -28 -19 -68 0 -99
-87 -49 -137 25 -25 28 -26 117 -19 50 3 91 7 93 9 1 1 5 35 9 74 l7 73 -35
35 c-39 39 -75 45 -102 19z"/>
<path d="M1091 5854 c-17 -12 -26 -13 -34 -5 -18 18 -82 13 -101 -8 -27 -30
-2 -66 79 -115 l69 -41 37 40 c50 55 61 79 50 108 -15 39 -60 49 -100 21z"/>
<path d="M9262 5827 c-31 -33 -27 -67 13 -123 19 -27 42 -60 51 -74 l17 -26
73 39 c41 21 80 48 89 60 21 29 19 80 -3 100 -20 18 -68 22 -91 8 -10 -7 -20
-2 -33 15 -26 33 -86 33 -116 1z"/>
<path d="M11887 5832 c-10 -10 -17 -24 -17 -31 0 -7 -5 -9 -11 -6 -18 12 -58
-4 -75 -30 -33 -50 6 -82 104 -87 l54 -3 26 62 c21 52 23 67 14 88 -9 19 -19
25 -45 25 -20 0 -41 -7 -50 -18z"/>
<path d="M3286 5761 c-15 -16 -22 -18 -37 -8 -27 17 -71 -2 -83 -36 -8 -22 -6
-31 14 -52 13 -14 27 -25 32 -25 5 0 27 -9 49 -19 l41 -20 31 36 c56 63 71
105 45 131 -19 19 -73 14 -92 -7z"/>
<path d="M10057 5742 c-10 -10 -17 -26 -17 -35 0 -19 -15 -23 -25 -7 -10 16
-62 12 -79 -6 -25 -24 -20 -78 11 -114 15 -18 61 -48 102 -68 42 -20 79 -38
84 -40 4 -2 7 5 7 15 0 10 7 47 16 83 20 78 13 132 -21 166 -29 29 -56 31 -78
6z"/>
<path d="M11274 5726 c-35 -15 -72 -58 -80 -92 l-6 -23 -35 26 c-49 38 -126
43 -187 13 -85 -41 -115 -115 -77 -194 33 -68 106 -115 272 -176 45 -16 93
-37 105 -45 21 -14 24 -13 34 4 5 11 44 59 85 108 41 48 86 109 100 135 73
135 14 259 -124 258 -31 -1 -70 -7 -87 -14z"/>
<path d="M7383 5719 c-30 -11 -56 -65 -49 -101 3 -16 27 -54 52 -84 41 -48 49
-53 63 -41 9 8 40 27 69 43 83 44 103 105 50 154 -26 24 -80 27 -101 5 -13
-12 -16 -12 -20 0 -9 22 -40 34 -64 24z"/>
<path d="M8307 5709 c-50 -12 -85 -36 -103 -71 l-15 -29 -26 32 c-110 130
-337 24 -294 -137 16 -58 71 -117 175 -186 50 -33 103 -72 119 -86 l27 -26 33
31 c17 16 68 57 113 90 130 98 177 163 178 245 0 96 -98 162 -207 137z"/>
<path d="M4843 5646 c-17 -21 -21 -22 -38 -10 -26 19 -32 18 -60 -11 -33 -32
-33 -84 -2 -120 12 -14 44 -38 71 -53 l48 -28 48 50 c55 59 70 85 70 121 0 65
-98 101 -137 51z"/>
<path d="M3846 5614 c-9 -8 -16 -22 -16 -29 0 -8 -12 -15 -27 -17 -23 -2 -29
-9 -31 -34 -4 -41 21 -61 89 -69 l56 -7 7 32 c11 60 7 90 -19 115 -28 29 -38
31 -59 9z"/>
<path d="M8933 5608 c-13 -6 -23 -14 -23 -18 0 -4 -20 -5 -44 -3 -39 5 -46 3
-61 -21 -24 -37 -9 -67 47 -93 82 -39 82 -39 127 18 46 58 51 91 19 113 -26
18 -34 19 -65 4z"/>
<path d="M6222 5594 c-31 -21 -45 -60 -32 -85 9 -15 7 -19 -5 -19 -24 0 -65
-46 -65 -73 0 -44 33 -72 82 -72 58 1 169 45 163 65 -2 8 -7 40 -10 70 -14
112 -70 159 -133 114z"/>
<path d="M10498 5498 c-15 -5 -30 -18 -33 -29 -6 -19 -8 -20 -26 -4 -24 23
-62 13 -77 -20 -28 -61 -6 -106 71 -151 l60 -35 36 37 c85 88 103 141 59 181
-29 26 -56 32 -90 21z"/>
<path d="M6832 5483 c-12 -10 -30 -42 -41 -71 l-20 -54 35 -14 c62 -26 93 -28
114 -9 26 23 26 61 0 77 -13 8 -18 19 -14 34 6 23 -18 54 -41 54 -7 0 -22 -8
-33 -17z"/>
<path d="M9788 5479 c-10 -5 -18 -19 -18 -29 0 -15 -7 -20 -25 -20 -38 0 -52
-36 -28 -69 17 -21 31 -27 79 -32 32 -3 60 -4 62 -3 2 1 4 30 5 64 2 54 -1 64
-22 81 -27 22 -30 22 -53 8z"/>
<path d="M2240 4810 c-646 -5 -1190 -10 -1210 -12 -240 -22 8192 -33 9905 -13
859 10 865 10 475 16 -673 11 -7928 18 -9170 9z"/>
<path d="M3605 2550 c-2440 -11 -2474 -11 -2426 -21 86 -17 5126 -29 7812 -18
1422 5 2606 13 2630 17 106 19 -5403 34 -8016 22z"/>
<path d="M5035 2038 c-11 -6 -30 -20 -42 -31 -13 -11 -23 -16 -23 -10 0 16
-54 33 -82 26 -56 -14 -85 -73 -58 -123 5 -10 40 -39 76 -65 l67 -46 31 28
c17 16 57 48 88 72 88 66 110 114 66 145 -26 18 -94 21 -123 4z"/>
<path d="M10647 2016 c-34 -24 -38 -24 -67 -10 -24 13 -37 13 -62 5 -102 -36
-88 -116 36 -195 l50 -32 66 50 c108 85 140 120 140 154 0 38 -22 52 -83 52
-30 0 -55 -8 -80 -24z"/>
<path d="M2189 1959 c-37 -14 -54 -58 -40 -101 8 -26 53 -89 95 -135 5 -5 214
79 236 96 14 10 26 29 28 43 6 54 -94 93 -163 64 -19 -8 -35 -11 -35 -6 0 28
-81 54 -121 39z"/>
<path d="M7830 1953 c-33 -13 -50 -37 -50 -70 0 -40 10 -62 59 -123 19 -25 36
-46 36 -47 0 -1 47 16 104 37 148 56 170 73 157 123 -10 43 -105 69 -156 43
-30 -15 -32 -14 -53 9 -22 25 -70 39 -97 28z"/>
<path d="M9616 1868 c-10 -14 -16 -44 -16 -80 l0 -58 50 0 c69 0 110 22 110
59 0 32 -22 56 -45 47 -10 -3 -15 1 -15 12 0 44 -58 57 -84 20z"/>
<path d="M1593 1863 c-12 -2 -33 -15 -48 -29 -22 -20 -26 -31 -22 -54 6 -28 6
-29 -24 -18 -22 8 -42 7 -70 -1 -105 -31 -87 -158 27 -190 21 -6 89 -11 149
-11 l111 0 27 83 c15 45 27 98 27 117 0 79 -75 123 -177 103z"/>
<path d="M5324 1840 c-130 -26 -223 -119 -224 -223 l0 -38 -32 18 c-53 28
-143 24 -200 -9 -147 -87 -101 -331 80 -422 63 -31 128 -44 264 -52 95 -5 177
-19 223 -40 6 -2 10 24 11 69 1 84 20 157 75 277 74 165 83 251 36 334 -37 66
-139 104 -233 86z"/>
<path d="M3186 1799 c-20 -15 -26 -29 -26 -57 0 -38 11 -59 69 -130 32 -39 35
-40 60 -28 14 7 51 21 81 31 122 39 173 82 150 125 -24 45 -115 63 -170 35
-27 -14 -30 -14 -30 -1 0 19 -50 46 -83 46 -13 0 -36 -9 -51 -21z"/>
<path d="M8877 1802 c-28 -31 -20 -54 45 -131 l28 -32 67 33 c56 27 69 38 71
59 4 38 -23 61 -68 58 -25 -2 -43 3 -54 14 -23 22 -69 22 -89 -1z"/>
<path d="M897 1782 c-16 -18 -30 -49 -40 -93 -6 -23 -2 -28 31 -43 55 -25 103
-18 122 17 14 27 14 29 -10 49 -14 11 -24 25 -22 31 2 6 1 21 -3 34 -7 29 -54
32 -78 5z"/>
<path d="M6538 1780 c-14 -9 -64 -118 -56 -125 12 -11 86 -35 108 -35 52 0 82
68 39 91 -13 6 -19 17 -16 28 11 42 -33 65 -75 41z"/>
<path d="M7268 1760 c-14 -10 -31 -32 -37 -48 l-12 -30 -24 24 c-30 30 -63 30
-105 2 -68 -47 -89 -136 -47 -199 16 -25 49 -47 122 -83 55 -26 101 -44 103
-38 1 5 31 46 66 90 92 116 113 180 81 242 -31 60 -99 78 -147 40z"/>
<path d="M6142 1760 c-36 -15 -45 -49 -37 -143 l7 -84 60 -7 c34 -3 73 -6 89
-6 39 0 89 45 89 79 0 34 -37 71 -72 71 -21 0 -25 4 -21 20 3 13 -5 29 -25 50
-31 31 -51 35 -90 20z"/>
<path d="M10948 1755 c-59 -19 -126 -81 -134 -123 -8 -38 -11 -39 -35 -8 -30
38 -98 66 -160 66 -72 0 -126 -31 -159 -90 -21 -38 -25 -58 -25 -130 0 -173
73 -246 375 -377 25 -11 66 -36 93 -56 39 -31 47 -34 47 -18 0 10 16 50 36 90
26 52 65 102 146 188 125 131 158 188 158 271 0 29 -7 66 -15 81 -18 36 -67
77 -114 97 -53 23 -157 27 -213 9z"/>
<path d="M11773 1748 c-35 -17 -46 -57 -37 -135 5 -37 8 -73 8 -79 -1 -8 29
-14 81 -19 114 -9 155 12 155 81 0 31 -33 64 -65 64 -18 0 -25 5 -25 19 0 33
-11 51 -41 66 -32 17 -46 18 -76 3z"/>
<path d="M4365 1604 c-13 -14 -27 -35 -30 -45 -6 -17 -9 -16 -29 13 -31 47
-68 57 -113 33 -49 -27 -78 -84 -78 -155 0 -76 33 -127 143 -229 89 -81 90
-81 105 -59 8 13 41 52 72 88 101 115 129 212 86 306 -35 76 -109 99 -156 48z"/>
<path d="M5826 1614 c-22 -21 -20 -55 6 -111 13 -27 23 -49 23 -50 3 -8 111
29 126 43 38 35 8 100 -43 92 -15 -2 -30 5 -41 19 -22 27 -49 29 -71 7z"/>
<path d="M11456 1614 c-19 -18 -20 -49 -5 -110 l11 -44 52 0 c66 0 100 17 104
53 4 35 -13 57 -44 57 -13 0 -24 6 -24 13 0 20 -33 47 -58 47 -11 0 -28 -7
-36 -16z"/>
<path d="M2111 1609 c-46 -10 -81 -38 -115 -93 -24 -38 -30 -61 -34 -125 -4
-70 -1 -86 22 -137 35 -76 96 -138 226 -229 103 -71 138 -102 157 -139 9 -16
13 -12 38 30 44 75 99 128 220 214 171 120 212 178 203 286 -9 104 -110 183
-244 192 -112 7 -177 -23 -217 -102 l-15 -28 -15 28 c-40 77 -140 122 -226
103z"/>
<path d="M8088 1600 c-36 -19 -78 -67 -78 -89 0 -19 -16 -12 -29 13 -21 38
-81 66 -143 66 -154 0 -270 -112 -238 -231 16 -58 71 -113 174 -174 129 -76
170 -108 213 -164 l37 -50 17 28 c9 15 48 54 85 87 180 155 218 212 219 324 0
79 -33 153 -85 188 -42 28 -120 29 -172 2z"/>
<path d="M9833 1608 c-44 -11 -83 -61 -83 -105 0 -56 28 -91 133 -159 l98 -65
51 43 c85 70 127 116 136 151 20 74 -35 147 -112 147 -37 0 -48 -5 -70 -31
l-26 -31 -18 21 c-22 27 -69 40 -109 29z"/>
<path d="M1050 1469 c-38 -15 -60 -49 -60 -94 0 -48 73 -212 93 -207 176 49
199 62 224 120 12 30 12 38 -4 70 -21 43 -68 62 -107 44 -22 -10 -25 -8 -35
19 -7 20 -22 35 -45 44 -20 8 -37 15 -38 14 -2 0 -14 -5 -28 -10z"/>
<path d="M3687 1459 c-24 -18 -27 -27 -27 -85 l0 -64 58 0 c73 0 95 14 90 60
-2 28 -8 36 -28 40 -16 3 -25 12 -25 24 0 10 -9 25 -21 32 -18 13 -24 12 -47
-7z"/>
<path d="M9315 1445 c-21 -20 -25 -34 -25 -85 l0 -60 60 0 c47 0 64 4 80 20
11 11 20 25 20 31 0 23 -22 49 -40 49 -13 0 -20 7 -20 19 0 21 -25 51 -41 51
-6 0 -21 -11 -34 -25z"/>
<path d="M6686 1429 c-36 -42 -37 -77 -10 -194 l17 -70 76 3 c102 3 145 16
175 53 33 38 33 80 2 116 -19 22 -32 28 -65 28 -36 0 -41 2 -41 23 0 37 -43
72 -89 72 -32 0 -44 -6 -65 -31z"/>
<path d="M8942 1297 c-13 -14 -27 -48 -33 -83 -6 -32 -15 -68 -19 -79 -6 -17
2 -23 62 -47 90 -36 140 -37 167 -2 12 15 21 34 21 44 0 26 -39 70 -61 70 -17
0 -18 3 -9 21 14 25 -3 75 -31 89 -31 17 -74 11 -97 -13z"/>
<path d="M2996 1294 c-18 -17 -24 -39 -28 -101 l-3 -41 58 -18 c53 -16 62 -16
86 -3 39 22 40 64 3 86 -16 10 -27 24 -24 31 6 18 -37 62 -59 62 -10 0 -25 -7
-33 -16z"/>
<path d="M5557 1292 c-31 -34 -22 -105 24 -191 l42 -76 32 30 c17 16 50 47 73
69 25 23 47 55 54 78 10 34 9 42 -9 66 -26 35 -72 41 -98 12 l-18 -20 -11 22
c-15 30 -66 36 -89 10z"/>
<path d="M8625 1280 c-12 -14 -20 -41 -23 -80 l-4 -59 58 -17 c51 -15 62 -15
84 -3 14 8 26 25 28 38 4 24 -23 61 -44 61 -7 0 -10 8 -7 19 6 23 -29 61 -55
61 -11 0 -27 -9 -37 -20z"/>
<path d="M1776 1264 c-20 -20 -20 -50 2 -95 l17 -37 48 15 c54 16 80 51 57 78
-7 8 -21 15 -31 15 -11 0 -28 9 -39 20 -24 24 -34 25 -54 4z"/>
<path d="M7405 1250 c-18 -20 -18 -22 -1 -75 l19 -53 44 13 c53 16 73 31 73
56 0 24 -29 51 -48 44 -8 -3 -21 3 -29 15 -18 25 -35 25 -58 0z"/>
<path d="M4672 1228 c-21 -21 -14 -66 17 -100 l28 -32 34 20 c19 11 41 32 49
47 14 25 13 28 -6 48 -17 16 -26 19 -40 11 -14 -7 -25 -6 -39 4 -23 17 -28 17
-43 2z"/>
<path d="M11339 1224 c-17 -20 -15 -69 5 -116 l16 -37 47 16 c61 20 83 39 83
73 0 33 -23 54 -50 47 -13 -3 -24 1 -30 14 -13 23 -53 25 -71 3z"/>
<path d="M806 1214 c-22 -21 -20 -51 7 -115 l22 -54 67 6 c37 3 74 11 82 18
36 30 3 101 -47 101 -14 0 -32 12 -45 30 -25 34 -61 39 -86 14z"/>
<path d="M10302 1218 c-20 -20 -14 -54 15 -90 15 -18 28 -34 29 -36 4 -6 48
20 72 41 12 11 22 31 22 43 0 28 -33 49 -57 36 -11 -7 -21 -5 -31 4 -17 17
-34 18 -50 2z"/>
<path d="M3923 1200 c-12 -5 -29 -23 -38 -41 -27 -52 -13 -89 67 -178 l71 -78
43 31 c23 17 58 42 77 56 20 14 43 37 51 52 19 31 20 86 3 109 -32 41 -95 51
-127 19 -19 -19 -19 -19 -49 10 -30 30 -58 36 -98 20z"/>
<path d="M6156 1184 c-21 -21 -20 -41 5 -108 l22 -56 54 0 c72 0 113 21 113
59 0 34 -28 61 -63 61 -15 0 -27 5 -27 10 0 19 -40 50 -64 50 -14 0 -32 -7
-40 -16z"/>
<path d="M9555 1188 c-11 -6 -25 -19 -32 -27 -16 -20 -16 -86 -2 -114 18 -35
138 -156 145 -146 3 5 34 28 70 50 79 50 104 84 104 138 0 31 -6 48 -25 66
-30 31 -84 34 -110 5 -17 -19 -18 -19 -45 10 -30 32 -69 39 -105 18z"/>
<path d="M3403 1124 c-18 -18 -29 -22 -36 -15 -19 19 -72 13 -95 -12 -45 -48
-15 -105 83 -159 l67 -38 19 24 c10 13 34 42 54 66 45 54 49 108 9 139 -36 28
-70 26 -101 -5z"/>
<path d="M1332 1083 c-69 -34 -97 -114 -69 -197 17 -51 58 -113 130 -200 27
-33 54 -70 60 -83 7 -16 16 -22 26 -17 9 4 68 26 131 49 123 44 168 66 213 99
76 56 92 157 37 220 -63 71 -175 85 -245 32 -30 -24 -35 -25 -35 -9 0 32 -38
82 -79 103 -49 24 -123 26 -169 3z"/>
<path d="M6965 1074 c-68 -34 -95 -106 -71 -187 16 -54 37 -86 146 -230 62
-83 65 -85 90 -72 14 7 63 25 110 40 100 33 185 74 228 110 38 32 67 103 58
146 -23 117 -202 173 -285 90 -20 -20 -20 -20 -31 13 -12 38 -53 80 -93 95
-41 16 -117 13 -152 -5z"/>
<path d="M2653 1068 c-22 -10 -53 -73 -53 -106 0 -9 8 -51 17 -93 l17 -75 72
31 c98 43 123 61 140 100 26 63 -24 123 -80 97 -22 -10 -25 -8 -35 19 -5 16
-14 29 -20 29 -5 0 -15 2 -23 4 -7 3 -23 0 -35 -6z"/>
<path d="M8269 1041 c-25 -25 -29 -37 -29 -82 0 -43 18 -165 26 -177 1 -2 13
3 26 12 12 8 49 24 80 36 87 32 131 94 108 151 -14 34 -50 47 -86 30 -19 -9
-24 -8 -24 4 0 20 -36 55 -56 55 -8 0 -29 -13 -45 -29z"/>
<path d="M10432 979 c-46 -23 -77 -59 -88 -103 l-6 -27 -22 20 c-49 46 -120
53 -187 18 -61 -33 -89 -77 -89 -142 0 -98 68 -156 265 -225 50 -17 99 -37
111 -45 19 -12 22 -11 37 15 9 15 48 65 87 111 38 46 84 112 101 146 27 54 31
70 27 118 -3 40 -11 62 -29 81 -51 56 -134 69 -207 33z"/>
<path d="M4335 961 c-76 -34 -103 -113 -67 -193 26 -59 78 -116 177 -193 44
-35 88 -72 98 -83 18 -20 19 -20 75 18 31 20 87 56 124 80 72 45 133 105 148
146 16 41 11 106 -10 141 -54 89 -214 99 -278 18 l-20 -25 -21 35 c-40 68
-145 93 -226 56z"/>
<path d="M5332 940 c-17 -18 -20 -19 -32 -5 -32 38 -112 5 -126 -52 -11 -41
13 -72 91 -119 l70 -43 37 36 c71 69 83 130 36 181 -27 27 -52 28 -76 2z"/>
<path d="M11050 943 c-53 -20 -72 -65 -64 -148 l6 -62 73 -10 c40 -6 85 -8 99
-6 34 7 66 48 66 85 0 36 -40 78 -75 78 -20 0 -25 5 -25 25 0 35 -38 53 -80
38z"/>
<path d="M11597 892 c-29 -31 -21 -67 26 -120 l43 -48 64 37 c76 43 110 81 94
107 -17 27 -60 38 -96 24 -25 -9 -35 -8 -52 3 -28 20 -59 19 -79 -3z"/>
<path d="M3762 888 c-23 -23 -13 -65 28 -117 l40 -51 53 20 c28 11 62 31 74
44 38 45 4 93 -60 83 -20 -3 -36 2 -49 15 -20 20 -68 24 -86 6z"/>
<path d="M9396 874 c-28 -28 -19 -58 40 -128 l31 -37 66 30 c51 23 68 35 73
56 10 39 -20 67 -68 64 -24 -2 -43 3 -56 14 -23 21 -66 22 -86 1z"/>
<path d="M2204 830 c-27 -11 -54 -48 -54 -75 1 -27 17 -53 71 -113 l47 -51 56
30 c67 36 86 61 86 111 0 59 -50 98 -82 64 -10 -11 -17 -8 -39 15 -28 30 -48
34 -85 19z"/>
<path d="M7830 817 c-14 -7 -31 -26 -39 -42 -13 -26 -12 -33 8 -69 12 -23 40
-60 62 -83 l40 -43 53 30 c71 40 88 61 90 109 1 65 -45 101 -85 65 -16 -14
-18 -14 -24 6 -6 20 -41 40 -68 40 -7 0 -23 -6 -37 -13z"/>
<path d="M6462 794 c-30 -21 -42 -45 -52 -110 -5 -31 -12 -64 -15 -75 -4 -13
-2 -19 8 -19 8 0 39 -11 69 -25 65 -30 107 -32 142 -4 45 36 27 119 -27 119
-14 0 -16 6 -11 25 10 39 -4 73 -36 90 -37 19 -50 19 -78 -1z"/>
<path d="M2920 780 c-16 -16 -20 -33 -20 -83 l0 -64 58 5 c70 6 90 15 98 47 8
31 -11 55 -43 55 -14 0 -22 4 -18 11 8 12 -23 49 -42 49 -7 0 -22 -9 -33 -20z"/>
<path d="M8552 767 c-18 -19 -22 -35 -22 -83 l0 -59 64 5 c35 3 71 11 80 19
31 26 14 81 -26 81 -11 0 -18 7 -18 20 0 18 -26 40 -48 40 -5 0 -18 -10 -30
-23z"/>
<path d="M5758 745 c-55 -31 -47 -92 24 -181 29 -35 48 -51 58 -47 8 3 56 21
107 40 102 39 146 71 141 105 -7 50 -108 84 -163 55 -27 -13 -30 -13 -49 10
-27 30 -82 38 -118 18z"/>
</g>
</svg>
