<?xml version="1.0" encoding="UTF-8" standalone="no"?>
<!DOCTYPE svg PUBLIC "-//W3C//DTD SVG 20010904//EN" "http://www.w3.org/TR/2001/REC-SVG-20010904/DTD/svg10.dtd">
<svg version="1.0" xmlns="http://www.w3.org/2000/svg" width="1280.000000pt" height="1274.000000pt" viewBox="0 0 1280.000000 1274.000000" preserveAspectRatio="xMidYMid meet">
<metadata>
Created by potrace 1.15, written by Peter Selinger 2001-2017
</metadata>
<g transform="translate(0.000000,1274.000000) scale(0.100000,-0.100000)" fill="#000000" stroke="none">
<path d="M8030 12531 c-136 -29 -256 -91 -359 -186 -60 -55 -211 -240 -211 -258 0 -8 -28 -39 -62 -68 -35 -30 -75 -67 -90 -82 -23 -24 -30 -26 -48 -17 -12 6 -24 18 -27 26 -3 8 -11 14 -19 14 -8 0 -14 5 -14 10 0 6 -12 15 -27 21 -15 6 -83 51 -150 100 -197 145 -343 201 -562 219 -103 8 -240 0 -306 -19 -237 -67 -413 -218 -521 -445 -118 -249 -107 -557 31 -885 70 -165 235 -400 377 -537 196 -189 629 -483 1134 -772 108 -62 130 -82 115 -110 -15 -27 -199 -192 -215 -192 -7 0 -112 99 -232 219 -208 209 -223 222 -304 260 -100 48 -161 61 -284 61 -150 0 -299 -33 -491 -110 -206 -81 -346 -178 -508 -349 -192 -205 -314 -415 -371 -639 -43 -167 -54 -232 -81 -467 -8 -63 11 -295 29 -363 7 -29 11 -52 8 -52 -2 0 -48 31 -102 69 -302 213 -620 353 -945 417 -111 22 -380 25 -470 5 -177 -39 -299 -103 -411 -216 -63 -63 -90 -100 -123 -166 -67 -137 -84 -217 -85 -404 l-1 -161 -96 -22 c-225 -53 -410 -182 -514 -359 -91 -156 -120 -292 -112 -527 6 -178 32 -303 100 -486 l34 -91 -106 -108 c-119 -121 -214 -248 -272 -364 -82 -162 -107 -259 -113 -437 -2 -74 -7 -169 -11 -211 -9 -90 4 -157 46 -240 104 -207 354 -376 685 -459 149 -38 247 -51 448 -59 l169 -6 23 -85 c13 -47 53 -188 89 -315 36 -126 75 -268 87 -315 11 -47 41 -155 66 -240 24 -85 66 -234 92 -330 26 -96 66 -238 88 -315 23 -77 64 -225 92 -330 28 -104 72 -257 96 -339 24 -81 51 -177 59 -212 8 -35 23 -92 34 -126 11 -35 34 -117 52 -183 17 -66 61 -221 97 -345 35 -124 71 -252 78 -285 26 -114 28 -119 70 -139 72 -34 144 -56 144 -43 0 11 -29 123 -126 477 -18 69 -43 161 -54 205 -10 44 -37 145 -58 225 -22 80 -60 224 -86 320 -25 96 -64 240 -86 320 -21 80 -62 231 -90 335 -76 281 -107 398 -140 515 -16 58 -34 132 -41 164 -6 33 -22 96 -36 140 -28 96 -197 724 -226 844 -22 91 -19 102 31 102 27 0 35 -17 61 -143 11 -50 37 -159 59 -242 191 -732 452 -1747 582 -2265 22 -91 63 -248 90 -350 72 -278 90 -348 110 -430 9 -41 28 -114 41 -162 l24 -88 60 -21 c115 -40 115 -40 115 -18 0 10 -27 124 -59 252 -101 392 -113 439 -131 522 -9 44 -29 127 -43 185 -59 233 -188 764 -222 910 -20 85 -49 205 -65 265 -74 276 -210 836 -266 1090 -13 61 -41 175 -63 255 -22 80 -45 173 -52 207 -11 55 -15 62 -43 70 l-31 9 55 19 c80 26 244 109 289 144 l39 31 28 -22 c16 -13 34 -28 39 -35 30 -38 283 -147 425 -183 258 -66 611 -66 868 -1 l82 21 47 -24 c27 -13 75 -31 108 -41 32 -9 80 -27 105 -40 25 -13 79 -34 120 -47 68 -21 94 -23 265 -23 164 0 203 3 290 24 l100 23 124 -21 c149 -25 424 -29 566 -7 259 40 504 138 644 258 l40 34 113 -24 c97 -21 142 -25 313 -26 243 -1 324 15 492 99 l107 54 91 -29 c212 -68 346 -91 537 -91 169 1 250 11 362 47 245 78 408 227 499 454 14 36 29 82 32 103 4 20 11 39 15 42 4 2 47 -3 96 -11 123 -22 367 -14 479 15 270 71 461 253 535 511 31 109 38 293 15 435 -46 295 -197 623 -420 914 -238 310 -532 570 -872 771 -40 23 -73 44 -73 47 0 2 11 23 24 46 39 67 104 221 120 284 23 90 37 408 25 549 -18 207 -120 578 -210 758 -128 259 -410 480 -741 580 -288 87 -429 71 -758 -87 -110 -53 -192 -111 -268 -191 -40 -42 -81 -76 -91 -76 -31 0 -298 137 -305 156 -8 22 45 75 404 399 647 584 858 861 976 1281 26 91 28 113 29 274 0 162 -2 182 -28 275 -96 340 -421 627 -782 689 -115 20 -198 19 -305 -3z m340 -220 c264 -76 506 -317 557 -554 21 -97 20 -270 -2 -382 -42 -217 -176 -462 -373 -681 -102 -113 -333 -336 -482 -465 -47 -41 -95 -83 -106 -95 -12 -11 -72 -64 -135 -116 -63 -52 -121 -103 -129 -113 -34 -41 -171 -155 -194 -161 -37 -9 -184 67 -606 313 -264 155 -454 286 -595 413 -28 25 -77 67 -108 94 -105 90 -253 280 -316 405 -86 169 -124 317 -125 481 -1 148 12 215 65 325 70 148 202 260 359 305 101 29 278 36 375 13 142 -32 214 -71 352 -192 44 -38 53 -52 53 -79 0 -39 33 -107 55 -116 9 -3 27 -6 40 -6 37 0 55 -26 55 -80 0 -40 4 -50 25 -64 13 -9 42 -16 63 -16 32 0 48 8 87 42 44 39 49 41 79 30 48 -18 71 -15 105 13 25 22 30 34 33 78 3 55 5 56 81 72 23 5 33 17 52 60 14 30 22 61 19 70 -8 20 10 62 67 160 113 193 273 281 489 270 52 -2 124 -13 160 -24z m-793 -2893 c29 -13 229 -133 251 -150 24 -20 12 -58 -44 -140 -31 -46 -81 -134 -111 -195 -38 -78 -61 -113 -72 -113 -10 0 -41 29 -71 65 -29 36 -95 105 -147 153 -63 58 -93 92 -90 103 10 39 220 277 254 288 1 1 15 -5 30 -11z"/>
<path d="M9726 4321 l-99 -26 -13 -45 c-8 -25 -27 -106 -43 -180 -28 -126 -70 -307 -156 -665 -19 -82 -49 -208 -64 -280 -28 -123 -70 -305 -181 -775 -27 -113 -52 -223 -55 -245 -4 -22 -25 -112 -46 -200 -21 -88 -46 -194 -54 -235 -8 -41 -28 -129 -44 -195 -52 -217 -62 -259 -88 -370 -14 -60 -36 -155 -49 -210 -13 -55 -35 -152 -49 -215 -14 -63 -34 -152 -44 -197 -10 -46 -16 -83 -12 -83 3 0 48 14 98 31 82 27 94 34 99 57 3 15 16 68 29 117 13 50 35 140 50 200 14 61 46 191 70 290 126 514 212 864 265 1080 33 132 64 260 69 285 5 25 30 124 55 220 26 96 58 222 70 280 13 58 48 204 79 325 60 236 241 979 252 1033 6 29 4 32 -17 31 -13 -1 -68 -13 -122 -28z"/>
<path d="M9396 4246 c-55 -12 -101 -26 -102 -31 -1 -6 -16 -77 -34 -160 -17 -82 -47 -220 -66 -305 -18 -85 -42 -204 -53 -265 -11 -60 -36 -180 -55 -265 -20 -85 -48 -216 -61 -290 -14 -74 -43 -216 -65 -315 -21 -99 -49 -227 -60 -285 -12 -58 -29 -148 -40 -200 -44 -223 -63 -311 -86 -406 -13 -56 -24 -113 -24 -126 0 -13 -9 -60 -20 -104 -34 -141 -71 -307 -90 -414 -10 -58 -34 -175 -53 -260 -19 -85 -42 -193 -51 -240 -9 -47 -25 -122 -35 -167 -14 -65 -15 -83 -5 -83 12 0 176 49 181 54 3 3 64 271 118 516 18 85 48 216 65 290 17 74 42 187 55 250 14 63 41 185 60 270 20 85 42 191 51 235 8 44 22 103 29 130 8 28 23 93 34 145 11 52 34 158 51 235 17 77 47 210 66 295 19 85 47 214 64 285 16 72 41 184 54 250 14 66 39 179 56 250 17 72 46 204 65 295 19 91 48 225 65 298 16 73 30 135 30 138 0 8 -46 2 -144 -20z"/>
<path d="M9093 4185 c-62 -12 -116 -24 -119 -28 -4 -4 -22 -95 -40 -203 -18 -107 -42 -239 -53 -292 -36 -172 -69 -355 -81 -442 -6 -47 -17 -112 -25 -146 -8 -33 -48 -247 -90 -475 -41 -228 -89 -484 -105 -569 -27 -139 -69 -364 -130 -700 -28 -153 -113 -615 -150 -815 -44 -234 -45 -245 -29 -245 22 0 163 40 172 49 4 4 31 131 61 282 30 150 80 402 111 559 31 157 68 341 80 410 13 69 40 202 60 295 20 94 42 212 51 264 8 51 23 130 34 175 11 44 38 178 60 296 23 118 54 278 71 355 16 77 61 304 100 505 38 201 87 449 109 553 21 103 35 189 31 190 -3 2 -57 -6 -118 -18z"/>
<path d="M8771 4129 c-57 -10 -107 -22 -111 -26 -8 -9 -43 -215 -65 -378 -8 -60 -26 -173 -39 -250 -14 -77 -37 -212 -51 -300 -15 -88 -37 -227 -51 -310 -13 -82 -33 -208 -44 -280 -11 -71 -33 -209 -50 -305 -16 -96 -43 -265 -60 -375 -17 -110 -40 -249 -51 -310 -10 -60 -25 -157 -33 -215 -8 -58 -26 -172 -40 -255 -14 -82 -37 -224 -51 -315 -14 -91 -40 -259 -58 -375 -38 -244 -44 -228 78 -197 68 18 70 19 81 59 7 22 21 101 33 174 11 74 39 238 61 364 22 127 49 284 60 350 11 66 34 197 50 290 17 94 40 226 50 295 11 69 26 154 34 190 8 36 31 162 51 280 19 118 49 287 65 375 17 88 51 282 75 430 25 149 56 329 70 400 13 72 33 189 45 260 12 72 32 193 46 270 26 151 28 176 17 174 -5 -1 -55 -9 -112 -20z"/>
<path d="M3530 4133 c0 -3 13 -56 29 -117 16 -61 43 -176 61 -256 18 -80 59 -253 91 -385 31 -132 60 -258 64 -280 8 -47 95 -409 129 -540 13 -49 36 -148 51 -220 15 -71 44 -202 65 -290 21 -88 46 -194 55 -235 31 -137 106 -454 135 -570 16 -63 34 -142 40 -175 10 -53 104 -449 149 -625 l16 -65 65 -22 c36 -12 75 -22 86 -22 21 -1 21 0 8 57 -7 31 -30 134 -50 227 -20 94 -58 264 -86 380 -27 116 -62 273 -79 350 -79 373 -173 799 -224 1020 -25 110 -57 254 -70 320 -27 132 -39 190 -90 405 -19 80 -48 210 -65 290 -17 80 -44 201 -61 270 -16 69 -47 199 -67 290 l-38 165 -79 17 c-87 18 -135 22 -135 11z"/>
<path d="M8457 4081 c-73 -11 -111 -21 -116 -31 -5 -8 -11 -53 -15 -100 -4 -47 -20 -168 -36 -270 -16 -102 -45 -306 -65 -455 -20 -148 -51 -378 -70 -510 -19 -132 -44 -312 -55 -400 -12 -88 -30 -223 -41 -300 -11 -77 -29 -210 -39 -295 -29 -226 -58 -437 -80 -585 -11 -71 -24 -175 -29 -230 -6 -55 -15 -123 -20 -151 -6 -29 -17 -107 -26 -175 -9 -68 -25 -187 -36 -263 -10 -76 -18 -141 -16 -142 2 -2 44 4 93 14 l89 18 12 74 c7 41 19 127 27 190 8 63 33 230 55 370 22 140 54 350 71 465 66 439 91 612 101 685 6 41 23 156 39 255 15 99 42 277 60 395 17 118 44 298 61 400 16 102 38 253 49 335 17 130 89 599 106 693 3 17 2 31 -2 31 -5 -1 -58 -9 -117 -18z"/>
<path d="M3835 4073 c4 -10 18 -72 31 -138 34 -171 131 -622 159 -740 13 -55 27 -120 31 -145 3 -25 16 -88 29 -140 13 -52 26 -117 30 -145 3 -27 27 -140 51 -250 25 -110 54 -247 64 -305 10 -58 25 -132 34 -166 8 -33 27 -114 40 -180 13 -65 39 -182 56 -259 17 -77 39 -185 50 -240 10 -55 35 -174 55 -265 88 -402 131 -605 156 -732 l11 -58 68 -20 c37 -11 76 -20 88 -20 19 0 20 3 11 33 -5 17 -16 73 -25 122 -8 50 -26 137 -39 195 -13 58 -28 137 -34 175 -5 39 -35 189 -66 335 -56 264 -127 621 -206 1030 -23 118 -66 334 -96 480 -30 146 -68 335 -84 420 -16 85 -38 193 -49 240 -11 47 -24 117 -30 155 -10 66 -29 160 -86 421 -13 61 -24 122 -24 135 0 42 -15 51 -101 65 -116 19 -133 18 -124 -3z"/>
<path d="M4140 4019 c5 -17 16 -81 25 -142 9 -62 27 -155 40 -207 13 -52 26 -122 30 -155 4 -33 26 -159 50 -280 24 -121 51 -263 60 -315 23 -136 152 -809 175 -910 10 -47 24 -121 30 -165 6 -44 24 -147 40 -230 16 -82 52 -269 80 -415 28 -146 60 -310 71 -365 12 -55 27 -136 34 -180 7 -44 28 -153 46 -242 l32 -162 81 -19 c45 -11 82 -18 84 -17 2 2 -6 57 -18 122 -59 327 -91 502 -114 638 -61 352 -98 560 -127 715 -16 91 -47 264 -68 385 -21 121 -46 256 -55 300 -9 44 -29 163 -46 265 -16 102 -38 226 -49 275 -11 50 -22 117 -26 150 -3 33 -22 146 -41 250 -19 105 -56 307 -82 450 l-47 260 -45 6 c-25 3 -73 9 -107 12 l-61 7 8 -31z"/>
<path d="M8120 4038 c-47 -5 -86 -10 -87 -11 -6 -7 -45 -338 -53 -462 -6 -82 -20 -204 -30 -270 -11 -66 -27 -190 -35 -275 -9 -85 -22 -200 -30 -255 -8 -55 -19 -158 -25 -230 -6 -71 -19 -195 -30 -275 -11 -80 -24 -197 -30 -260 -6 -63 -19 -189 -30 -280 -27 -229 -49 -420 -66 -585 -8 -77 -21 -192 -29 -255 -13 -102 -48 -412 -74 -650 -5 -47 -8 -87 -5 -89 5 -5 166 17 173 25 6 6 90 658 136 1049 14 121 27 227 30 235 5 18 48 347 74 577 11 92 38 312 61 488 22 176 50 399 60 495 11 96 25 200 30 230 5 30 19 135 30 232 11 98 29 233 40 300 11 67 23 157 26 200 l7 78 -29 -1 c-16 -1 -67 -6 -114 -11z"/>
<path d="M7830 4005 c-58 -7 -106 -14 -106 -14 -1 -1 -5 -31 -8 -68 -3 -38 -17 -187 -31 -333 -14 -146 -29 -330 -35 -410 -6 -80 -17 -203 -25 -275 -8 -71 -21 -215 -30 -320 -8 -104 -17 -206 -20 -225 -5 -35 -53 -583 -80 -905 -8 -93 -23 -262 -34 -375 -54 -546 -87 -958 -78 -967 8 -7 140 7 156 17 14 8 38 179 65 470 9 91 21 215 27 275 5 61 17 162 24 225 8 63 19 178 25 255 6 77 17 192 25 255 21 168 72 655 85 805 5 72 21 227 34 345 14 118 32 298 41 400 9 102 23 239 31 305 15 124 54 514 54 540 0 8 -3 14 -7 14 -5 -1 -55 -7 -113 -14z"/>
<path d="M4441 3929 c10 -46 25 -133 34 -194 8 -60 34 -216 56 -345 22 -129 56 -327 74 -440 19 -113 41 -241 50 -285 8 -44 20 -120 25 -170 6 -49 24 -162 40 -250 16 -88 43 -241 59 -340 52 -319 140 -844 176 -1050 19 -110 42 -245 50 -300 17 -116 56 -349 58 -351 6 -4 163 -32 165 -30 1 2 -11 93 -28 202 -69 448 -82 537 -110 709 -16 99 -40 261 -55 360 -30 207 -72 479 -115 745 -78 487 -111 699 -135 860 -30 205 -88 578 -115 735 -10 61 -21 131 -25 157 -7 53 -7 53 -136 64 l-86 7 18 -84z"/>
<path d="M4730 3944 c5 -21 16 -104 25 -184 9 -80 25 -199 35 -265 11 -66 40 -268 65 -449 25 -181 48 -333 50 -336 3 -4 16 -92 30 -196 14 -104 45 -328 70 -499 25 -170 52 -357 60 -415 8 -58 28 -195 45 -305 35 -230 51 -343 86 -615 13 -107 27 -202 29 -210 3 -9 14 -80 25 -159 11 -79 21 -146 23 -147 6 -6 158 -27 162 -23 2 3 -7 88 -21 189 -13 102 -31 237 -39 300 -8 63 -24 176 -35 250 -11 74 -27 198 -36 275 -8 77 -24 199 -34 270 -11 72 -33 238 -50 370 -17 132 -39 292 -50 355 -10 63 -22 151 -25 195 -4 44 -15 141 -25 215 -11 74 -31 229 -45 343 -14 114 -32 253 -40 309 -29 189 -95 693 -95 720 0 15 -4 29 -9 32 -5 3 -54 9 -109 12 l-101 7 9 -39z"/>
<path d="M7455 3971 l-40 -6 -11 -150 c-7 -82 -19 -283 -28 -445 -9 -162 -21 -342 -26 -400 -12 -124 -52 -726 -80 -1200 -11 -184 -25 -373 -30 -420 -5 -47 -12 -152 -15 -235 -3 -82 -13 -238 -20 -345 -14 -188 -37 -578 -39 -650 l-1 -34 50 2 c28 1 66 5 86 8 l36 5 6 72 c3 40 17 207 31 372 14 165 32 399 41 520 9 121 22 290 30 375 8 85 19 232 25 325 6 94 20 267 30 385 11 118 29 352 40 520 12 168 32 424 45 570 21 228 49 578 58 703 l3 37 -76 -1 c-41 -1 -93 -5 -115 -8z"/>
<path d="M5014 3934 c6 -30 65 -500 92 -729 8 -71 21 -184 29 -250 9 -66 24 -199 35 -295 11 -96 31 -256 45 -355 14 -99 29 -232 35 -295 6 -63 17 -154 26 -203 8 -48 21 -160 29 -250 8 -89 23 -218 34 -287 11 -69 22 -163 26 -210 3 -47 15 -146 25 -220 11 -74 26 -198 35 -275 9 -77 22 -187 30 -245 8 -58 17 -124 21 -147 6 -46 6 -46 114 -58 l56 -7 -12 114 c-16 158 -60 553 -89 803 -37 316 -132 1188 -150 1370 -9 88 -26 246 -40 350 -13 105 -29 244 -35 310 -6 66 -22 212 -36 325 -14 113 -33 285 -43 383 -10 98 -20 179 -22 181 -2 2 -51 7 -108 11 l-103 8 6 -29z"/>
<path d="M7169 3953 l-56 -4 -6 -97 c-8 -114 -22 -443 -37 -842 -11 -304 -24 -605 -40 -920 -5 -107 -14 -341 -20 -520 -6 -179 -15 -399 -20 -490 -5 -91 -14 -284 -20 -430 -5 -146 -12 -336 -16 -422 l-6 -158 39 0 c21 0 61 3 90 6 l51 7 7 156 c3 86 15 293 25 461 11 168 27 458 35 645 9 187 20 390 25 452 6 61 17 264 25 450 8 186 24 478 35 648 11 171 26 445 35 610 8 165 17 335 20 378 l6 77 -58 -2 c-32 -1 -83 -3 -114 -5z"/>
<path d="M5305 3898 c13 -99 36 -318 55 -528 34 -387 58 -636 85 -885 14 -132 36 -355 50 -495 33 -346 92 -924 110 -1095 14 -125 30 -290 65 -670 7 -66 13 -121 14 -123 2 -1 40 -5 85 -9 l82 -6 -5 24 c-3 13 -8 76 -11 139 -3 63 -12 173 -20 245 -8 72 -28 301 -45 511 -16 209 -34 416 -40 460 -5 43 -17 171 -25 284 -8 113 -20 248 -25 300 -6 52 -23 246 -40 430 -16 184 -34 382 -40 440 -5 58 -14 166 -20 240 -11 153 -59 689 -66 736 -5 39 -20 44 -132 44 l-83 0 6 -42z"/>
<path d="M6822 3933 c-17 -3 -21 -9 -17 -26 3 -12 -1 -308 -10 -657 -9 -349 -20 -887 -25 -1195 -5 -308 -14 -878 -21 -1267 -7 -389 -10 -710 -8 -712 3 -3 41 -8 86 -12 l81 -7 6 84 c3 46 8 190 11 319 3 129 10 354 15 500 6 146 17 501 25 790 9 289 20 651 25 805 16 454 28 832 35 1118 l7 267 -94 -1 c-51 -1 -103 -4 -116 -6z"/>
<path d="M5595 3878 c6 -58 48 -608 65 -838 13 -187 66 -864 85 -1090 8 -96 17 -220 20 -275 4 -55 17 -237 31 -405 13 -168 35 -465 49 -660 15 -195 29 -393 33 -440 l7 -85 83 -9 c46 -4 86 -6 89 -2 3 3 1 83 -6 178 -7 95 -16 254 -22 353 -5 99 -16 259 -24 355 -8 96 -19 263 -25 370 -5 107 -12 218 -15 245 -3 28 -9 145 -15 260 -6 116 -19 320 -30 455 -10 135 -21 306 -25 380 -3 74 -12 223 -20 330 -8 107 -21 321 -30 475 -23 438 -23 442 -49 449 -11 3 -63 6 -114 6 l-92 0 5 -52z"/>
<path d="M6512 3921 c-11 -7 -11 -338 -2 -1922 6 -1053 15 -1917 18 -1921 4 -4 44 -10 88 -14 l82 -7 6 654 c3 360 8 962 11 1339 3 377 8 954 12 1283 l6 597 -104 0 c-57 0 -110 -4 -117 -9z"/>
<path d="M5895 3853 c9 -113 34 -554 45 -783 24 -491 50 -977 55 -1005 2 -16 9 -142 15 -280 6 -137 17 -365 25 -505 8 -140 21 -403 30 -585 21 -442 31 -615 37 -620 2 -2 41 -7 86 -11 l82 -7 0 59 c0 32 -4 169 -10 304 -6 135 -17 427 -25 650 -8 223 -21 574 -30 780 -8 206 -21 548 -30 760 -8 212 -20 502 -25 645 -6 143 -14 350 -18 460 l-7 200 -118 3 -117 3 5 -68z"/>
<path d="M6204 3638 c4 -156 13 -481 21 -723 8 -242 19 -620 25 -840 6 -220 15 -517 21 -660 5 -143 14 -440 19 -660 5 -220 12 -464 16 -541 l6 -141 51 -7 c29 -3 69 -6 89 -6 l37 0 -5 213 c-17 744 -53 2968 -54 3320 l0 327 -116 0 -117 0 7 -282z"/>
</g>
</svg>