<?xml version="1.0" standalone="no"?>
<!DOCTYPE svg PUBLIC "-//W3C//DTD SVG 20010904//EN"
 "http://www.w3.org/TR/2001/REC-SVG-20010904/DTD/svg10.dtd">
<svg version="1.0" xmlns="http://www.w3.org/2000/svg"
 width="1280.000000pt" height="1246.000000pt" viewBox="0 0 1280.000000 1246.000000"
 preserveAspectRatio="xMidYMid meet">
<metadata>
Created by potrace 1.15, written by Peter Selinger 2001-2017
</metadata>
<g transform="translate(0.000000,1246.000000) scale(0.100000,-0.100000)"
fill="#d9818d" stroke="none">
<path d="M5290 12450 c-111 -9 -155 -18 -276 -61 -118 -41 -218 -97 -292 -163
-33 -29 -68 -60 -78 -67 -11 -8 -25 -25 -32 -38 -37 -64 -51 -89 -71 -123 -49
-82 -84 -249 -84 -398 0 -78 14 -217 27 -265 3 -11 12 -51 22 -90 14 -62 40
-143 64 -200 23 -58 83 -176 91 -180 4 -3 15 -20 24 -38 36 -77 169 -195 250
-222 28 -10 30 -13 28 -60 -1 -28 -5 -73 -8 -100 l-7 -50 -37 3 c-36 4 -42 -1
-202 -160 -153 -151 -249 -268 -289 -353 -8 -16 -22 -39 -31 -50 -22 -26 -147
-304 -166 -369 -8 -28 -19 -55 -23 -61 -7 -10 -11 -25 -31 -135 -20 -107 -43
-310 -60 -515 -15 -175 -15 -660 0 -870 7 -93 16 -231 21 -305 5 -74 14 -169
20 -210 6 -41 15 -138 20 -215 15 -236 28 -399 34 -420 3 -11 10 -96 15 -188
10 -171 17 -197 52 -197 10 0 20 -4 24 -9 3 -6 10 -72 16 -148 12 -168 41
-302 77 -364 32 -55 132 -141 194 -166 43 -18 39 -18 -332 -24 -206 -3 -382
-9 -391 -13 -34 -15 -39 -53 -39 -305 0 -280 1 -282 78 -295 23 -3 43 -10 46
-15 10 -15 -162 -22 -429 -19 l-250 3 -3 1401 -2 1401 -93 12 c-50 7 -108 20
-127 30 -48 24 -119 41 -220 53 -47 5 -584 13 -1195 17 -611 5 -1225 10 -1365
12 l-255 3 -3 -1432 -2 -1432 22 -4 c13 -3 61 -10 108 -17 94 -12 166 -42 176
-71 3 -10 3 -37 -1 -59 -13 -76 8 -158 44 -171 5 -1 13 -89 17 -194 l7 -191
-33 -6 -32 -7 2 -662 3 -663 -35 -110 c-20 -60 -39 -126 -43 -145 -4 -19 -13
-55 -21 -78 -35 -107 -117 -732 -99 -751 4 -3 25 -11 48 -16 34 -9 43 -16 45
-36 l3 -26 491 -6 c269 -3 492 -8 494 -10 3 -2 -3 -46 -13 -98 -26 -142 -23
-398 6 -554 12 -66 27 -124 32 -129 5 -6 9 -20 9 -32 0 -12 6 -35 14 -51 8
-15 33 -67 55 -116 22 -48 53 -106 68 -130 16 -23 35 -54 42 -69 41 -80 308
-346 393 -391 13 -7 39 -24 58 -38 43 -32 199 -108 304 -149 43 -17 135 -42
205 -56 122 -25 134 -26 391 -21 263 5 266 6 365 37 55 18 105 35 110 40 6 4
27 10 48 14 73 13 390 192 402 226 3 9 20 24 37 34 33 19 158 135 158 147 0 3
19 26 43 51 52 56 147 190 147 209 0 8 9 25 20 39 11 14 20 30 20 37 0 6 10
31 21 55 12 23 26 54 32 68 5 14 13 33 18 42 5 10 9 26 9 36 0 9 6 26 13 37 8
11 19 46 26 78 7 31 15 57 18 57 4 0 29 -18 57 -39 96 -74 17 -70 1389 -76
678 -4 1646 -2 2152 3 911 9 920 9 969 31 142 63 209 182 186 327 -11 65 -3
87 39 108 36 19 176 177 248 279 l55 77 220 0 220 0 -5 -22 c-2 -13 -12 -49
-21 -82 -30 -110 -39 -224 -33 -402 7 -186 33 -318 97 -481 35 -91 118 -241
175 -316 63 -84 317 -331 356 -347 19 -7 49 -26 66 -41 34 -29 187 -106 258
-130 22 -8 42 -17 45 -20 3 -3 16 -9 30 -12 14 -3 66 -18 115 -33 89 -27 92
-27 395 -27 262 -1 313 2 365 17 33 9 78 22 100 27 22 6 49 16 60 23 11 7 36
16 56 20 47 8 229 102 324 166 102 69 309 265 350 331 6 9 33 50 61 90 71 102
129 222 177 364 l41 120 0 305 0 305 -47 133 c-73 205 -139 324 -264 474 -141
170 -372 353 -517 409 -28 11 -69 31 -91 44 -22 12 -66 28 -99 35 -32 6 -54
16 -50 20 14 13 154 60 211 71 29 5 94 21 145 35 105 30 170 43 383 79 128 21
183 33 253 51 52 14 -63 187 -257 387 -97 100 -239 217 -263 217 -7 0 -24 9
-38 20 -14 11 -29 20 -33 20 -5 0 -21 8 -35 18 -15 11 -82 40 -149 66 -181 70
-427 106 -730 106 -92 0 -162 4 -177 11 -27 13 -38 35 -61 125 -32 130 -73
228 -107 256 -34 28 -118 61 -201 80 -35 8 -55 19 -70 41 -29 38 -85 62 -209
87 -56 12 -113 30 -128 40 -14 10 -47 56 -72 102 -25 46 -78 142 -118 213 -40
72 -110 200 -155 285 -45 85 -114 214 -153 287 -86 156 -290 551 -298 575 -3
9 -19 41 -35 70 -16 29 -40 76 -53 103 -89 188 -126 272 -126 288 0 51 77 134
137 147 22 5 113 14 204 20 264 16 367 49 436 139 46 60 56 108 50 231 -13
218 -169 755 -233 796 -19 13 -45 14 -151 9 -133 -7 -156 -10 -337 -45 -115
-22 -136 -29 -254 -87 -158 -77 -251 -168 -348 -340 l-60 -108 -61 0 c-58 0
-73 6 -250 96 -103 53 -242 120 -308 149 -66 29 -208 92 -315 141 -107 48
-242 106 -300 129 -140 55 -222 98 -425 220 -93 56 -213 124 -266 151 -79 39
-121 70 -227 166 -144 130 -154 145 -187 298 -11 53 -27 93 -47 120 -69 95
-129 198 -181 317 -31 70 -89 185 -128 255 -40 70 -101 179 -136 242 -71 125
-164 316 -182 372 -6 19 -11 49 -11 66 0 17 -5 33 -12 35 -18 6 24 68 74 108
l42 35 151 0 c145 0 152 1 210 29 32 16 70 41 83 55 55 59 110 211 121 334 l6
72 61 6 c33 3 66 9 72 13 26 16 12 96 -37 224 -66 172 -65 165 -50 238 11 57
11 83 -5 194 -10 70 -16 133 -12 138 3 5 42 22 86 38 45 15 97 42 117 59 l37
32 -18 67 c-66 243 -301 525 -531 637 -254 123 -441 154 -775 129z m1010
-4756 c161 -148 455 -285 807 -375 211 -54 303 -72 334 -65 16 3 79 -8 146
-25 65 -17 174 -44 243 -60 162 -36 457 -115 488 -128 12 -6 32 -11 42 -11 31
0 43 -36 36 -110 -5 -55 -2 -73 14 -105 11 -22 20 -44 20 -50 0 -5 7 -23 16
-40 26 -49 112 -287 153 -426 31 -104 93 -226 205 -403 38 -61 93 -153 124
-205 30 -53 67 -114 82 -136 49 -72 141 -236 262 -470 209 -402 243 -526 242
-870 0 -268 -17 -378 -105 -673 -80 -269 -248 -607 -403 -811 -67 -88 -217
-241 -271 -276 -28 -18 -57 -40 -64 -49 -18 -21 -49 -20 -113 4 -29 10 -98 29
-152 41 -55 11 -126 33 -158 47 -58 26 -59 28 -55 62 18 133 121 816 137 905
11 61 42 274 70 475 66 480 66 477 90 680 12 96 32 238 46 315 69 392 70 679
5 868 -23 66 -61 137 -73 137 -4 0 -8 6 -8 14 0 36 -137 148 -199 162 -14 4
-33 12 -41 20 -14 11 -76 30 -190 55 -58 13 -217 61 -495 148 -88 27 -266 82
-395 121 -129 39 -332 103 -450 142 -118 38 -235 76 -260 83 -102 29 -276 97
-294 115 -15 15 -21 46 -32 172 -13 158 -47 458 -64 563 -5 33 -19 128 -31
210 -11 83 -24 155 -29 160 -13 17 -20 60 -13 84 5 21 17 12 132 -101 69 -68
160 -155 201 -194z m473 -2429 c20 -8 51 -15 69 -15 18 0 62 -7 98 -16 36 -8
96 -21 133 -29 37 -8 76 -19 87 -25 10 -5 43 -14 72 -18 38 -6 52 -12 51 -22
-2 -17 -49 -179 -65 -225 -44 -130 -128 -548 -168 -845 -5 -36 -14 -90 -19
-120 -6 -30 -31 -181 -56 -335 -26 -154 -49 -287 -51 -295 -6 -18 -27 15 -202
320 -180 313 -239 429 -370 720 -96 212 -111 253 -113 305 l-3 59 80 12 c128
19 208 63 244 134 21 41 120 312 120 328 0 23 32 82 44 82 7 0 30 -7 49 -15z"/>
</g>
</svg>
