<svg xmlns="http://www.w3.org/2000/svg" xmlns:xlink="http://www.w3.org/1999/xlink" version="1.1" width="256" height="256" viewBox="0 0 256 256" xml:space="preserve">

<defs>
</defs>
<g style="stroke: none; stroke-width: 0; stroke-dasharray: none; stroke-linecap: butt; stroke-linejoin: miter; stroke-miterlimit: 10; fill: none; fill-rule: nonzero; opacity: 1;" transform="translate(1.4065934065934016 1.4065934065934016) scale(2.81 2.81)" fill="#d9818d" >
	<path d="M 45.32 80.452 c -4.71 0 -8.542 -3.832 -8.542 -8.543 c 0 -0.65 0.074 -1.3 0.219 -1.929 c 0.125 -0.539 0.663 -0.873 1.2 -0.75 c 0.538 0.124 0.874 0.661 0.75 1.199 c -0.111 0.482 -0.168 0.98 -0.168 1.479 c 0 3.607 2.935 6.543 6.542 6.543 s 6.543 -2.936 6.543 -6.543 c 0 -0.497 -0.057 -0.995 -0.168 -1.48 c -0.124 -0.538 0.212 -1.074 0.751 -1.198 c 0.536 -0.125 1.074 0.213 1.198 0.751 c 0.146 0.631 0.219 1.279 0.219 1.928 C 53.863 76.62 50.031 80.452 45.32 80.452 z" style="stroke: none; stroke-width: 1; stroke-dasharray: none; stroke-linecap: butt; stroke-linejoin: miter; stroke-miterlimit: 10; fill: rgb(0,0,0); fill-rule: nonzero; opacity: 1;" transform=" matrix(1 0 0 1 0 0) " stroke-linecap="round" />
	<path d="M 71.462 74.957 c -0.365 0 -0.716 -0.2 -0.893 -0.547 c -1.291 -2.543 -1.514 -5.436 -0.628 -8.146 s 2.773 -4.914 5.316 -6.204 s 5.437 -1.514 8.146 -0.628 c 2.711 0.885 4.914 2.773 6.204 5.316 c 0.12 0.236 0.142 0.511 0.059 0.763 c -0.082 0.252 -0.261 0.461 -0.498 0.581 l -17.256 8.757 C 71.769 74.922 71.614 74.957 71.462 74.957 z M 80.08 60.899 c -1.346 0 -2.683 0.316 -3.918 0.943 c -2.066 1.049 -3.601 2.839 -4.32 5.042 c -0.615 1.883 -0.571 3.874 0.108 5.702 l 15.372 -7.801 c -1.075 -1.629 -2.656 -2.839 -4.539 -3.454 C 81.896 61.043 80.986 60.899 80.08 60.899 z" style="stroke: none; stroke-width: 1; stroke-dasharray: none; stroke-linecap: butt; stroke-linejoin: miter; stroke-miterlimit: 10; fill: rgb(0,0,0); fill-rule: nonzero; opacity: 1;" transform=" matrix(1 0 0 1 0 0) " stroke-linecap="round" />
	<path d="M 70.432 71.206 H 36.664 c -0.996 0 -1.924 -0.396 -2.613 -1.117 c -0.69 -0.721 -1.046 -1.668 -1.002 -2.665 c 0.307 -6.974 2.359 -9.368 5.703 -12.481 c 0.185 -0.173 0.429 -0.269 0.682 -0.269 h 13.954 c 0.271 0 0.529 0.109 0.717 0.303 c 0.188 0.194 0.29 0.456 0.283 0.726 c -0.091 3.169 0.051 5.178 0.461 6.514 c 0.361 1.179 1.506 2.002 2.782 2.002 h 5.914 c 1.303 0 2.362 -1.06 2.362 -2.362 V 40.695 c 0 -2.338 1.901 -4.24 4.239 -4.24 h 4.872 c 2.338 0 4.239 1.902 4.239 4.24 c 0 2.337 -1.901 4.239 -4.239 4.239 h -2.185 c -0.188 0 -0.293 0.113 -0.339 0.181 c -0.044 0.065 -0.108 0.2 -0.041 0.368 c 0.453 1.126 1.328 2.166 2.342 3.371 c 2.098 2.494 4.709 5.598 4.709 11.178 c 0 0.553 -0.447 1 -1 1 s -1 -0.447 -1 -1 c 0 -4.851 -2.253 -7.528 -4.24 -9.891 c -1.076 -1.28 -2.094 -2.489 -2.666 -3.913 c -0.297 -0.738 -0.207 -1.573 0.239 -2.233 c 0.449 -0.664 1.195 -1.061 1.996 -1.061 h 2.185 c 1.234 0 2.239 -1.004 2.239 -2.239 s -1.005 -2.24 -2.239 -2.24 h -4.872 c -1.234 0 -2.239 1.005 -2.239 2.24 v 21.161 c 0 2.405 -1.957 4.362 -4.362 4.362 H 57.63 c -2.146 0 -4.077 -1.404 -4.694 -3.416 c -0.433 -1.411 -0.609 -3.277 -0.57 -6.128 H 39.828 c -2.871 2.698 -4.51 4.689 -4.781 10.838 c -0.02 0.447 0.14 0.872 0.449 1.195 c 0.308 0.321 0.723 0.499 1.168 0.499 h 33.768 c 0.553 0 1 0.447 1 1 S 70.984 71.206 70.432 71.206 z" style="stroke: none; stroke-width: 1; stroke-dasharray: none; stroke-linecap: butt; stroke-linejoin: miter; stroke-miterlimit: 10; fill: rgb(0,0,0); fill-rule: nonzero; opacity: 1;" transform=" matrix(1 0 0 1 0 0) " stroke-linecap="round" />
	<path d="M 53.387 56.674 H 35.095 c -3.143 0 -5.699 -2.557 -5.699 -5.699 v -0.434 c 0 -1.469 1.194 -2.663 2.663 -2.663 h 19.665 c 1.469 0 2.663 1.194 2.663 2.663 v 5.133 C 54.387 56.227 53.939 56.674 53.387 56.674 z M 32.059 49.878 c -0.365 0 -0.663 0.298 -0.663 0.663 v 0.434 c 0 2.04 1.66 3.699 3.699 3.699 h 17.292 v -4.133 c 0 -0.365 -0.298 -0.663 -0.663 -0.663 H 32.059 z" style="stroke: none; stroke-width: 1; stroke-dasharray: none; stroke-linecap: butt; stroke-linejoin: miter; stroke-miterlimit: 10; fill: rgb(0,0,0); fill-rule: nonzero; opacity: 1;" transform=" matrix(1 0 0 1 0 0) " stroke-linecap="round" />
	<path d="M 41.218 49.878 h -14.88 c -1.99 0 -3.609 -1.619 -3.609 -3.608 V 32.328 c 0 -1.99 1.619 -3.609 3.609 -3.609 h 14.88 c 1.99 0 3.609 1.619 3.609 3.609 V 46.27 C 44.827 48.259 43.208 49.878 41.218 49.878 z M 26.338 30.719 c -0.887 0 -1.609 0.722 -1.609 1.609 V 46.27 c 0 0.887 0.722 1.608 1.609 1.608 h 14.88 c 0.887 0 1.609 -0.722 1.609 -1.608 V 32.328 c 0 -0.887 -0.722 -1.609 -1.609 -1.609 H 26.338 z" style="stroke: none; stroke-width: 1; stroke-dasharray: none; stroke-linecap: butt; stroke-linejoin: miter; stroke-miterlimit: 10; fill: rgb(0,0,0); fill-rule: nonzero; opacity: 1;" transform=" matrix(1 0 0 1 0 0) " stroke-linecap="round" />
	<path d="M 65.33 65.699 c -0.435 0 -0.835 -0.286 -0.961 -0.726 c -0.331 -1.164 -1.184 -1.887 -2.683 -2.274 c -0.445 -0.114 -0.755 -0.519 -0.75 -0.979 l 0.168 -15.933 c 0.011 -1.067 -0.815 -1.938 -1.881 -1.983 l -3.741 -0.227 c -0.292 -0.018 -0.562 -0.162 -0.737 -0.396 c -0.177 -0.233 -0.241 -0.532 -0.179 -0.818 l 1.51 -6.84 c 0.168 -0.761 0.67 -1.382 1.378 -1.705 c 0.709 -0.323 1.508 -0.295 2.191 0.075 l 8.115 4.404 c 0.485 0.263 0.666 0.871 0.402 1.356 c -0.262 0.485 -0.87 0.666 -1.355 0.402 l -8.115 -4.403 c -0.175 -0.095 -0.33 -0.049 -0.407 -0.014 c -0.077 0.035 -0.213 0.123 -0.256 0.317 l -1.258 5.697 l 2.555 0.155 c 2.133 0.09 3.801 1.849 3.778 4.001 l -0.16 15.188 c 1.757 0.639 2.882 1.789 3.349 3.428 c 0.151 0.531 -0.156 1.085 -0.688 1.236 C 65.514 65.688 65.421 65.699 65.33 65.699 z" style="stroke: none; stroke-width: 1; stroke-dasharray: none; stroke-linecap: butt; stroke-linejoin: miter; stroke-miterlimit: 10; fill: rgb(0,0,0); fill-rule: nonzero; opacity: 1;" transform=" matrix(1 0 0 1 0 0) " stroke-linecap="round" />
	<path d="M 57.63 66.218 c -0.545 0 -0.991 -0.438 -1 -0.984 l -0.227 -14.405 c -0.053 -0.507 -0.54 -0.95 -1.13 -0.95 h -3.085 c -1.756 0 -3.406 -0.775 -4.527 -2.128 c -1.12 -1.352 -1.576 -3.117 -1.25 -4.842 l 3.467 -18.369 c 0.306 -1.243 1.05 -2.236 2.107 -2.852 c 1.058 -0.616 2.288 -0.774 3.467 -0.444 c 1.625 0.454 2.847 1.764 3.187 3.418 c 0.145 0.706 0.491 1.69 1.321 2.374 l 11.712 9.648 c 0.427 0.351 0.487 0.981 0.136 1.408 c -0.35 0.427 -0.979 0.487 -1.407 0.136 l -11.712 -9.648 c -1.014 -0.835 -1.708 -2.051 -2.009 -3.516 c -0.188 -0.917 -0.865 -1.643 -1.767 -1.895 c -0.652 -0.182 -1.335 -0.095 -1.921 0.247 s -0.998 0.892 -1.161 1.55 l -3.455 18.314 c -0.215 1.138 0.086 2.303 0.825 3.195 c 0.74 0.893 1.828 1.404 2.987 1.404 h 3.085 c 1.625 0 2.968 1.22 3.125 2.838 l 0.231 14.486 c 0.009 0.552 -0.432 1.007 -0.984 1.016 C 57.641 66.218 57.635 66.218 57.63 66.218 z" style="stroke: none; stroke-width: 1; stroke-dasharray: none; stroke-linecap: butt; stroke-linejoin: miter; stroke-miterlimit: 10; fill: rgb(0,0,0); fill-rule: nonzero; opacity: 1;" transform=" matrix(1 0 0 1 0 0) " stroke-linecap="round" />
	<path d="M 60.634 23.136 c -0.553 0 -1 -0.448 -1 -1 s 0.447 -1 1 -1 c 2.14 0 3.88 -1.741 3.88 -3.88 c 0 -0.552 0.447 -1 1 -1 s 1 0.448 1 1 C 66.514 20.498 63.876 23.136 60.634 23.136 z" style="stroke: none; stroke-width: 1; stroke-dasharray: none; stroke-linecap: butt; stroke-linejoin: miter; stroke-miterlimit: 10; fill: rgb(0,0,0); fill-rule: nonzero; opacity: 1;" transform=" matrix(1 0 0 1 0 0) " stroke-linecap="round" />
	<path d="M 45.32 76.441 c -2.537 0 -4.602 -2.064 -4.602 -4.602 c 0 -0.725 0.173 -1.447 0.501 -2.09 c 0.25 -0.492 0.853 -0.688 1.345 -0.437 c 0.492 0.251 0.688 0.853 0.437 1.345 c -0.188 0.368 -0.283 0.766 -0.283 1.182 c 0 1.435 1.167 2.602 2.602 2.602 s 2.602 -1.167 2.602 -2.602 c 0 -0.416 -0.095 -0.813 -0.283 -1.183 c -0.25 -0.492 -0.054 -1.094 0.438 -1.345 c 0.488 -0.248 1.094 -0.055 1.345 0.438 c 0.327 0.643 0.5 1.365 0.5 2.089 C 49.922 74.377 47.857 76.441 45.32 76.441 z" style="stroke: none; stroke-width: 1; stroke-dasharray: none; stroke-linecap: butt; stroke-linejoin: miter; stroke-miterlimit: 10; fill: rgb(0,0,0); fill-rule: nonzero; opacity: 1;" transform=" matrix(1 0 0 1 0 0) " stroke-linecap="round" />
	<path d="M 81.599 76.788 c -2.537 0 -4.602 -2.064 -4.602 -4.602 c 0 -0.814 0.216 -1.616 0.626 -2.317 c 0.278 -0.476 0.892 -0.639 1.367 -0.359 c 0.478 0.278 0.638 0.891 0.359 1.367 c -0.23 0.396 -0.353 0.849 -0.353 1.31 c 0 1.435 1.167 2.602 2.602 2.602 s 2.602 -1.167 2.602 -2.602 c 0 -1.327 -0.992 -2.438 -2.309 -2.585 c -0.549 -0.062 -0.944 -0.556 -0.884 -1.104 c 0.063 -0.55 0.566 -0.936 1.104 -0.884 c 2.331 0.26 4.088 2.226 4.088 4.573 C 86.2 74.724 84.136 76.788 81.599 76.788 z" style="stroke: none; stroke-width: 1; stroke-dasharray: none; stroke-linecap: butt; stroke-linejoin: miter; stroke-miterlimit: 10; fill: rgb(0,0,0); fill-rule: nonzero; opacity: 1;" transform=" matrix(1 0 0 1 0 0) " stroke-linecap="round" />
	<path d="M 81.401 80.452 c -4.365 0 -8.036 -3.266 -8.54 -7.596 c -0.063 -0.548 0.329 -1.045 0.878 -1.108 c 0.557 -0.064 1.044 0.33 1.108 0.878 c 0.387 3.321 3.204 5.826 6.554 5.826 c 3.639 0 6.599 -2.96 6.599 -6.599 c 0 -1.827 -0.769 -3.589 -2.107 -4.834 c -0.404 -0.376 -0.428 -1.009 -0.052 -1.413 c 0.378 -0.405 1.01 -0.426 1.413 -0.052 C 88.999 67.177 90 69.473 90 71.854 C 90 76.595 86.143 80.452 81.401 80.452 z" style="stroke: none; stroke-width: 1; stroke-dasharray: none; stroke-linecap: butt; stroke-linejoin: miter; stroke-miterlimit: 10; fill: rgb(0,0,0); fill-rule: nonzero; opacity: 1;" transform=" matrix(1 0 0 1 0 0) " stroke-linecap="round" />
	<path d="M 60.634 24.963 c -4.25 0 -7.708 -3.458 -7.708 -7.708 s 3.458 -7.708 7.708 -7.708 s 7.708 3.458 7.708 7.708 c 0 0.552 -0.447 1 -1 1 h -5.708 v 5.708 C 61.634 24.516 61.187 24.963 60.634 24.963 z M 60.634 11.548 c -3.147 0 -5.708 2.561 -5.708 5.708 c 0 2.807 2.035 5.146 4.708 5.62 v -5.62 c 0 -0.552 0.447 -1 1 -1 h 5.62 C 65.78 13.583 63.44 11.548 60.634 11.548 z" style="stroke: none; stroke-width: 1; stroke-dasharray: none; stroke-linecap: butt; stroke-linejoin: miter; stroke-miterlimit: 10; fill: rgb(0,0,0); fill-rule: nonzero; opacity: 1;" transform=" matrix(1 0 0 1 0 0) " stroke-linecap="round" />
	<path d="M 53.639 43.625 c -2.128 0 -3.364 -0.254 -6.254 -1.219 c -0.523 -0.175 -0.806 -0.741 -0.631 -1.265 c 0.175 -0.523 0.738 -0.808 1.266 -0.631 c 3.385 1.131 4.168 1.194 7.486 1.071 c 0.549 -0.023 1.017 0.411 1.036 0.962 c 0.021 0.552 -0.41 1.016 -0.962 1.037 C 54.838 43.606 54.206 43.625 53.639 43.625 z" style="stroke: none; stroke-width: 1; stroke-dasharray: none; stroke-linecap: butt; stroke-linejoin: miter; stroke-miterlimit: 10; fill: rgb(0,0,0); fill-rule: nonzero; opacity: 1;" transform=" matrix(1 0 0 1 0 0) " stroke-linecap="round" />
	<path d="M 1 71.491 c -0.552 0 -1 -0.447 -1 -1 c 0 -0.552 0.448 -1 1 -1 l 27.572 -0.002 c 0.552 0 1 0.447 1 1 c 0 0.552 -0.448 1 -1 1 L 1 71.491 z" style="stroke: none; stroke-width: 1; stroke-dasharray: none; stroke-linecap: butt; stroke-linejoin: miter; stroke-miterlimit: 10; fill: rgb(0,0,0); fill-rule: nonzero; opacity: 1;" transform=" matrix(1 0 0 1 0 0) " stroke-linecap="round" />
	<path d="M 30.101 61.255 H 1 c -0.552 0 -1 -0.447 -1 -1 s 0.448 -1 1 -1 h 29.101 c 0.552 0 1 0.447 1 1 S 30.653 61.255 30.101 61.255 z" style="stroke: none; stroke-width: 1; stroke-dasharray: none; stroke-linecap: butt; stroke-linejoin: miter; stroke-miterlimit: 10; fill: rgb(0,0,0); fill-rule: nonzero; opacity: 1;" transform=" matrix(1 0 0 1 0 0) " stroke-linecap="round" />
	<path d="M 20.399 51.019 H 1 c -0.552 0 -1 -0.447 -1 -1 s 0.448 -1 1 -1 h 19.399 c 0.552 0 1 0.447 1 1 S 20.951 51.019 20.399 51.019 z" style="stroke: none; stroke-width: 1; stroke-dasharray: none; stroke-linecap: butt; stroke-linejoin: miter; stroke-miterlimit: 10; fill: rgb(0,0,0); fill-rule: nonzero; opacity: 1;" transform=" matrix(1 0 0 1 0 0) " stroke-linecap="round" />
	<path d="M 18.833 40.782 H 1 c -0.552 0 -1 -0.448 -1 -1 s 0.448 -1 1 -1 h 17.833 c 0.552 0 1 0.448 1 1 S 19.385 40.782 18.833 40.782 z" style="stroke: none; stroke-width: 1; stroke-dasharray: none; stroke-linecap: butt; stroke-linejoin: miter; stroke-miterlimit: 10; fill: rgb(0,0,0); fill-rule: nonzero; opacity: 1;" transform=" matrix(1 0 0 1 0 0) " stroke-linecap="round" />
</g>
</svg>