<svg version="1.1" id="Layer_1" xmlns="http://www.w3.org/2000/svg" xmlns:xlink="http://www.w3.org/1999/xlink" x="0px" y="0px"
	 width="100%" viewBox="0 0 1080 1080" enable-background="new 0 0 1080 1080" xml:space="preserve">
<path fill="#d9818d" opacity="1.000000" stroke="none" 
	d="
M474.739197,825.759583 
	C457.245605,837.690308 439.159424,847.881165 419.953400,855.854492 
	C399.569885,864.316772 379.010864,872.464966 356.957886,875.700928 
	C354.341431,876.084778 351.635773,875.989685 348.976166,875.924561 
	C342.402893,875.763672 340.192169,873.244995 342.678925,867.022278 
	C345.304871,860.451477 348.648102,853.981445 352.734558,848.216248 
	C363.384125,833.191895 374.714722,818.652405 385.578156,803.776733 
	C395.032074,790.831116 404.218964,777.690491 414.021362,763.938110 
	C407.985260,762.527405 402.882782,761.420837 397.825653,760.135803 
	C386.086151,757.152893 374.299652,754.325378 362.655945,751.001404 
	C335.135956,743.145325 308.346161,733.160706 282.697754,720.523376 
	C256.165863,707.450806 230.977692,692.109436 207.762375,673.531311 
	C188.877441,658.418579 171.460663,641.905518 156.669449,622.851257 
	C143.032028,605.283264 131.592575,586.343811 123.451736,565.421631 
	C116.903076,548.591370 111.990433,531.364624 110.388832,513.500244 
	C108.700760,494.671173 108.931915,475.728394 112.171394,456.936340 
	C115.611092,436.982849 121.497551,417.707733 131.273544,400.109924 
	C139.937378,384.514099 149.770004,369.376587 160.682663,355.271515 
	C173.061249,339.271759 187.583893,325.088196 203.531006,312.374664 
	C223.556625,296.409607 244.280548,281.517792 267.392487,270.451691 
	C289.409149,259.910004 311.592468,249.557648 334.324371,240.721954 
	C350.625031,234.386032 367.869232,230.378403 384.844238,225.908249 
	C398.303802,222.363861 411.900452,219.158310 425.605377,216.774643 
	C441.764435,213.964157 458.049927,211.552933 474.382080,210.149536 
	C494.400848,208.429352 514.536377,206.924606 534.600281,207.156158 
	C560.940918,207.460114 587.376404,208.445953 613.556702,211.186462 
	C638.734009,213.821976 663.810425,218.245987 688.603638,223.445847 
	C706.082458,227.111664 723.252319,232.713257 740.126404,238.677429 
	C759.195801,245.417526 778.263367,252.531265 796.440369,261.325012 
	C814.918518,270.264496 832.990784,280.442688 849.986633,291.933472 
	C866.833862,303.323792 882.826294,316.250427 897.855469,329.969238 
	C909.294312,340.410736 919.175659,352.724548 928.793884,364.957092 
	C944.735901,385.232208 956.699341,407.932159 963.964966,432.644714 
	C967.957581,446.224792 970.257874,460.476807 971.697021,474.591492 
	C973.756592,494.791840 972.566650,515.025757 968.065247,534.955078 
	C964.535461,550.582642 959.401611,565.656311 952.253601,579.986938 
	C940.698181,603.153992 925.856445,623.967407 907.994934,642.782898 
	C893.068726,658.506287 876.513184,672.198853 859.098022,684.954224 
	C834.216492,703.177917 807.102783,717.557129 778.893066,729.691345 
	C753.716370,740.520874 727.812622,749.575867 701.068848,755.914001 
	C687.200317,759.200745 673.388550,762.969971 659.341553,765.203186 
	C638.891052,768.454468 618.296875,770.996399 597.679443,772.948242 
	C577.683960,774.841248 557.577271,775.543945 537.533691,776.969971 
	C535.615662,777.106384 533.524292,778.335693 531.977722,779.617737 
	C516.896667,792.120239 501.968719,804.807617 486.865601,817.283081 
	C483.168121,820.337219 478.989929,822.809326 474.739197,825.759583 
M446.785065,730.859314 
	C439.664673,729.682495 432.544312,728.505676 425.656403,727.367310 
	C425.163818,728.119934 424.920959,728.372925 424.812164,728.674377 
	C421.803101,737.010254 422.016144,737.400940 430.572906,738.812317 
	C436.044373,739.714722 441.524414,740.565308 447.812012,741.568604 
	C446.791321,743.590515 446.264709,744.905518 445.512787,746.075684 
	C442.464600,750.819519 439.286438,755.480957 436.306091,760.266113 
	C435.703461,761.233582 435.163574,762.935608 435.608704,763.733032 
	C437.094452,766.394897 444.521881,766.494202 446.243317,763.945557 
	C452.089600,755.289673 457.776337,746.525635 463.653595,737.891113 
	C465.857697,734.653015 464.728638,733.514465 461.336517,733.069336 
	C456.760803,732.468811 452.206970,731.701355 446.785065,730.859314 
M408.385925,828.874939 
	C407.102936,829.265930 405.819916,829.656860 403.204163,830.453979 
	C405.043732,827.505737 406.047913,825.832214 407.113983,824.199158 
	C411.289764,817.802368 410.418854,815.455017 402.356934,812.241943 
	C396.439209,821.550781 390.389313,830.862854 384.647125,840.360962 
	C383.934052,841.540405 384.348267,844.050354 385.192841,845.299744 
	C385.778595,846.166199 388.163727,846.476990 389.462738,846.089661 
	C396.271393,844.059753 403.009338,841.784546 409.734894,839.486450 
	C417.864960,836.708252 418.706818,834.896118 415.963867,825.977905 
	C413.655121,826.840088 411.364441,827.695557 408.385925,828.874939 
M723.091003,715.091431 
	C722.913940,719.093262 725.076416,718.908997 727.875061,717.842224 
	C739.167297,713.537781 750.530884,709.414429 761.757874,704.947083 
	C768.847351,702.126099 768.764587,701.904175 766.003723,694.875244 
	C765.772583,694.286804 765.418152,693.746765 764.911316,692.787476 
	C762.817383,693.453491 760.772827,693.997498 758.806641,694.747131 
	C748.753845,698.579468 738.808044,702.717468 728.640442,706.212158 
	C724.359619,707.683350 721.939636,709.475403 723.091003,715.091431 
M929.326355,476.227905 
	C929.581482,481.357300 929.997131,486.484894 930.055542,491.616516 
	C930.152527,500.143646 930.055054,500.149933 938.298157,501.465179 
	C938.758301,501.538635 939.250305,501.412628 940.577881,501.320312 
	C941.563965,485.294037 939.878357,469.656494 935.860168,453.828064 
	C932.188904,454.830109 929.361694,455.601746 926.458130,456.394257 
	C927.392883,462.944763 928.277771,469.145599 929.326355,476.227905 
M549.297485,241.248108 
	C550.550903,243.115051 551.670959,246.488144 553.078613,246.612747 
	C565.282959,247.692886 577.542236,248.136169 589.777527,248.892807 
	C593.335083,249.112808 594.042053,247.245743 593.850403,244.306152 
	C593.665405,241.468338 594.778442,238.012817 589.834961,238.049454 
	C585.700928,238.080078 581.563416,237.651276 577.427551,237.423889 
	C567.874023,236.898605 558.320496,236.372086 548.401428,235.825928 
	C548.728516,237.903336 548.930298,239.184418 549.297485,241.248108 
M240.293839,332.790497 
	C245.605728,329.131287 250.877243,325.411377 256.247192,321.839478 
	C258.778381,320.155792 259.704956,318.489288 257.487885,315.826324 
	C256.360138,314.471832 255.652115,312.767914 254.166565,310.209717 
	C241.824203,319.121124 229.882324,327.743378 217.723618,336.522156 
	C218.873688,337.986023 219.405334,338.813232 220.080887,339.498596 
	C225.090942,344.581360 224.179825,345.340759 230.240234,340.408081 
	C233.317657,337.903290 236.525925,335.559235 240.293839,332.790497 
M716.763306,273.690826 
	C728.132751,277.640717 739.502136,281.590637 751.024292,285.593597 
	C751.606323,284.116882 751.985229,282.843964 752.586487,281.686554 
	C754.637695,277.738129 753.829590,275.468445 749.278503,274.050598 
	C742.631775,271.979858 736.209900,269.197510 729.643860,266.854095 
	C724.418152,264.989075 719.119995,263.326935 713.908752,261.592987 
	C710.927429,269.837952 711.301758,271.490112 716.763306,273.690826 
M584.596985,745.957947 
	C594.933228,745.024048 605.269409,744.090149 615.436096,743.171570 
	C616.147644,735.379333 614.801941,732.786438 610.278198,733.123474 
	C598.894226,733.971558 587.522339,735.006958 576.167053,736.174927 
	C575.101379,736.284546 573.572693,737.712280 573.303711,738.788940 
	C571.763489,744.954468 573.496948,746.806335 579.672302,746.108704 
	C580.988708,745.960083 582.328125,746.015869 584.596985,745.957947 
M647.291992,245.730728 
	C633.469421,243.632797 619.646912,241.534866 605.075012,239.323196 
	C605.863586,243.127609 606.078308,245.652023 606.975952,247.904236 
	C607.469055,249.141357 609.002686,250.595016 610.254944,250.799240 
	C621.034119,252.557114 631.850098,254.097595 642.675049,255.554581 
	C643.745361,255.698639 645.704041,255.122589 645.956604,254.417389 
	C646.912964,251.746765 647.336487,248.885284 647.291992,245.730728 
M501.870819,237.095612 
	C499.992950,237.446136 498.115112,237.796646 495.252594,238.330948 
	C498.123932,241.992538 496.982849,247.680206 502.849060,247.658051 
	C511.785156,247.624283 520.717651,247.025528 529.655151,246.870422 
	C539.609131,246.697662 539.614868,246.796158 537.666931,237.056549 
	C537.613342,236.788696 537.247253,236.583359 537.707642,237.073257 
	C525.608643,237.073257 514.198303,237.073257 501.870819,237.095612 
M697.462219,267.805115 
	C698.627747,265.145538 700.212463,262.558075 700.690430,259.780212 
	C700.824890,258.998260 697.845703,257.279999 696.062012,256.652954 
	C692.475525,255.392105 688.752136,254.488892 685.043823,253.613358 
	C677.221558,251.766464 669.372681,250.032394 661.621704,248.271790 
	C658.614929,256.860352 659.324097,258.660980 664.829529,259.906738 
	C675.490784,262.319122 686.078430,265.057068 697.462219,267.805115 
M404.106171,733.174561 
	C406.162506,733.672363 408.218811,734.170227 410.265106,734.665649 
	C412.927032,724.305054 413.203979,724.648926 403.565552,722.660950 
	C396.122650,721.125916 388.807037,718.970398 381.441254,717.065918 
	C371.829773,714.580811 373.575531,713.102234 370.241730,723.279785 
	C370.152069,723.553406 370.335846,723.916626 370.546265,725.119263 
	C381.223877,727.699524 392.254883,730.365234 404.106171,733.174561 
M281.254944,677.259277 
	C275.766541,674.496277 273.278168,675.561646 269.093201,682.946350 
	C279.206573,688.013367 289.256439,693.149597 299.398315,698.097229 
	C307.224304,701.915100 307.280487,701.811829 310.433929,693.911926 
	C310.606934,693.478516 310.591095,692.969727 310.684998,692.352905 
	C301.055939,687.439331 291.464325,682.544800 281.254944,677.259277 
M485.828125,247.462616 
	C484.116821,238.626251 484.114227,238.584930 475.529877,239.123383 
	C472.890442,239.288910 470.268463,239.740280 467.640167,240.074249 
	C459.512360,241.107010 451.385315,242.146286 443.162567,243.195206 
	C445.658386,252.804428 446.307098,253.266663 454.549988,252.077866 
	C455.370300,251.959564 456.215515,252.019455 457.038574,251.913849 
	C466.537079,250.695114 476.033539,249.460373 485.828125,247.462616 
M339.774994,703.834778 
	C336.688324,702.593262 333.633606,701.263672 330.508453,700.128113 
	C323.559753,697.603271 321.346588,698.958862 319.347443,707.322021 
	C331.799774,711.792114 344.310425,716.283142 357.294800,720.944275 
	C357.709503,718.539795 357.686798,717.498962 358.070526,716.639526 
	C360.314484,711.613403 358.063782,709.451721 353.300659,708.244141 
	C348.965729,707.145081 344.775909,705.473694 339.774994,703.834778 
M803.150818,672.631836 
	C797.198608,675.892212 791.310425,679.277161 785.278076,682.381958 
	C777.517639,686.376221 777.467834,686.279419 781.333496,695.443542 
	C793.665833,690.793823 804.901306,684.155090 815.868958,677.123596 
	C812.892517,668.204834 811.886780,667.753479 804.667236,671.792114 
	C804.378113,671.953796 804.074951,672.090332 803.150818,672.631836 
M900.655457,398.906036 
	C904.761169,404.927460 907.960144,405.622009 915.361572,401.486633 
	C907.424927,390.493042 899.551453,379.587036 891.525818,368.470276 
	C889.826660,369.973541 889.066284,370.609375 888.346924,371.288666 
	C883.233887,376.116699 883.459290,375.938904 887.911743,381.429810 
	C892.292358,386.832214 896.157043,392.653015 900.655457,398.906036 
M193.015839,617.248779 
	C191.722122,617.758484 190.428421,618.268127 188.032120,619.212158 
	C197.551727,628.128235 206.522339,636.213867 215.089798,644.706238 
	C218.638870,648.224182 220.239777,645.866211 222.710236,643.680420 
	C225.733749,641.005371 224.941376,639.192749 222.301636,636.907166 
	C216.286713,631.699280 209.938934,626.739624 204.705948,620.813965 
	C201.366074,617.032043 198.461182,615.370850 193.015839,617.248779 
M273.643188,299.193298 
	C270.404480,301.032684 267.165741,302.872040 263.940308,304.703857 
	C268.151886,312.109070 269.989685,313.067871 274.289490,310.774231 
	C281.293396,307.038177 288.306244,303.315765 295.379211,299.713043 
	C303.159821,295.749786 303.196991,295.808350 298.920715,288.211975 
	C298.697571,287.815613 298.239380,287.551605 297.383423,286.752441 
	C289.778656,290.744324 282.040833,294.806091 273.643188,299.193298 
M377.762543,257.261108 
	C368.165222,260.184052 358.567902,263.106995 349.004059,266.019714 
	C351.528503,275.061188 352.791809,275.732910 360.493652,273.266998 
	C364.429474,272.006836 368.453705,271.025513 372.410980,269.828888 
	C377.872559,268.177307 383.308624,266.441345 388.707672,264.756470 
	C386.142456,255.259842 385.683014,254.936676 377.762543,257.261108 
M538.628662,737.136353 
	C536.013123,736.814392 533.311951,735.941406 530.806885,736.330566 
	C528.454163,736.696045 526.203857,738.237061 524.137268,739.606201 
	C523.538879,740.002747 523.230164,742.191772 523.639832,742.530884 
	C525.995422,744.480652 528.527100,747.473267 531.145508,747.627441 
	C541.193726,748.219299 551.297485,747.867065 561.278564,747.867065 
	C561.925903,737.367004 561.568787,736.962830 553.093689,737.027527 
	C548.595276,737.061890 544.096802,737.095520 538.628662,737.136353 
M655.676941,726.146729 
	C647.864502,727.503967 640.075317,729.020142 632.231689,730.163574 
	C626.840820,730.949463 628.106201,734.773315 628.230042,738.047546 
	C628.365601,741.632996 631.087158,741.168396 633.365051,740.805847 
	C641.685120,739.481812 650.009033,738.158508 658.285767,736.592651 
	C666.833557,734.975647 666.813477,734.851440 664.803772,726.255432 
	C664.735107,725.961487 664.463318,725.715027 663.920410,724.891907 
	C661.631165,725.256104 659.080994,725.661743 655.676941,726.146729 
M796.150085,306.708344 
	C797.738708,304.056030 799.327393,301.403717 801.417603,297.914062 
	C790.006104,292.344513 779.070435,287.007172 767.838135,281.525055 
	C766.562134,284.084686 765.140991,285.922455 764.811951,287.938446 
	C764.578064,289.371277 765.369019,291.902924 766.467957,292.475616 
	C776.026978,297.457153 785.759094,302.106689 796.150085,306.708344 
M422.964417,799.497131 
	C425.916412,794.893677 428.745880,790.205811 431.847656,785.705627 
	C437.203644,777.934692 437.238800,777.655457 429.683289,770.048096 
	C422.907013,780.550537 416.174011,790.917297 409.572571,801.367188 
	C409.118134,802.086487 409.230286,803.802002 409.785095,804.414856 
	C412.885315,807.839111 417.829102,807.271912 420.325684,803.396545 
	C421.044067,802.281494 421.793671,801.186523 422.964417,799.497131 
M862.346069,354.134613 
	C865.570618,357.242828 868.767456,360.380432 872.026794,363.451660 
	C876.059143,367.251343 878.083862,362.315796 880.893372,361.108856 
	C881.131104,361.006683 880.671204,357.501953 879.639587,356.506439 
	C871.684448,348.830109 863.508179,341.383057 855.287048,333.759735 
	C853.890808,334.995880 852.958862,335.670288 852.210327,336.508484 
	C847.776428,341.473480 847.909668,341.876160 853.231628,346.127838 
	C856.204895,348.503174 858.913818,351.209320 862.346069,354.134613 
M820.546631,321.918488 
	C826.413879,325.865234 832.281189,329.811981 838.220703,333.807373 
	C839.145386,332.530457 839.745300,331.516418 840.521362,330.662567 
	C843.917175,326.926361 843.135254,324.216522 838.923279,321.621368 
	C832.137207,317.440186 825.427307,313.100983 818.965942,308.439484 
	C814.801819,305.435333 812.696594,306.040894 810.392944,310.657745 
	C808.879211,313.691589 809.092102,314.998077 811.913269,316.501099 
	C814.694031,317.982666 817.292664,319.806030 820.546631,321.918488 
M518.574890,760.943787 
	C521.682800,755.756775 516.669128,753.646606 515.130005,749.625488 
	C506.333771,759.177185 498.184753,768.026001 489.723328,777.214050 
	C492.313995,779.646240 494.641296,781.831238 497.275574,784.304382 
	C504.487793,776.385254 511.280396,768.926941 518.574890,760.943787 
M412.198120,259.678131 
	C418.510345,258.424316 424.836517,257.234131 431.121063,255.854172 
	C432.172791,255.623215 433.656128,254.738052 433.896698,253.867004 
	C435.239502,249.005371 431.650269,245.188019 426.765320,246.037506 
	C424.814575,246.376724 422.859924,246.705521 420.925323,247.123520 
	C412.946442,248.847412 404.974579,250.603745 396.928619,252.363770 
	C399.977295,261.443176 400.950867,262.014618 408.908569,260.137695 
	C409.709534,259.948761 410.550720,259.930298 412.198120,259.678131 
M257.914764,663.598816 
	C250.947571,658.860474 243.980362,654.122131 236.779282,649.224731 
	C234.003662,650.984131 231.144012,652.796814 227.413071,655.161804 
	C236.566345,661.472351 245.063324,667.156616 253.355957,673.124878 
	C257.186615,675.881836 259.654846,674.856873 261.793457,671.218323 
	C262.449615,670.101990 263.142761,669.007385 264.021729,667.571655 
	C262.049011,666.309570 260.271149,665.172241 257.914764,663.598816 
M463.927032,813.315613 
	C469.958862,808.361023 476.163513,803.599548 481.975586,798.399292 
	C488.198364,792.831421 488.045441,791.984924 481.968781,785.030579 
	C473.138916,792.412781 464.300446,799.802246 454.801117,807.744141 
	C457.764130,809.792847 460.536102,811.709473 463.927032,813.315613 
M170.250397,577.109985 
	C162.462784,580.073425 161.648163,581.717224 165.773285,588.220093 
	C169.853485,594.652222 174.310806,600.851440 178.748413,607.048401 
	C181.882675,611.425232 184.633255,607.627502 187.177475,606.136292 
	C188.045471,605.627686 188.765579,603.043518 188.253433,602.283020 
	C182.613342,593.907898 176.716599,585.705566 170.250397,577.109985 
M146.570038,436.006958 
	C145.145889,441.203918 149.946075,439.708160 152.058517,441.012054 
	C154.434433,442.478577 155.648834,440.996002 156.523743,438.868469 
	C159.111847,432.575043 161.764053,426.308044 164.384064,420.027710 
	C167.278412,413.089752 166.285782,410.659698 158.532486,406.905518 
	C154.631500,416.389557 150.742752,425.843872 146.570038,436.006958 
M710.035034,717.515137 
	C709.594116,716.140564 709.153198,714.765991 708.644470,713.180115 
	C700.916931,715.262512 693.595337,717.260681 686.259705,719.205627 
	C678.265991,721.324951 677.363892,722.988831 679.907410,731.840454 
	C689.289795,729.248352 698.666138,726.606567 708.074585,724.084351 
	C711.723389,723.106262 711.122253,720.808594 710.035034,717.515137 
M331.027649,272.568207 
	C324.430267,275.222900 317.812561,277.829346 311.258942,280.588104 
	C310.351379,280.970123 309.246735,282.028290 309.115936,282.905151 
	C308.650269,286.026093 314.454559,290.357788 317.496155,289.187958 
	C324.288788,286.575531 330.892761,283.378357 337.833191,281.276489 
	C342.758392,279.784912 341.899170,277.330353 340.776276,273.873383 
	C339.498199,269.938538 337.373352,269.413788 334.075348,271.442444 
	C333.388000,271.865234 332.523346,271.999786 331.027649,272.568207 
M840.517822,648.037354 
	C835.232849,651.788574 829.836975,655.398743 824.748474,659.399780 
	C823.612305,660.293091 822.766846,662.768799 823.135925,664.157593 
	C824.888733,670.752563 825.761414,670.947449 831.650696,667.153198 
	C832.209717,666.793091 832.859558,666.565002 833.391052,666.172546 
	C840.002991,661.291016 846.600891,656.390320 853.329407,651.400269 
	C850.557312,648.532654 848.405823,646.306946 846.107666,643.929565 
	C844.259644,645.260376 842.656799,646.414612 840.517822,648.037354 
M152.868744,564.698730 
	C153.489075,566.143982 154.109421,567.589233 155.049332,569.778992 
	C158.024704,566.513977 163.937027,566.432739 162.280273,560.996277 
	C160.015747,553.565491 157.038269,546.316589 153.877197,539.207275 
	C151.936737,534.843079 147.692337,537.737915 144.508087,537.246948 
	C144.409439,539.247009 143.694138,541.469055 144.320389,543.208069 
	C146.845490,550.219971 149.784698,557.082825 152.868744,564.698730 
M937.703979,524.079468 
	C938.131592,520.922607 938.559204,517.765747 939.006836,514.460815 
	C934.919312,514.460815 931.715759,514.460815 928.832092,514.460815 
	C927.159424,521.821472 925.828003,528.794373 923.953918,535.618225 
	C922.029907,542.624023 923.196716,544.807922 931.568787,546.659912 
	C933.512329,539.421265 935.466064,532.144775 937.703979,524.079468 
M916.853577,428.743988 
	C917.976624,431.497498 919.205872,434.213257 920.201416,437.012115 
	C922.509827,443.501770 925.922546,444.792419 933.292908,441.109528 
	C929.359253,432.110809 925.454773,423.035278 921.356934,414.047913 
	C920.986877,413.236237 919.195496,412.368683 918.365479,412.601410 
	C915.780151,413.326294 913.339783,414.567932 910.830383,415.614532 
	C912.974609,420.269714 914.764587,424.155792 916.853577,428.743988 
M149.419907,452.375854 
	C147.057892,451.105347 144.695877,449.834839 141.758636,448.254944 
	C140.054932,460.387115 138.512115,471.373474 136.943008,482.547180 
	C147.752029,481.488403 147.745193,481.487549 148.964798,471.829773 
	C149.109543,470.683502 149.519333,469.558594 149.565643,468.414062 
	C149.775223,463.233795 149.898407,458.050049 149.419907,452.375854 
M206.888779,361.388916 
	C210.038712,358.495911 213.188660,355.602875 216.386276,352.666077 
	C214.105255,349.203125 212.358017,346.550507 210.673889,343.993744 
	C202.824951,351.737976 195.555984,358.909973 188.172134,366.195312 
	C188.821030,366.955963 189.311142,367.608887 189.879547,368.184509 
	C194.723846,373.090149 195.474106,373.095032 200.128418,368.316772 
	C202.215271,366.174347 204.302765,364.032532 206.888779,361.388916 
M141.213776,494.181122 
	C139.623291,494.181122 138.032791,494.181122 135.801392,494.181122 
	C137.384247,504.891541 138.851456,514.819458 140.312119,524.703064 
	C148.410065,524.202332 150.476257,522.762634 149.856567,518.114319 
	C149.045944,512.033813 147.659439,506.001282 147.289261,499.901459 
	C147.055328,496.046875 145.470627,494.608521 141.213776,494.181122 
M174.474869,383.929749 
	C171.220657,388.626495 167.966461,393.323242 164.605804,398.173645 
	C166.043961,399.190247 166.903534,399.678192 167.620300,400.324524 
	C171.434845,403.763794 174.288132,403.468323 176.927567,398.706451 
	C179.157288,394.683807 182.171951,391.101929 184.753647,387.267365 
	C188.692841,381.416473 187.953094,378.428375 181.232391,373.999512 
	C179.116226,377.099457 176.991806,380.211487 174.474869,383.929749 
M898.517151,606.043152 
	C901.304932,602.382874 904.092651,598.722595 907.128174,594.737000 
	C905.389832,593.122498 903.893860,591.623291 902.280762,590.262939 
	C900.302124,588.594177 898.502686,588.622864 896.831482,590.889771 
	C892.343628,596.977356 887.766602,602.999207 883.097839,609.216553 
	C885.033752,611.867310 886.913940,614.441772 889.227356,617.609436 
	C892.532166,613.530090 895.323792,610.084229 898.517151,606.043152 
M907.226135,574.865173 
	C908.838135,578.022705 910.450073,581.180298 912.062073,584.337830 
	C912.738403,584.284546 913.414673,584.231262 914.090942,584.177979 
	C918.489136,575.562439 922.887268,566.946899 927.543335,557.826172 
	C923.937561,556.324341 920.982605,555.093628 917.815552,553.774475 
	C914.247864,560.898254 910.916687,567.549683 907.226135,574.865173 
M870.880676,636.404968 
	C874.852844,632.979858 878.825012,629.554749 882.911255,626.031250 
	C880.524963,623.859192 879.397400,623.093445 878.608093,622.067444 
	C875.774902,618.384460 873.408508,618.637146 870.357361,622.121094 
	C867.322998,625.586060 863.606262,628.456360 860.166199,631.562500 
	C854.955750,636.267090 854.922363,636.533447 859.360779,641.887634 
	C859.972229,642.625244 860.640930,643.315430 861.540833,644.313477 
	C864.606140,641.740967 867.490356,639.320374 870.880676,636.404968 
M444.942566,812.660950 
	C438.330078,815.926147 431.717590,819.191345 424.799133,822.607605 
	C427.079041,825.570190 429.041290,828.119995 431.127899,830.831421 
	C435.601868,828.777771 439.994019,826.869019 444.290405,824.764832 
	C451.019104,821.469299 451.321411,818.282227 444.942566,812.660950 
z"/>
<path fill="#FFFCFA" opacity="1.000000" stroke="none" 
	d="
M447.214417,730.932434 
	C452.206970,731.701355 456.760803,732.468811 461.336517,733.069336 
	C464.728638,733.514465 465.857697,734.653015 463.653595,737.891113 
	C457.776337,746.525635 452.089600,755.289673 446.243317,763.945557 
	C444.521881,766.494202 437.094452,766.394897 435.608704,763.733032 
	C435.163574,762.935608 435.703461,761.233582 436.306091,760.266113 
	C439.286438,755.480957 442.464600,750.819519 445.512787,746.075684 
	C446.264709,744.905518 446.791321,743.590515 447.812012,741.568604 
	C441.524414,740.565308 436.044373,739.714722 430.572906,738.812317 
	C422.016144,737.400940 421.803101,737.010254 424.812164,728.674377 
	C424.920959,728.372925 425.163818,728.119934 425.656403,727.367310 
	C432.544312,728.505676 439.664673,729.682495 447.214417,730.932434 
z"/>
<path fill="#FFFCFA" opacity="1.000000" stroke="none" 
	d="
M408.729858,828.712952 
	C411.364441,827.695557 413.655121,826.840088 415.963867,825.977905 
	C418.706818,834.896118 417.864960,836.708252 409.734894,839.486450 
	C403.009338,841.784546 396.271393,844.059753 389.462738,846.089661 
	C388.163727,846.476990 385.778595,846.166199 385.192841,845.299744 
	C384.348267,844.050354 383.934052,841.540405 384.647125,840.360962 
	C390.389313,830.862854 396.439209,821.550781 402.356934,812.241943 
	C410.418854,815.455017 411.289764,817.802368 407.113983,824.199158 
	C406.047913,825.832214 405.043732,827.505737 403.204163,830.453979 
	C405.819916,829.656860 407.102936,829.265930 408.729858,828.712952 
z"/>
<path fill="#FFFCFA" opacity="1.000000" stroke="none" 
	d="
M723.083618,714.666504 
	C721.939636,709.475403 724.359619,707.683350 728.640442,706.212158 
	C738.808044,702.717468 748.753845,698.579468 758.806641,694.747131 
	C760.772827,693.997498 762.817383,693.453491 764.911316,692.787476 
	C765.418152,693.746765 765.772583,694.286804 766.003723,694.875244 
	C768.764587,701.904175 768.847351,702.126099 761.757874,704.947083 
	C750.530884,709.414429 739.167297,713.537781 727.875061,717.842224 
	C725.076416,718.908997 722.913940,719.093262 723.083618,714.666504 
z"/>
<path fill="#FFFCFA" opacity="1.000000" stroke="none" 
	d="
M929.244507,475.787170 
	C928.277771,469.145599 927.392883,462.944763 926.458130,456.394257 
	C929.361694,455.601746 932.188904,454.830109 935.860168,453.828064 
	C939.878357,469.656494 941.563965,485.294037 940.577881,501.320312 
	C939.250305,501.412628 938.758301,501.538635 938.298157,501.465179 
	C930.055054,500.149933 930.152527,500.143646 930.055542,491.616516 
	C929.997131,486.484894 929.581482,481.357300 929.244507,475.787170 
z"/>
<path fill="#FFFCFA" opacity="1.000000" stroke="none" 
	d="
M549.214722,240.856796 
	C548.930298,239.184418 548.728516,237.903336 548.401428,235.825928 
	C558.320496,236.372086 567.874023,236.898605 577.427551,237.423889 
	C581.563416,237.651276 585.700928,238.080078 589.834961,238.049454 
	C594.778442,238.012817 593.665405,241.468338 593.850403,244.306152 
	C594.042053,247.245743 593.335083,249.112808 589.777527,248.892807 
	C577.542236,248.136169 565.282959,247.692886 553.078613,246.612747 
	C551.670959,246.488144 550.550903,243.115051 549.214722,240.856796 
z"/>
<path fill="#FFFCFA" opacity="1.000000" stroke="none" 
	d="
M239.984451,332.966492 
	C236.525925,335.559235 233.317657,337.903290 230.240234,340.408081 
	C224.179825,345.340759 225.090942,344.581360 220.080887,339.498596 
	C219.405334,338.813232 218.873688,337.986023 217.723618,336.522156 
	C229.882324,327.743378 241.824203,319.121124 254.166565,310.209717 
	C255.652115,312.767914 256.360138,314.471832 257.487885,315.826324 
	C259.704956,318.489288 258.778381,320.155792 256.247192,321.839478 
	C250.877243,325.411377 245.605728,329.131287 239.984451,332.966492 
z"/>
<path fill="#FFFCFA" opacity="1.000000" stroke="none" 
	d="
M716.394775,273.541656 
	C711.301758,271.490112 710.927429,269.837952 713.908752,261.592987 
	C719.119995,263.326935 724.418152,264.989075 729.643860,266.854095 
	C736.209900,269.197510 742.631775,271.979858 749.278503,274.050598 
	C753.829590,275.468445 754.637695,277.738129 752.586487,281.686554 
	C751.985229,282.843964 751.606323,284.116882 751.024292,285.593597 
	C739.502136,281.590637 728.132751,277.640717 716.394775,273.541656 
z"/>
<path fill="#FFFDFA" opacity="1.000000" stroke="none" 
	d="
M584.126953,745.967651 
	C582.328125,746.015869 580.988708,745.960083 579.672302,746.108704 
	C573.496948,746.806335 571.763489,744.954468 573.303711,738.788940 
	C573.572693,737.712280 575.101379,736.284546 576.167053,736.174927 
	C587.522339,735.006958 598.894226,733.971558 610.278198,733.123474 
	C614.801941,732.786438 616.147644,735.379333 615.436096,743.171570 
	C605.269409,744.090149 594.933228,745.024048 584.126953,745.967651 
z"/>
<path fill="#FFFCFA" opacity="1.000000" stroke="none" 
	d="
M647.625671,245.912964 
	C647.336487,248.885284 646.912964,251.746765 645.956604,254.417389 
	C645.704041,255.122589 643.745361,255.698639 642.675049,255.554581 
	C631.850098,254.097595 621.034119,252.557114 610.254944,250.799240 
	C609.002686,250.595016 607.469055,249.141357 606.975952,247.904236 
	C606.078308,245.652023 605.863586,243.127609 605.075012,239.323196 
	C619.646912,241.534866 633.469421,243.632797 647.625671,245.912964 
z"/>
<path fill="#FFFDFA" opacity="1.000000" stroke="none" 
	d="
M502.329346,237.084442 
	C514.198303,237.073257 525.608643,237.073257 537.707642,237.073257 
	C537.247253,236.583359 537.613342,236.788696 537.666931,237.056549 
	C539.614868,246.796158 539.609131,246.697662 529.655151,246.870422 
	C520.717651,247.025528 511.785156,247.624283 502.849060,247.658051 
	C496.982849,247.680206 498.123932,241.992538 495.252594,238.330948 
	C498.115112,237.796646 499.992950,237.446136 502.329346,237.084442 
z"/>
<path fill="#FFFCFA" opacity="1.000000" stroke="none" 
	d="
M697.079346,267.732605 
	C686.078430,265.057068 675.490784,262.319122 664.829529,259.906738 
	C659.324097,258.660980 658.614929,256.860352 661.621704,248.271790 
	C669.372681,250.032394 677.221558,251.766464 685.043823,253.613358 
	C688.752136,254.488892 692.475525,255.392105 696.062012,256.652954 
	C697.845703,257.279999 700.824890,258.998260 700.690430,259.780212 
	C700.212463,262.558075 698.627747,265.145538 697.079346,267.732605 
z"/>
<path fill="#FFFCFA" opacity="1.000000" stroke="none" 
	d="
M403.696014,733.102722 
	C392.254883,730.365234 381.223877,727.699524 370.546265,725.119263 
	C370.335846,723.916626 370.152069,723.553406 370.241730,723.279785 
	C373.575531,713.102234 371.829773,714.580811 381.441254,717.065918 
	C388.807037,718.970398 396.122650,721.125916 403.565552,722.660950 
	C413.203979,724.648926 412.927032,724.305054 410.265106,734.665649 
	C408.218811,734.170227 406.162506,733.672363 403.696014,733.102722 
z"/>
<path fill="#FFFCF9" opacity="1.000000" stroke="none" 
	d="
M281.563843,677.454834 
	C291.464325,682.544800 301.055939,687.439331 310.684998,692.352905 
	C310.591095,692.969727 310.606934,693.478516 310.433929,693.911926 
	C307.280487,701.811829 307.224304,701.915100 299.398315,698.097229 
	C289.256439,693.149597 279.206573,688.013367 269.093201,682.946350 
	C273.278168,675.561646 275.766541,674.496277 281.563843,677.454834 
z"/>
<path fill="#FFFCF9" opacity="1.000000" stroke="none" 
	d="
M485.679321,247.846252 
	C476.033539,249.460373 466.537079,250.695114 457.038574,251.913849 
	C456.215515,252.019455 455.370300,251.959564 454.549988,252.077866 
	C446.307098,253.266663 445.658386,252.804428 443.162567,243.195206 
	C451.385315,242.146286 459.512360,241.107010 467.640167,240.074249 
	C470.268463,239.740280 472.890442,239.288910 475.529877,239.123383 
	C484.114227,238.584930 484.116821,238.626251 485.679321,247.846252 
z"/>
<path fill="#FFFCF9" opacity="1.000000" stroke="none" 
	d="
M340.148560,703.944702 
	C344.775909,705.473694 348.965729,707.145081 353.300659,708.244141 
	C358.063782,709.451721 360.314484,711.613403 358.070526,716.639526 
	C357.686798,717.498962 357.709503,718.539795 357.294800,720.944275 
	C344.310425,716.283142 331.799774,711.792114 319.347443,707.322021 
	C321.346588,698.958862 323.559753,697.603271 330.508453,700.128113 
	C333.633606,701.263672 336.688324,702.593262 340.148560,703.944702 
z"/>
<path fill="#FFFCF9" opacity="1.000000" stroke="none" 
	d="
M803.464600,672.435242 
	C804.074951,672.090332 804.378113,671.953796 804.667236,671.792114 
	C811.886780,667.753479 812.892517,668.204834 815.868958,677.123596 
	C804.901306,684.155090 793.665833,690.793823 781.333496,695.443542 
	C777.467834,686.279419 777.517639,686.376221 785.278076,682.381958 
	C791.310425,679.277161 797.198608,675.892212 803.464600,672.435242 
z"/>
<path fill="#FFFCF9" opacity="1.000000" stroke="none" 
	d="
M900.451782,398.598114 
	C896.157043,392.653015 892.292358,386.832214 887.911743,381.429810 
	C883.459290,375.938904 883.233887,376.116699 888.346924,371.288666 
	C889.066284,370.609375 889.826660,369.973541 891.525818,368.470276 
	C899.551453,379.587036 907.424927,390.493042 915.361572,401.486633 
	C907.960144,405.622009 904.761169,404.927460 900.451782,398.598114 
z"/>
<path fill="#FFFCFA" opacity="1.000000" stroke="none" 
	d="
M193.405457,617.185730 
	C198.461182,615.370850 201.366074,617.032043 204.705948,620.813965 
	C209.938934,626.739624 216.286713,631.699280 222.301636,636.907166 
	C224.941376,639.192749 225.733749,641.005371 222.710236,643.680420 
	C220.239777,645.866211 218.638870,648.224182 215.089798,644.706238 
	C206.522339,636.213867 197.551727,628.128235 188.032120,619.212158 
	C190.428421,618.268127 191.722122,617.758484 193.405457,617.185730 
z"/>
<path fill="#FFFDFA" opacity="1.000000" stroke="none" 
	d="
M273.973083,299.030579 
	C282.040833,294.806091 289.778656,290.744324 297.383423,286.752441 
	C298.239380,287.551605 298.697571,287.815613 298.920715,288.211975 
	C303.196991,295.808350 303.159821,295.749786 295.379211,299.713043 
	C288.306244,303.315765 281.293396,307.038177 274.289490,310.774231 
	C269.989685,313.067871 268.151886,312.109070 263.940308,304.703857 
	C267.165741,302.872040 270.404480,301.032684 273.973083,299.030579 
z"/>
<path fill="#FFFDFA" opacity="1.000000" stroke="none" 
	d="
M378.162109,257.156708 
	C385.683014,254.936676 386.142456,255.259842 388.707672,264.756470 
	C383.308624,266.441345 377.872559,268.177307 372.410980,269.828888 
	C368.453705,271.025513 364.429474,272.006836 360.493652,273.266998 
	C352.791809,275.732910 351.528503,275.061188 349.004059,266.019714 
	C358.567902,263.106995 368.165222,260.184052 378.162109,257.156708 
z"/>
<path fill="#FFFCF9" opacity="1.000000" stroke="none" 
	d="
M539.113525,737.132935 
	C544.096802,737.095520 548.595276,737.061890 553.093689,737.027527 
	C561.568787,736.962830 561.925903,737.367004 561.278564,747.867065 
	C551.297485,747.867065 541.193726,748.219299 531.145508,747.627441 
	C528.527100,747.473267 525.995422,744.480652 523.639832,742.530884 
	C523.230164,742.191772 523.538879,740.002747 524.137268,739.606201 
	C526.203857,738.237061 528.454163,736.696045 530.806885,736.330566 
	C533.311951,735.941406 536.013123,736.814392 539.113525,737.132935 
z"/>
<path fill="#FFFCFA" opacity="1.000000" stroke="none" 
	d="
M656.103882,726.107056 
	C659.080994,725.661743 661.631165,725.256104 663.920410,724.891907 
	C664.463318,725.715027 664.735107,725.961487 664.803772,726.255432 
	C666.813477,734.851440 666.833557,734.975647 658.285767,736.592651 
	C650.009033,738.158508 641.685120,739.481812 633.365051,740.805847 
	C631.087158,741.168396 628.365601,741.632996 628.230042,738.047546 
	C628.106201,734.773315 626.840820,730.949463 632.231689,730.163574 
	C640.075317,729.020142 647.864502,727.503967 656.103882,726.107056 
z"/>
<path fill="#FFFCF9" opacity="1.000000" stroke="none" 
	d="
M795.794922,306.781616 
	C785.759094,302.106689 776.026978,297.457153 766.467957,292.475616 
	C765.369019,291.902924 764.578064,289.371277 764.811951,287.938446 
	C765.140991,285.922455 766.562134,284.084686 767.838135,281.525055 
	C779.070435,287.007172 790.006104,292.344513 801.417603,297.914062 
	C799.327393,301.403717 797.738708,304.056030 795.794922,306.781616 
z"/>
<path fill="#FFFCFA" opacity="1.000000" stroke="none" 
	d="
M422.746704,799.789734 
	C421.793671,801.186523 421.044067,802.281494 420.325684,803.396545 
	C417.829102,807.271912 412.885315,807.839111 409.785095,804.414856 
	C409.230286,803.802002 409.118134,802.086487 409.572571,801.367188 
	C416.174011,790.917297 422.907013,780.550537 429.683289,770.048096 
	C437.238800,777.655457 437.203644,777.934692 431.847656,785.705627 
	C428.745880,790.205811 425.916412,794.893677 422.746704,799.789734 
z"/>
<path fill="#FFFDFA" opacity="1.000000" stroke="none" 
	d="
M862.043945,353.950500 
	C858.913818,351.209320 856.204895,348.503174 853.231628,346.127838 
	C847.909668,341.876160 847.776428,341.473480 852.210327,336.508484 
	C852.958862,335.670288 853.890808,334.995880 855.287048,333.759735 
	C863.508179,341.383057 871.684448,348.830109 879.639587,356.506439 
	C880.671204,357.501953 881.131104,361.006683 880.893372,361.108856 
	C878.083862,362.315796 876.059143,367.251343 872.026794,363.451660 
	C868.767456,360.380432 865.570618,357.242828 862.043945,353.950500 
z"/>
<path fill="#FFFDFA" opacity="1.000000" stroke="none" 
	d="
M820.258911,321.698975 
	C817.292664,319.806030 814.694031,317.982666 811.913269,316.501099 
	C809.092102,314.998077 808.879211,313.691589 810.392944,310.657745 
	C812.696594,306.040894 814.801819,305.435333 818.965942,308.439484 
	C825.427307,313.100983 832.137207,317.440186 838.923279,321.621368 
	C843.135254,324.216522 843.917175,326.926361 840.521362,330.662567 
	C839.745300,331.516418 839.145386,332.530457 838.220703,333.807373 
	C832.281189,329.811981 826.413879,325.865234 820.258911,321.698975 
z"/>
<path fill="#FFFDFA" opacity="1.000000" stroke="none" 
	d="
M518.323975,761.206177 
	C511.280396,768.926941 504.487793,776.385254 497.275574,784.304382 
	C494.641296,781.831238 492.313995,779.646240 489.723328,777.214050 
	C498.184753,768.026001 506.333771,759.177185 515.130005,749.625488 
	C516.669128,753.646606 521.682800,755.756775 518.323975,761.206177 
z"/>
<path fill="#FFFCF9" opacity="1.000000" stroke="none" 
	d="
M411.785675,259.755432 
	C410.550720,259.930298 409.709534,259.948761 408.908569,260.137695 
	C400.950867,262.014618 399.977295,261.443176 396.928619,252.363770 
	C404.974579,250.603745 412.946442,248.847412 420.925323,247.123520 
	C422.859924,246.705521 424.814575,246.376724 426.765320,246.037506 
	C431.650269,245.188019 435.239502,249.005371 433.896698,253.867004 
	C433.656128,254.738052 432.172791,255.623215 431.121063,255.854172 
	C424.836517,257.234131 418.510345,258.424316 411.785675,259.755432 
z"/>
<path fill="#FFFCFA" opacity="1.000000" stroke="none" 
	d="
M258.204041,663.816833 
	C260.271149,665.172241 262.049011,666.309570 264.021729,667.571655 
	C263.142761,669.007385 262.449615,670.101990 261.793457,671.218323 
	C259.654846,674.856873 257.186615,675.881836 253.355957,673.124878 
	C245.063324,667.156616 236.566345,661.472351 227.413071,655.161804 
	C231.144012,652.796814 234.003662,650.984131 236.779282,649.224731 
	C243.980362,654.122131 250.947571,658.860474 258.204041,663.816833 
z"/>
<path fill="#FFFCFA" opacity="1.000000" stroke="none" 
	d="
M463.617554,813.470825 
	C460.536102,811.709473 457.764130,809.792847 454.801117,807.744141 
	C464.300446,799.802246 473.138916,792.412781 481.968781,785.030579 
	C488.045441,791.984924 488.198364,792.831421 481.975586,798.399292 
	C476.163513,803.599548 469.958862,808.361023 463.617554,813.470825 
z"/>
<path fill="#FFFCFA" opacity="1.000000" stroke="none" 
	d="
M170.569916,577.283203 
	C176.716599,585.705566 182.613342,593.907898 188.253433,602.283020 
	C188.765579,603.043518 188.045471,605.627686 187.177475,606.136292 
	C184.633255,607.627502 181.882675,611.425232 178.748413,607.048401 
	C174.310806,600.851440 169.853485,594.652222 165.773285,588.220093 
	C161.648163,581.717224 162.462784,580.073425 170.569916,577.283203 
z"/>
<path fill="#FFFDFA" opacity="1.000000" stroke="none" 
	d="
M146.712021,435.652557 
	C150.742752,425.843872 154.631500,416.389557 158.532486,406.905518 
	C166.285782,410.659698 167.278412,413.089752 164.384064,420.027710 
	C161.764053,426.308044 159.111847,432.575043 156.523743,438.868469 
	C155.648834,440.996002 154.434433,442.478577 152.058517,441.012054 
	C149.946075,439.708160 145.145889,441.203918 146.712021,435.652557 
z"/>
<path fill="#FFFCFA" opacity="1.000000" stroke="none" 
	d="
M710.114990,717.897461 
	C711.122253,720.808594 711.723389,723.106262 708.074585,724.084351 
	C698.666138,726.606567 689.289795,729.248352 679.907410,731.840454 
	C677.363892,722.988831 678.265991,721.324951 686.259705,719.205627 
	C693.595337,717.260681 700.916931,715.262512 708.644470,713.180115 
	C709.153198,714.765991 709.594116,716.140564 710.114990,717.897461 
z"/>
<path fill="#FFFCF9" opacity="1.000000" stroke="none" 
	d="
M331.384033,272.417664 
	C332.523346,271.999786 333.388000,271.865234 334.075348,271.442444 
	C337.373352,269.413788 339.498199,269.938538 340.776276,273.873383 
	C341.899170,277.330353 342.758392,279.784912 337.833191,281.276489 
	C330.892761,283.378357 324.288788,286.575531 317.496155,289.187958 
	C314.454559,290.357788 308.650269,286.026093 309.115936,282.905151 
	C309.246735,282.028290 310.351379,280.970123 311.258942,280.588104 
	C317.812561,277.829346 324.430267,275.222900 331.384033,272.417664 
z"/>
<path fill="#FFFCF9" opacity="1.000000" stroke="none" 
	d="
M840.785889,647.803101 
	C842.656799,646.414612 844.259644,645.260376 846.107666,643.929565 
	C848.405823,646.306946 850.557312,648.532654 853.329407,651.400269 
	C846.600891,656.390320 840.002991,661.291016 833.391052,666.172546 
	C832.859558,666.565002 832.209717,666.793091 831.650696,667.153198 
	C825.761414,670.947449 824.888733,670.752563 823.135925,664.157593 
	C822.766846,662.768799 823.612305,660.293091 824.748474,659.399780 
	C829.836975,655.398743 835.232849,651.788574 840.785889,647.803101 
z"/>
<path fill="#FFFCF9" opacity="1.000000" stroke="none" 
	d="
M152.719849,564.349731 
	C149.784698,557.082825 146.845490,550.219971 144.320389,543.208069 
	C143.694138,541.469055 144.409439,539.247009 144.508087,537.246948 
	C147.692337,537.737915 151.936737,534.843079 153.877197,539.207275 
	C157.038269,546.316589 160.015747,553.565491 162.280273,560.996277 
	C163.937027,566.432739 158.024704,566.513977 155.049332,569.778992 
	C154.109421,567.589233 153.489075,566.143982 152.719849,564.349731 
z"/>
<path fill="#FFFCF9" opacity="1.000000" stroke="none" 
	d="
M937.561890,524.473877 
	C935.466064,532.144775 933.512329,539.421265 931.568787,546.659912 
	C923.196716,544.807922 922.029907,542.624023 923.953918,535.618225 
	C925.828003,528.794373 927.159424,521.821472 928.832092,514.460815 
	C931.715759,514.460815 934.919312,514.460815 939.006836,514.460815 
	C938.559204,517.765747 938.131592,520.922607 937.561890,524.473877 
z"/>
<path fill="#FFFCF9" opacity="1.000000" stroke="none" 
	d="
M916.704102,428.392944 
	C914.764587,424.155792 912.974609,420.269714 910.830383,415.614532 
	C913.339783,414.567932 915.780151,413.326294 918.365479,412.601410 
	C919.195496,412.368683 920.986877,413.236237 921.356934,414.047913 
	C925.454773,423.035278 929.359253,432.110809 933.292908,441.109528 
	C925.922546,444.792419 922.509827,443.501770 920.201416,437.012115 
	C919.205872,434.213257 917.976624,431.497498 916.704102,428.392944 
z"/>
<path fill="#FFFCF9" opacity="1.000000" stroke="none" 
	d="
M149.736298,452.621704 
	C149.898407,458.050049 149.775223,463.233795 149.565643,468.414062 
	C149.519333,469.558594 149.109543,470.683502 148.964798,471.829773 
	C147.745193,481.487549 147.752029,481.488403 136.943008,482.547180 
	C138.512115,471.373474 140.054932,460.387115 141.758636,448.254944 
	C144.695877,449.834839 147.057892,451.105347 149.736298,452.621704 
z"/>
<path fill="#FFFCFA" opacity="1.000000" stroke="none" 
	d="
M206.639374,361.639679 
	C204.302765,364.032532 202.215271,366.174347 200.128418,368.316772 
	C195.474106,373.095032 194.723846,373.090149 189.879547,368.184509 
	C189.311142,367.608887 188.821030,366.955963 188.172134,366.195312 
	C195.555984,358.909973 202.824951,351.737976 210.673889,343.993744 
	C212.358017,346.550507 214.105255,349.203125 216.386276,352.666077 
	C213.188660,355.602875 210.038712,358.495911 206.639374,361.639679 
z"/>
<path fill="#FFFCFA" opacity="1.000000" stroke="none" 
	d="
M141.632614,494.242188 
	C145.470627,494.608521 147.055328,496.046875 147.289261,499.901459 
	C147.659439,506.001282 149.045944,512.033813 149.856567,518.114319 
	C150.476257,522.762634 148.410065,524.202332 140.312119,524.703064 
	C138.851456,514.819458 137.384247,504.891541 135.801392,494.181122 
	C138.032791,494.181122 139.623291,494.181122 141.632614,494.242188 
z"/>
<path fill="#FFFCF9" opacity="1.000000" stroke="none" 
	d="
M174.671127,383.626648 
	C176.991806,380.211487 179.116226,377.099457 181.232391,373.999512 
	C187.953094,378.428375 188.692841,381.416473 184.753647,387.267365 
	C182.171951,391.101929 179.157288,394.683807 176.927567,398.706451 
	C174.288132,403.468323 171.434845,403.763794 167.620300,400.324524 
	C166.903534,399.678192 166.043961,399.190247 164.605804,398.173645 
	C167.966461,393.323242 171.220657,388.626495 174.671127,383.626648 
z"/>
<path fill="#FFFCF9" opacity="1.000000" stroke="none" 
	d="
M898.316284,606.340698 
	C895.323792,610.084229 892.532166,613.530090 889.227356,617.609436 
	C886.913940,614.441772 885.033752,611.867310 883.097839,609.216553 
	C887.766602,602.999207 892.343628,596.977356 896.831482,590.889771 
	C898.502686,588.622864 900.302124,588.594177 902.280762,590.262939 
	C903.893860,591.623291 905.389832,593.122498 907.128174,594.737000 
	C904.092651,598.722595 901.304932,602.382874 898.316284,606.340698 
z"/>
<path fill="#FFFCFA" opacity="1.000000" stroke="none" 
	d="
M907.405884,574.533142 
	C910.916687,567.549683 914.247864,560.898254 917.815552,553.774475 
	C920.982605,555.093628 923.937561,556.324341 927.543335,557.826172 
	C922.887268,566.946899 918.489136,575.562439 914.090942,584.177979 
	C913.414673,584.231262 912.738403,584.284546 912.062073,584.337830 
	C910.450073,581.180298 908.838135,578.022705 907.405884,574.533142 
z"/>
<path fill="#FFFCF9" opacity="1.000000" stroke="none" 
	d="
M870.627625,636.652405 
	C867.490356,639.320374 864.606140,641.740967 861.540833,644.313477 
	C860.640930,643.315430 859.972229,642.625244 859.360779,641.887634 
	C854.922363,636.533447 854.955750,636.267090 860.166199,631.562500 
	C863.606262,628.456360 867.322998,625.586060 870.357361,622.121094 
	C873.408508,618.637146 875.774902,618.384460 878.608093,622.067444 
	C879.397400,623.093445 880.524963,623.859192 882.911255,626.031250 
	C878.825012,629.554749 874.852844,632.979858 870.627625,636.652405 
z"/>
<path fill="#FFFCFA" opacity="1.000000" stroke="none" 
	d="
M445.272614,812.538818 
	C451.321411,818.282227 451.019104,821.469299 444.290405,824.764832 
	C439.994019,826.869019 435.601868,828.777771 431.127899,830.831421 
	C429.041290,828.119995 427.079041,825.570190 424.799133,822.607605 
	C431.717590,819.191345 438.330078,815.926147 445.272614,812.538818 
z"/>
</svg>