<?xml version="1.0" encoding="UTF-8" standalone="no"?>
<!DOCTYPE svg PUBLIC "-//W3C//DTD SVG 20010904//EN" "http://www.w3.org/TR/2001/REC-SVG-20010904/DTD/svg10.dtd">
<svg version="1.0" xmlns="http://www.w3.org/2000/svg" width="1280.000000pt" height="640.000000pt" viewBox="0 0 1280.000000 640.000000" preserveAspectRatio="xMidYMid meet">
<metadata>
Created by potrace 1.15, written by Peter Selinger 2001-2017
</metadata>
<g transform="translate(0.000000,640.000000) scale(0.100000,-0.100000)" fill="#000000" stroke="none">
<path d="M2650 4291 c-115 -41 -165 -163 -125 -310 19 -72 48 -110 129 -172 89 -67 131 -109 199 -202 75 -101 105 -162 118 -236 14 -79 47 -121 94 -121 42 0 72 36 104 125 62 166 26 418 -90 647 -115 223 -275 323 -429 269z"/>
<path d="M9274 4270 c-123 -25 -263 -131 -393 -298 -61 -79 -146 -257 -166 -347 -23 -100 -17 -256 10 -302 47 -80 118 -59 178 52 47 86 61 101 167 179 116 86 158 108 278 150 126 44 155 60 187 106 122 177 89 361 -80 439 -49 22 -126 31 -181 21z"/>
<path d="M4168 4095 c-197 -50 -336 -201 -370 -401 -32 -189 67 -369 239 -434 46 -18 90 -24 213 -30 209 -10 313 -46 413 -139 123 -113 162 -307 93 -458 -35 -77 -118 -158 -207 -203 -130 -66 -514 -148 -736 -157 -218 -9 -330 11 -603 106 -211 74 -360 93 -695 89 -255 -3 -288 0 -439 48 -162 51 -236 99 -420 267 -351 322 -586 458 -821 474 -107 7 -174 -6 -262 -49 -113 -55 -173 -146 -181 -274 -11 -178 71 -263 292 -299 118 -19 143 -28 178 -62 71 -68 25 -189 -89 -234 -15 -6 -83 -15 -151 -20 -138 -10 -243 -29 -352 -66 -140 -46 -270 -121 -270 -155 0 -8 948 -10 3653 -5 2008 4 4887 7 6396 7 1509 0 2742 2 2739 5 -2 3 -78 27 -169 54 -192 58 -300 102 -577 240 -357 176 -498 220 -700 221 -137 0 -233 -18 -368 -71 -145 -57 -200 -54 -272 14 -33 32 -64 109 -57 144 2 10 6 30 10 45 7 36 59 95 104 117 37 19 70 27 261 62 147 26 222 51 287 96 92 62 133 146 154 315 28 230 -68 406 -280 517 -136 71 -234 95 -386 94 -179 0 -339 -41 -540 -138 -275 -133 -548 -336 -928 -692 -274 -257 -401 -359 -589 -472 -394 -237 -874 -346 -1137 -257 -39 13 -127 58 -196 101 -228 140 -305 160 -595 159 -150 0 -248 -6 -365 -22 -189 -26 -286 -27 -413 -7 -339 55 -562 236 -810 655 -47 80 -121 206 -165 280 -184 312 -332 459 -527 522 -85 27 -278 34 -362 13z"/>
<path d="M8060 4053 c-58 -30 -128 -112 -173 -203 -40 -81 -42 -89 -42 -177 0 -83 2 -95 23 -115 29 -30 48 -19 85 51 35 64 126 141 212 180 69 31 92 58 106 122 12 51 -1 96 -36 129 -34 32 -125 38 -175 13z"/>
<path d="M5655 4026 c-125 -58 -193 -208 -182 -401 17 -294 171 -596 349 -685 72 -35 106 -38 142 -9 36 28 36 96 1 158 -46 80 -57 140 -59 320 -1 141 3 181 22 265 27 116 21 167 -28 253 -34 60 -78 96 -135 112 -53 14 -52 14 -110 -13z"/>
<path d="M354 3987 c-16 -8 -47 -34 -67 -58 -32 -36 -37 -50 -37 -91 0 -112 79 -175 198 -156 98 16 232 -15 294 -67 54 -46 102 -26 100 41 -6 151 -211 330 -390 341 -44 2 -78 -1 -98 -10z"/>
<path d="M12319 3960 c-125 -31 -260 -140 -292 -234 -22 -66 -21 -92 4 -110 24 -17 41 -12 86 21 46 35 166 54 250 41 77 -12 109 -2 153 49 24 27 30 43 30 80 0 110 -111 183 -231 153z"/>
<path d="M1582 3937 c-52 -20 -103 -66 -124 -115 -38 -86 -7 -234 64 -299 12 -11 64 -42 115 -68 62 -31 121 -72 180 -124 99 -87 135 -134 164 -212 33 -86 70 -113 124 -93 47 19 82 175 65 295 -34 240 -203 509 -375 597 -58 29 -161 39 -213 19z"/>
<path d="M6942 3739 c-212 -36 -448 -185 -565 -359 -41 -60 -87 -191 -87 -245 0 -111 86 -136 185 -54 63 53 88 63 214 88 120 24 212 26 332 7 102 -17 151 -9 215 35 154 106 165 315 24 443 -50 45 -101 71 -168 85 -59 12 -75 12 -150 0z"/>
<path d="M11933 3206 c-67 -30 -175 -166 -207 -259 -39 -115 33 -152 206 -108 164 42 229 99 236 205 3 51 0 66 -20 95 -12 19 -35 43 -50 54 -35 26 -121 33 -165 13z"/>
<path d="M7935 3143 c-41 -12 -66 -31 -135 -102 -166 -169 -242 -361 -176 -438 24 -27 27 -28 123 -28 110 0 194 21 320 81 127 60 183 141 183 261 0 57 -5 76 -30 120 -34 60 -84 97 -150 112 -58 14 -75 13 -135 -6z"/>
<path d="M2524 3110 c-12 -4 -31 -21 -44 -37 -18 -23 -21 -37 -18 -83 5 -74 28 -105 108 -145 79 -40 172 -122 190 -167 29 -72 78 -92 98 -40 39 103 5 245 -89 370 -72 95 -166 134 -245 102z"/>
<path d="M3745 3071 c-70 -18 -125 -63 -161 -131 -13 -25 -19 -57 -19 -111 0 -67 3 -81 30 -124 17 -27 49 -64 72 -81 117 -89 426 -149 511 -99 78 47 67 141 -35 297 -56 86 -169 199 -226 227 -50 24 -127 34 -172 22z"/>
<path d="M12416 2754 c-27 -9 -66 -26 -87 -40 -44 -27 -83 -95 -74 -126 6 -17 12 -19 43 -13 73 14 144 7 212 -20 63 -26 68 -26 104 -11 72 30 82 118 18 179 -51 49 -123 59 -216 31z"/>
<path d="M180 2682 c-50 -24 -70 -83 -46 -133 18 -39 53 -63 123 -84 94 -29 143 -15 143 38 0 57 -81 163 -143 186 -36 14 -36 14 -77 -7z"/>
</g>
</svg>