<?xml version="1.0" encoding="UTF-8" standalone="no"?>
<!DOCTYPE svg PUBLIC "-//W3C//DTD SVG 20010904//EN" "http://www.w3.org/TR/2001/REC-SVG-20010904/DTD/svg10.dtd">
<svg version="1.0" xmlns="http://www.w3.org/2000/svg" width="1280.000000pt" height="640.000000pt" viewBox="0 0 1280.000000 640.000000" preserveAspectRatio="xMidYMid meet">
<metadata>
Created by potrace 1.15, written by Peter Selinger 2001-2017
</metadata>
<g transform="translate(0.000000,640.000000) scale(0.100000,-0.100000)" fill="#000000" stroke="none">
<path d="M170 4090 l0 -70 6230 0 6230 0 0 70 0 70 -6230 0 -6230 0 0 -70z"/>
<path d="M1195 3276 c-102 -16 -167 -38 -280 -92 -168 -82 -323 -213 -538 -454 -141 -158 -244 -267 -306 -321 l-44 -39 43 -55 42 -55 47 39 c60 52 150 145 298 311 140 157 274 288 358 350 192 141 423 211 604 180 163 -27 281 -121 451 -356 196 -272 275 -361 386 -434 111 -72 193 -95 344 -95 101 0 138 4 195 22 148 47 280 155 416 340 41 55 108 146 149 203 91 124 207 238 281 273 30 15 89 35 132 44 67 14 90 15 160 5 185 -27 302 -122 510 -413 179 -252 276 -350 415 -419 82 -40 170 -60 274 -60 109 0 174 13 265 55 147 68 240 161 433 431 133 186 257 315 342 356 114 55 224 69 336 43 160 -38 275 -137 462 -399 193 -270 286 -363 433 -431 91 -42 156 -55 265 -55 104 0 192 20 274 60 139 69 235 166 415 418 208 292 325 387 510 414 70 10 93 9 160 -5 43 -9 102 -29 132 -44 74 -35 190 -149 281 -273 41 -57 108 -148 149 -203 136 -185 268 -293 416 -340 57 -18 94 -22 195 -22 151 0 233 23 344 95 111 73 190 162 386 434 170 235 288 329 451 356 181 31 412 -39 604 -180 84 -62 218 -193 358 -350 148 -166 238 -259 298 -311 l47 -39 42 55 43 55 -44 39 c-62 54 -165 163 -306 321 -214 241 -370 372 -538 454 -121 59 -205 83 -333 97 -143 16 -251 -2 -372 -62 -120 -59 -246 -187 -410 -416 -230 -323 -355 -413 -569 -413 -205 0 -329 79 -513 328 -37 50 -99 134 -138 186 -97 132 -180 218 -267 276 -204 136 -479 142 -683 12 -122 -77 -209 -173 -381 -416 -46 -66 -122 -159 -168 -208 -69 -73 -98 -95 -167 -130 -79 -39 -91 -42 -188 -46 -86 -4 -116 -1 -173 16 -148 45 -236 127 -439 407 -203 282 -314 381 -489 441 -69 23 -96 27 -195 27 -99 0 -126 -4 -195 -27 -175 -60 -286 -159 -489 -441 -203 -280 -291 -362 -439 -407 -57 -17 -87 -20 -173 -16 -97 4 -109 7 -188 46 -69 35 -98 57 -167 130 -46 49 -122 142 -168 208 -172 243 -259 339 -381 416 -204 130 -479 124 -683 -12 -87 -58 -170 -144 -269 -278 -40 -54 -102 -137 -138 -187 -182 -246 -306 -325 -511 -325 -214 0 -339 90 -569 413 -164 229 -290 357 -410 416 -133 66 -259 82 -425 57z"/>
</g>
</svg>