<?xml version="1.0" encoding="UTF-8" standalone="no"?>
<!DOCTYPE svg PUBLIC "-//W3C//DTD SVG 20010904//EN" "http://www.w3.org/TR/2001/REC-SVG-20010904/DTD/svg10.dtd">
<svg version="1.0" xmlns="http://www.w3.org/2000/svg" width="1280.000000pt" height="640.000000pt" viewBox="0 0 1280.000000 640.000000" preserveAspectRatio="xMidYMid meet">
<metadata>
Created by potrace 1.15, written by Peter Selinger 2001-2017
</metadata>
<g transform="translate(0.000000,640.000000) scale(0.100000,-0.100000)" fill="#f25e80" stroke="none">
<path d="M7485 6250 c-51 -12 -102 -37 -177 -86 -313 -202 -560 -545 -667 -928 l-28 -99 -18 49 c-188 512 -446 852 -760 1000 -156 73 -243 78 -316 17 -55 -46 -72 -101 -77 -241 -4 -120 -5 -124 -26 -117 -11 3 -62 8 -112 12 -199 13 -287 -50 -301 -216 -8 -94 10 -184 63 -316 83 -208 213 -417 379 -612 46 -54 81 -101 76 -106 -22 -22 -179 -27 -851 -28 -399 0 -743 -4 -765 -8 l-40 -7 33 -8 33 -8 -7 -1645 c-6 -1307 -5 -1646 5 -1652 17 -11 -74 -194 -144 -289 -10 -13 -182 67 -340 157 -533 305 -737 368 -1018 310 -121 -24 -223 -62 -317 -118 -82 -49 -296 -243 -365 -333 -58 -75 -165 -188 -177 -188 -4 0 -8 55 -8 123 0 185 -25 223 -175 262 -116 30 -270 13 -377 -41 -77 -39 -151 -114 -184 -187 -23 -51 -28 -75 -27 -137 1 -174 106 -304 274 -341 l54 -12 -35 -8 c-142 -31 -483 -54 -917 -61 -121 -3 -145 -6 -160 -21 -22 -22 -9 -48 32 -59 113 -30 813 -36 1035 -9 236 29 348 78 479 210 97 97 235 248 363 396 81 94 168 185 168 174 0 -2 -5 -20 -10 -39 -6 -19 -11 -74 -11 -121 -1 -107 18 -165 108 -334 79 -150 132 -206 221 -231 175 -51 383 70 490 285 51 101 66 172 60 283 -6 99 -41 188 -105 266 -34 41 -35 44 -12 37 13 -4 148 -66 299 -137 538 -255 578 -267 642 -203 24 24 29 25 69 16 63 -15 195 -13 255 3 72 19 144 60 194 111 39 40 45 42 71 33 22 -8 29 -16 29 -36 0 -26 21 -37 418 -218 284 -129 418 -186 420 -177 2 7 7 13 11 13 5 0 152 -68 329 -150 l320 -151 696 1 c616 0 696 -1 696 -15 0 -13 75 -15 650 -15 571 0 650 2 650 15 0 13 73 15 600 15 l600 0 0 338 0 337 103 46 c56 25 104 45 106 43 3 -3 -7 -17 -21 -32 -44 -48 -70 -92 -94 -160 -70 -200 14 -454 201 -604 78 -63 150 -91 240 -92 124 -2 220 64 283 194 14 30 41 82 60 114 53 96 73 166 73 264 0 48 -5 102 -11 121 -5 19 -8 36 -7 38 5 5 122 -118 224 -234 306 -352 365 -408 480 -464 150 -72 341 -94 823 -93 414 0 560 15 560 59 0 38 -36 43 -330 50 -324 7 -491 18 -669 42 -127 17 -129 20 -38 44 94 24 181 105 219 204 77 200 -39 411 -267 483 -121 38 -311 25 -400 -26 -56 -33 -69 -72 -75 -221 l-5 -135 -39 34 c-21 19 -73 77 -116 130 -193 238 -370 376 -569 445 -248 87 -426 77 -713 -40 -17 -7 -18 61 -20 1301 l-3 1307 -318 122 c-175 66 -321 126 -325 131 -4 6 -47 25 -97 42 -307 107 -410 144 -772 282 l-402 153 67 72 c217 233 405 533 488 780 73 217 28 399 -108 440 -107 31 -308 6 -484 -62 -11 -4 -14 10 -14 70 0 141 -36 257 -102 332 -23 26 -57 54 -75 61 -35 15 -99 17 -148 4z m44 -247 c20 -51 31 -135 31 -242 l0 -106 -63 -40 c-102 -65 -247 -187 -319 -268 -134 -149 -267 -346 -335 -494 -14 -30 -27 -53 -29 -51 -6 7 26 228 46 312 69 297 217 559 428 757 75 71 199 159 223 159 4 0 12 -12 18 -27z m-1763 -53 c197 -95 410 -339 537 -615 17 -38 15 -37 -43 27 -113 125 -291 255 -485 354 -136 70 -133 65 -134 207 l-1 69 33 -7 c17 -3 59 -19 93 -35z m-368 -327 c40 -9 76 -21 80 -27 3 -6 23 -67 43 -136 88 -299 225 -610 361 -819 20 -31 20 -33 2 -23 -39 21 -194 175 -267 264 -187 232 -335 516 -362 700 -11 75 -11 75 143 41z m2800 -6 c9 -77 -84 -314 -195 -497 -110 -181 -292 -393 -422 -490 -60 -45 -71 -50 -119 -50 l-52 0 52 64 c140 169 249 433 309 746 12 63 23 121 25 128 9 33 335 140 389 128 6 -1 11 -15 13 -29z m-2370 -194 c154 -104 309 -266 428 -448 57 -87 142 -250 173 -332 l21 -53 -108 0 -109 0 -61 56 c-131 118 -296 416 -407 737 -19 53 -32 97 -28 97 3 0 44 -26 91 -57z m1676 -120 c-19 -80 -82 -259 -120 -341 -58 -124 -115 -202 -220 -301 -78 -72 -91 -81 -125 -81 -22 0 -39 1 -39 3 0 11 57 142 91 209 52 104 110 197 178 287 61 82 218 251 232 251 5 0 6 -12 3 -27z m-4935 -4073 c133 -67 234 -317 191 -471 -13 -45 -135 -165 -201 -197 -129 -62 -237 21 -289 223 -28 110 -26 196 6 265 51 109 151 200 221 200 19 0 51 -9 72 -20z m7799 -139 c46 -23 109 -90 148 -157 27 -45 29 -57 29 -144 0 -119 -24 -210 -76 -291 -63 -97 -140 -120 -239 -69 -55 29 -161 130 -181 175 -49 107 7 325 112 434 69 72 136 88 207 52z m-9031 -124 c44 -23 91 -81 99 -123 9 -50 -1 -126 -25 -171 -77 -150 -266 -152 -375 -4 -85 115 -87 248 -5 292 58 31 251 34 306 6z m10418 -139 c48 -26 68 -54 73 -107 7 -78 -21 -144 -93 -217 -64 -65 -104 -84 -178 -84 -106 0 -196 107 -196 235 -1 89 42 153 124 183 44 17 232 9 270 -10z"/>
</g>
</svg>