<?xml version="1.0" encoding="UTF-8" standalone="no"?>
<!DOCTYPE svg PUBLIC "-//W3C//DTD SVG 20010904//EN" "http://www.w3.org/TR/2001/REC-SVG-20010904/DTD/svg10.dtd">
<svg version="1.0" xmlns="http://www.w3.org/2000/svg" width="1280.000000pt" height="640.000000pt" viewBox="0 0 1280.000000 640.000000" preserveAspectRatio="xMidYMid meet">
<metadata>
Created by potrace 1.15, written by Peter Selinger 2001-2017
</metadata>
<g transform="translate(0.000000,640.000000) scale(0.100000,-0.100000)" fill="#f25e80" stroke="none">
<path d="M4080 4113 c-105 -18 -229 -90 -308 -179 -64 -72 -131 -192 -168 -299 -28 -84 -29 -85 -59 -80 -161 26 -630 39 -920 26 -313 -14 -664 -40 -693 -52 -12 -5 -31 -23 -42 -41 -18 -29 -20 -51 -20 -188 0 -222 12 -238 190 -251 58 -4 184 -15 280 -24 245 -23 764 -31 997 -16 103 7 195 14 203 17 12 3 19 -14 32 -69 46 -202 152 -382 289 -490 66 -52 146 -86 230 -97 41 -5 323 -10 627 -10 318 0 551 -4 548 -9 -9 -14 77 -87 120 -102 33 -12 312 -14 1699 -14 1559 0 1662 1 1697 17 51 25 104 73 133 122 27 47 69 171 61 184 -2 4 9 28 26 52 65 97 139 276 153 373 4 26 10 49 14 51 3 2 80 -3 171 -12 222 -21 954 -23 1120 -3 63 7 177 16 253 20 136 6 137 7 168 37 39 40 49 83 49 224 0 177 -33 230 -140 230 -30 0 -132 9 -225 19 -255 29 -591 44 -825 37 -230 -8 -544 -24 -576 -31 -17 -4 -23 4 -38 53 -75 241 -220 415 -405 486 l-56 21 -2280 1 c-1254 1 -2291 -1 -2305 -3z"/>
</g>
</svg>