<?xml version="1.0" standalone="no"?>
<!DOCTYPE svg PUBLIC "-//W3C//DTD SVG 20010904//EN"
 "http://www.w3.org/TR/2001/REC-SVG-20010904/DTD/svg10.dtd">
<svg version="1.0" xmlns="http://www.w3.org/2000/svg"
 width="1280.000000pt" height="904.000000pt" viewBox="0 0 1280.000000 904.000000"
 preserveAspectRatio="xMidYMid meet">
<metadata>
Created by potrace 1.15, written by Peter Selinger 2001-2017
</metadata>
<g transform="translate(0.000000,904.000000) scale(0.100000,-0.100000)"
fill="#ffffff" stroke="none">
<path d="M2647 7376 c-253 -91 -357 -366 -230 -609 41 -78 95 -130 180 -172
51 -27 68 -30 148 -30 82 0 97 3 156 32 141 70 217 187 227 350 2 48 -1 103
-7 130 -32 127 -119 231 -238 285 -92 41 -151 45 -236 14z"/>
<path d="M10005 7386 c-164 -52 -267 -164 -301 -328 -20 -94 -6 -185 41 -284
40 -83 98 -138 192 -182 49 -23 71 -27 143 -27 75 0 93 4 152 32 37 17 87 51
111 75 81 81 138 242 122 346 -27 179 -123 297 -289 358 -74 27 -111 29 -171
10z"/>
<path d="M6207 7370 c-241 -21 -510 -79 -733 -158 -661 -237 -1221 -731 -1536
-1358 l-73 -144 -331 0 c-214 0 -342 4 -362 11 -52 18 -165 187 -248 369 -102
226 -129 251 -369 341 -146 55 -217 71 -287 63 -63 -6 -156 -46 -205 -88 -42
-36 -157 -202 -189 -274 -71 -158 -169 -429 -208 -574 -45 -164 -55 -230 -80
-503 -13 -137 -18 -161 -61 -275 -26 -68 -79 -194 -117 -280 -54 -120 -76
-185 -99 -290 -17 -74 -39 -166 -50 -205 -10 -38 -53 -200 -95 -360 -41 -159
-102 -391 -135 -515 l-60 -225 -246 -520 c-135 -286 -246 -533 -247 -549 -1
-28 9 -36 168 -129 124 -73 173 -97 184 -91 18 12 544 1011 656 1244 43 91
162 341 264 555 102 215 192 398 200 408 21 24 44 21 73 -11 32 -34 545 -733
569 -776 19 -31 28 -146 45 -546 3 -74 10 -220 16 -325 5 -104 14 -286 19
-404 7 -173 12 -217 25 -230 13 -13 49 -16 194 -19 173 -4 180 -3 190 17 8 14
11 267 9 889 l-3 868 -292 488 c-198 330 -293 497 -293 516 0 25 40 212 170
798 17 74 30 135 30 138 0 12 50 33 65 28 9 -4 100 -71 203 -150 l186 -144
243 -97 243 -97 0 -186 c0 -103 5 -236 11 -296 29 -302 132 -649 279 -938 33
-65 60 -125 60 -133 0 -7 -84 -316 -186 -686 -102 -369 -188 -684 -191 -699
-4 -20 1 -30 19 -42 22 -15 63 -5 748 174 l723 190 31 -19 c17 -10 87 -44 156
-74 561 -246 1196 -302 1784 -157 335 82 687 242 951 433 383 276 679 624 885
1042 189 381 275 735 288 1184 l7 213 235 95 236 94 179 140 c194 151 216 165
245 149 23 -12 31 -37 75 -240 20 -91 63 -286 96 -435 36 -159 58 -282 55
-298 -3 -16 -135 -243 -293 -505 l-288 -477 -3 -870 c-1 -478 0 -881 3 -894
l6 -23 184 3 c147 3 187 7 199 19 14 15 29 271 66 1135 5 127 13 258 16 293
l6 63 280 382 c155 210 288 392 297 404 21 29 58 40 76 22 8 -8 138 -275 290
-594 152 -319 296 -616 320 -660 45 -85 277 -525 414 -786 45 -87 88 -162 96
-169 17 -14 26 -9 223 107 78 46 142 90 142 98 0 8 -113 254 -251 547 l-251
533 -110 415 c-143 542 -204 780 -234 914 -15 70 -43 152 -78 230 -136 303
-181 433 -190 541 -30 367 -71 562 -167 812 -23 59 -56 146 -74 193 -45 118
-67 160 -143 274 -104 154 -196 210 -347 209 -70 0 -94 -6 -195 -45 -63 -25
-137 -53 -163 -62 -57 -21 -119 -67 -159 -117 -15 -19 -59 -102 -97 -185 -65
-144 -156 -287 -216 -344 l-27 -25 -341 -3 -342 -3 -74 147 c-134 266 -303
497 -526 719 -435 433 -1033 718 -1646 784 -143 16 -399 21 -522 11z m578
-579 c480 -83 900 -307 1239 -661 381 -398 595 -910 613 -1466 9 -278 -22
-498 -107 -757 -264 -799 -959 -1385 -1789 -1507 -153 -22 -437 -27 -581 -10
-304 37 -588 132 -856 286 -62 35 -117 64 -123 64 -7 0 -185 -45 -397 -101
-212 -55 -388 -98 -391 -95 -3 3 40 173 96 378 56 205 101 380 101 390 0 9
-30 65 -66 125 -225 370 -328 738 -327 1168 0 354 63 632 212 950 307 651 952
1133 1661 1239 163 24 162 24 385 21 155 -2 241 -9 330 -24z m-3059 -1488 c-3
-10 -10 -39 -17 -65 -6 -27 -14 -48 -18 -48 -13 0 -105 62 -118 79 -9 13 -8
18 5 25 24 14 71 24 115 25 32 1 37 -2 33 -16z m5520 -6 l24 -13 -27 -25 c-47
-43 -102 -73 -107 -57 -7 21 -26 106 -26 114 0 10 109 -5 136 -19z"/>
<path d="M5373 5896 c-63 -20 -106 -50 -167 -117 -103 -111 -167 -227 -202
-369 -28 -111 -27 -318 3 -425 50 -181 129 -334 296 -567 262 -367 507 -613
807 -811 131 -87 282 -159 475 -230 364 -132 575 -162 772 -111 127 33 313
153 387 250 65 85 111 252 104 380 -3 63 -7 78 -28 99 -23 23 -545 279 -619
304 -42 14 -116 14 -142 1 -10 -6 -41 -39 -67 -75 -104 -136 -208 -255 -230
-261 -25 -7 -142 40 -262 105 -259 140 -495 364 -669 636 -28 44 -51 86 -51
93 0 7 36 54 80 105 102 116 155 218 148 279 -7 54 -222 577 -263 638 -45 67
-86 83 -220 87 -73 2 -124 -2 -152 -11z"/>
</g>
</svg>
